<?xml version="1.0" encoding="utf-8"?>
<!-- Generator: Adobe Illustrator 15.0.0, SVG Export Plug-In . SVG Version: 6.00 Build 0)  -->
<!DOCTYPE svg PUBLIC "-//W3C//DTD SVG 1.1//EN" "http://www.w3.org/Graphics/SVG/1.1/DTD/svg11.dtd">
<svg version="1.1" id="Layer_1" xmlns:svg="http://www.w3.org/2000/svg"
	 xmlns="http://www.w3.org/2000/svg" xmlns:xlink="http://www.w3.org/1999/xlink" x="0px" y="0px" width="40px" height="40px"
	 viewBox="80 27.82 40 40" enable-background="new 80 27.82 40 40" xml:space="preserve">
<rect x="80" y="27.82" fill="#CC0000" width="40" height="40"/>
<g transform="matrix(1.2470709,0,0,-1.2470709,-28.601861,1011.2423)">
	<g transform="translate(-216,-15084)">
		<path fill="#FFFFFF" d="M316.715,15863.024c-1.129-0.08-2.086-1.03-2.086-2.37v-6.373c0-0.229-0.171-0.429-0.42-0.429h-1.991
			c-4.309-0.006-3.926,5.502-0.258,5.51h2.201v1.601h-2.281c-1.46,0-2.544-0.545-3.275-1.358c-0.731-0.813-1.099-1.908-1.1-3
			c-0.002-1.093,0.36-2.181,1.108-2.994c0.749-0.812,1.879-1.358,3.429-1.358h3.754c0.248,0,0.453,0.214,0.453,0.461v7.773
			c-0.002,0.399,0.224,0.711,0.518,0.801c0.294,0.091,0.639-0.023,0.841-0.316l0.009-0.008c1.068-1.746,5.307-8.547,5.313-8.559
			c0.117-0.166,0.255-0.194,0.355-0.162c0.101,0.034,0.204,0.144,0.202,0.413v7.831c-0.002,0.399,0.223,0.711,0.518,0.801
			c0.294,0.091,0.63-0.023,0.833-0.315v-0.009h0.016c1.068-1.746,5.307-8.547,5.313-8.559c0.115-0.163,0.25-0.196,0.356-0.162
			s0.212,0.137,0.211,0.405v10.337h-1.609v-6.033c0,0-0.961,1.641-2.605,4.465c-1.611,2.767-4.651,1.621-4.651-0.761v-3.704
			c0,0-0.943,1.641-2.588,4.465C318.576,15862.626,317.593,15863.089,316.715,15863.024L316.715,15863.024z M312.162,15862.983
			c-8.958,0-8.87-12.766,0.121-12.771h3.518c1.512,0,2.477,0.896,2.475,2.548v3.235c0,0,1.976-3.265,2.751-4.544
			c1.316-2.175,4.496-1.747,4.488,0.97v3.574c0,0,1.969-3.265,2.742-4.544c1.316-2.175,4.506-1.747,4.497,0.97v10.564h-1.609
			v-10.337c0.002-0.396-0.207-0.69-0.494-0.785c-0.287-0.093-0.616,0.024-0.817,0.308h-0.009v0.016c0,0-4.24,6.782-5.322,8.551
			c-0.003,0.003-0.005-0.004-0.009,0c-0.002,0,0.002,0.009,0,0.009c-0.111,0.147-0.255,0.181-0.373,0.145
			c-0.121-0.037-0.236-0.142-0.233-0.405v-7.828c0.002-0.396-0.202-0.706-0.486-0.803c-0.283-0.095-0.61,0.031-0.808,0.316v0.009
			h-0.009c0,0-4.244,6.795-5.322,8.559c-0.113,0.161-0.258,0.199-0.379,0.162c-0.121-0.037-0.235-0.142-0.234-0.404v-0.009v-7.772
			c0-0.472-0.388-0.866-0.858-0.866h-3.753c-1.647,0-2.896,0.592-3.722,1.488c-0.825,0.895-1.232,2.082-1.23,3.269
			c0.002,1.184,0.408,2.38,1.213,3.275c0.805,0.895,2.013,1.486,3.574,1.487h2.281v1.618h-1.997L312.162,15862.983z"/>
	</g>
</g>
</svg>
