<?xml version="1.0" encoding="utf-8"?>
<!-- Generator: Adobe Illustrator 15.0.0, SVG Export Plug-In . SVG Version: 6.00 Build 0)  -->
<!DOCTYPE svg PUBLIC "-//W3C//DTD SVG 1.1//EN" "http://www.w3.org/Graphics/SVG/1.1/DTD/svg11.dtd">
<svg version="1.1" id="Layer_1" xmlns="http://www.w3.org/2000/svg" xmlns:xlink="http://www.w3.org/1999/xlink" x="0px" y="0px"
	 width="52.124px" height="53.153px" viewBox="0 0 52.124 53.153" enable-background="new 0 0 52.124 53.153" xml:space="preserve">
<g>
	<text transform="matrix(1 0 0 1 -0.0225 50.6992)" fill="#666666" font-family="Play" font-size="12">democrat</text>
	<g>
		<g>
			<path fill="#BC4444" d="M17.417,18.281c0,0,0.836,3.493,1.082,4.625c0.247,1.131,0.394,2.508,0.394,4.132
				c0,0-0.639,2.016-0.542,2.657c0.099,0.639-0.393,1.033-0.639,1.426c-0.247,0.395-1.28,1.82-1.23,2.362
				c0.049,0.541,1.279,0.394,1.82,0.394c0.541,0,1.869,0.098,2.165-0.197c0.295-0.295-0.098-0.936,0.247-1.082
				c0.344-0.148,0.442,0.935,1.23,0.197c0.787-0.738,1.82-1.969,1.82-1.969s0.688-0.59-0.295-1.033
				c-0.984-0.442-0.984-1.131-1.082-1.328c-0.099-0.197-0.541-1.279-0.345-2.263c0.197-0.984,0.099-2.706,1.673-4.182
				c0,0,4.034,0.049,5.608-0.492c0,0,0.492,0.098,1.033,1.082c0.541,0.983,1.328,2.558,1.033,3.148
				c-0.295,0.59-0.344,1.575-0.344,1.575l-3.149,4.279c0,0-0.492,0.984,0.443,1.279s2.558,0.246,2.804-0.295
				c0.246-0.542,1.279-2.41,1.723-2.756c0.442-0.344,0.59-0.836,0.639-1.672c0.05-0.836,0.099-1.329,1.525-2.411
				s0.787-2.361,0.59-2.754c-0.196-0.394-0.295-1.526,0.295-0.689c0.592,0.836,0.838,1.82,1.034,2.313
				c0.196,0.492,0.196,2.902,0.196,3.296c0,0.395,0,0.688-0.098,0.983c-0.099,0.296-0.492,1.624-0.394,2.214
				c0,0-0.345,0.787-0.788,1.033c-0.442,0.246-1.278,0.984-0.982,1.427c0.295,0.443,1.328,0.64,1.869,0.64s1.525,0.147,2.313-1.377
				c0.786-1.525,0.983-1.574,0.885-2.264c-0.099-0.688,0.133-3.119,0.295-3.345c0.64-0.886,0.246-1.23-0.196-3.247
				c-0.444-2.017-0.688-3.197-0.345-3.346c0.345-0.147,0.688,0.296,0.885,0.542c0.197,0.246,0.838,0.739,0.838,1.132
				c0,0.394-0.05,0.738,0.146,0.983c0.197,0.247,0.541,0.739,0.541,0.984s0.246,0.983,0.443,0.492
				c0.197-0.492,0.99-2.216-0.098-2.903c-0.936-0.59-1.87-1.673-2.264-3.591L17.417,18.281L17.417,18.281z"/>
			<path fill="#0071BC" d="M17.27,17.298c-1.427-2.411-2.804-3.051-2.804-3.051c-1.673,1.673-2.706,2.165-4.575,1.673
				c-1.87-0.492-1.23-3.1-0.836-3.887c0.393-0.787,0.443-1.426,0.59-2.263c0.148-0.836,0.098-1.673,0.64-2.46
				c0.541-0.787-0.098-1.229-0.394-1.524C9.595,5.491,9.202,4.359,9.202,3.129s1.082-2.115,1.082-2.115
				c0.59,0.541,1.082,1.918,1.329,2.509c0.246,0.59,0.688,1.033,0.934,0.934c0.246-0.098,0.197-0.492,0.05-1.033
				c-0.148-0.542,1.476-3.1,1.476-3.1c0.64,0.738,1.673,2.854,1.377,3.936c-0.295,1.082,0.542,1.279,0.542,1.279
				s3.05,0.492,4.871,2.558c3.001,3.408,5.657,2.41,10.478,0.787c4.821-1.623,6.838-0.442,8.561,1.329
				c1.721,1.771,0.492,7.035,0.492,7.035L17.27,17.298z"/>
			<polygon fill="#FFFFFF" points="19.447,13.597 17.739,13.597 19.121,14.602 18.594,16.227 19.976,15.222 21.357,16.227 
				20.83,14.602 22.212,13.597 20.503,13.597 19.976,11.972 			"/>
			<polygon fill="#FFFFFF" points="25.154,13.597 23.446,13.597 24.828,14.602 24.3,16.227 25.682,15.222 27.064,16.227 
				26.536,14.602 27.919,13.597 26.21,13.597 25.682,11.972 			"/>
			<polygon fill="#FFFFFF" points="30.86,13.597 29.152,13.597 30.535,14.602 30.006,16.227 31.389,15.222 32.771,16.227 
				32.243,14.602 33.625,13.597 31.918,13.597 31.389,11.972 			"/>
			<polygon fill="#FFFFFF" points="36.568,13.597 34.859,13.597 36.241,14.602 35.713,16.227 37.096,15.222 38.479,16.227 
				37.95,14.602 39.332,13.597 37.624,13.597 37.096,11.972 			"/>
		</g>
	</g>
</g>
</svg>
