<?xml version="1.0" encoding="utf-8"?>
<!-- Generator: Adobe Illustrator 15.0.0, SVG Export Plug-In . SVG Version: 6.00 Build 0)  -->
<!DOCTYPE svg PUBLIC "-//W3C//DTD SVG 1.1//EN" "http://www.w3.org/Graphics/SVG/1.1/DTD/svg11.dtd">
<svg version="1.1" id="Layer_1" xmlns="http://www.w3.org/2000/svg" xmlns:xlink="http://www.w3.org/1999/xlink" x="0px" y="0px"
	 width="40px" height="40px" viewBox="0 0 40 40" enable-background="new 0 0 40 40" xml:space="preserve">
<rect fill="#FFFFFF" width="40" height="40"/>
<path fill="#231F20" d="M16.984,26.981V16.17l-3.25,1.453c0,0-0.831,1.854-0.685,4.545c0.115,2.103,1.293,4.624,2.197,5.673
	L16.984,26.981 M26.499,4.729c0.806,0.068,2.062,0.464,3.012,1.294c1.007,0.978,1.235,2.465,0.885,3.809
	c-0.315,1.208-0.667,1.827-1.895,2.661c-1.239,0.838-2.737,0.77-2.737,0.77v5.206l2.533,2.05l-2.533,2.045v7.094
	c0,0,2.538-1.454,4.11-4.715c0,0,0.068-0.174,0.214-0.511c0.142,0.873,0.061,2.636-0.925,4.904c-0.746,1.71-2.098,3.356-3.797,4.292
	c-3.009,1.668-5.265,1.827-7.684,1.329c-2.83-0.586-5.402-2.175-7.155-4.953c-1.234-1.947-1.786-4.224-1.737-6.67
	c0.098-4.801,3.671-8.942,7.795-10.486c0.502-0.193,0.7-0.31,1.414-0.377c-0.327,0.223-0.706,0.513-1.172,0.819
	c-1.329,0.869-2.467,2.608-2.952,3.949l8.005-3.575v11.192l-6.458,3.238c0.738,1.016,2.973,2.563,4.883,2.775
	c3.254,0.361,5.161-1.058,5.161-1.058v-7.248l-2.52-2.045l2.522-2.042v-5.213c-1.376-0.166-3.046-0.615-4.023-0.86
	c-1.435-0.351-6.221-1.699-6.974-1.808c-0.751-0.113-1.679-0.08-2.24,0.422c-0.561,0.51-0.908,1.401-0.668,2.201
	c0.134,0.453,0.445,0.717,0.683,0.978c0,0-0.279-0.022-0.779-0.325c-0.904-0.54-1.591-1.601-1.674-2.907
	c-0.106-1.717,0.602-3.257,2.016-4.299c1.227-0.793,2.618-1.295,4.235-1.064c2.355,0.332,5.527,1.665,8.348,2.344
	c1.093,0.264,1.94,0.351,2.71-0.095c0.356-0.256,0.989-0.925,0.472-1.808c-0.6-1.042-1.751-1.012-2.729-1.196
	C25.687,4.668,25.869,4.668,26.499,4.729z"/>
</svg>
