<?xml version="1.0" encoding="utf-8"?>
<!-- Generator: Adobe Illustrator 15.0.0, SVG Export Plug-In . SVG Version: 6.00 Build 0)  -->
<!DOCTYPE svg PUBLIC "-//W3C//DTD SVG 1.1//EN" "http://www.w3.org/Graphics/SVG/1.1/DTD/svg11.dtd">
<svg version="1.1" id="Layer_1" xmlns="http://www.w3.org/2000/svg" xmlns:xlink="http://www.w3.org/1999/xlink" x="0px" y="0px"
	 width="57.143px" height="47.49px" viewBox="0 0 57.143 47.49" enable-background="new 0 0 57.143 47.49" xml:space="preserve">
<g>
	<g>
		<text transform="matrix(1 0 0 1 0.4932 44.8682)" fill="#666666" font-family="Play" font-size="12">republican</text>
	</g>
	<g>
		<g>
			<path fill="#BC4444" d="M44.5,22.695c0.015-0.053,0.026-0.106,0.026-0.164c0-0.323-0.262-0.584-0.584-0.584H42.12
				c-0.322,0-0.584,0.261-0.584,0.584c0,0.057,0.012,0.111,0.025,0.164h-0.049c0,0,0.421,2.382-0.794,2.382
				c-0.654,0-0.606-1.588-0.606-1.588l0.022-10.479l-27.632-0.01c0,4.182,0,6.908,0,8.288v1.102v4.792
				c0,0.41,0.303,0.743,0.678,0.743h5.325c0.374,0,0.677-0.333,0.677-0.743v-4.792h0.011c0.055-0.319,0.333-0.561,0.667-0.561h7.288
				c0.333,0,0.611,0.242,0.667,0.561h0.011v4.792c0,0.41,0.303,0.743,0.677,0.743h5.326c0.373,0,0.676-0.333,0.676-0.743v-4.792
				v-1.102c0-0.223,0-0.482,0-0.774c0.063-0.163,0.186-0.296,0.422-0.296c0.607,0,0.98,2.335,1.074,2.99
				c0.093,0.654,0.607,5.185,4.251,5.185s4.298-3.551,4.298-5.699H44.5z"/>
			<path fill="#0071BC" d="M40.159,12.09H12.503c0-0.913,0-1.921,0-3.037c0-9.343,13.828-8.876,13.828-8.876
				s13.828-0.467,13.828,8.876C40.159,10.169,40.159,11.178,40.159,12.09z"/>
			<polygon fill="#FFFFFF" points="19.122,7.603 21.748,7.603 19.623,6.059 20.435,3.563 18.311,5.105 16.186,3.563 16.998,6.059 
				14.874,7.603 17.499,7.603 18.311,10.1 			"/>
			<polygon fill="#FFFFFF" points="27.11,7.603 29.736,7.603 27.611,6.059 28.423,3.563 26.299,5.105 24.175,3.563 24.986,6.059 
				22.862,7.603 25.487,7.603 26.299,10.1 			"/>
			<polygon fill="#FFFFFF" points="35.099,7.603 37.724,7.603 35.601,6.059 36.411,3.563 34.286,5.105 32.163,3.563 32.975,6.059 
				30.851,7.603 33.476,7.603 34.286,10.1 			"/>
		</g>
	</g>
</g>
</svg>
