<?xml version="1.0" encoding="utf-8"?>
<!-- Generator: Adobe Illustrator 15.0.0, SVG Export Plug-In . SVG Version: 6.00 Build 0)  -->
<!DOCTYPE svg PUBLIC "-//W3C//DTD SVG 1.1//EN" "http://www.w3.org/Graphics/SVG/1.1/DTD/svg11.dtd">
<svg version="1.1" id="Layer_1" xmlns="http://www.w3.org/2000/svg" xmlns:xlink="http://www.w3.org/1999/xlink" x="0px" y="0px"
	 width="58.43px" height="42.214px" viewBox="0 0 58.43 42.214" enable-background="new 0 0 58.43 42.214" xml:space="preserve">
<g>
	<g>
		<text transform="matrix(1 0 0 1 7.5874 42.0957)" fill="#666666" font-family="Play" font-size="12">Sanders</text>
	</g>
	<g>
		<g>
			<path fill="#EA504E" d="M58.046,18.076c0,0-0.227-0.037-0.604-0.129c-0.186-0.033-0.436-0.096-0.721-0.159
				s-0.629-0.127-1.004-0.162c-0.75-0.127-1.666-0.251-2.699-0.348c-1.043-0.128-2.234-0.229-3.516-0.292
				c-1.289-0.063-2.676-0.12-4.143-0.162c-0.73,0-1.508-0.035-2.258,0c-0.793,0-1.574,0-2.363,0.04
				c-1.602,0.034-3.258,0.1-4.955,0.183c-1.693,0.103-3.391,0.19-5.117,0.316c-0.854,0.064-1.695,0.127-2.572,0.224
				c-0.855,0.064-1.695,0.162-2.553,0.253c-0.406,0.035-0.852,0.101-1.25,0.125c-0.414,0.035-0.818,0.099-1.258,0.124
				c-0.41,0.063-0.816,0.101-1.227,0.127c-0.412,0.064-0.818,0.102-1.227,0.127c-1.607,0.164-3.174,0.285-4.684,0.314
				c-0.752,0.033-1.48,0.06-2.172,0.06c-0.689,0-1.381,0-2.043-0.035c-1.287-0.036-2.484-0.128-3.551-0.226
				C7.067,18.33,6.153,18.17,5.399,17.98c-0.377-0.099-0.693-0.188-0.979-0.286c-0.285-0.1-0.537-0.188-0.725-0.284
				c-0.189-0.104-0.35-0.163-0.414-0.228c-0.096-0.063-0.123-0.1-0.123-0.1s0.061,0.034,0.162,0.064
				c0.1,0.034,0.246,0.1,0.441,0.124c0.186,0.063,0.439,0.102,0.727,0.164c0.287,0.06,0.623,0.099,0.996,0.124
				c0.381,0.033,0.793,0.063,1.234,0.063c0.439,0,0.938,0.035,1.441,0c1.043,0,2.234-0.063,3.488-0.127
				c0.627-0.035,1.316-0.099,2.012-0.122c0.689-0.063,1.412-0.126,2.131-0.19c1.477-0.125,3.012-0.288,4.617-0.473
				c0.816-0.1,1.633-0.188,2.445-0.29c0.818-0.1,1.672-0.188,2.512-0.284c0.854-0.101,1.697-0.164,2.574-0.227
				c0.85-0.063,1.729-0.123,2.576-0.188c1.725-0.128,3.449-0.188,5.143-0.226c1.691-0.035,3.359-0.035,4.988,0
				c0.818,0.036,1.611,0.036,2.387,0.098c0.789,0.037,1.543,0.101,2.295,0.128c1.479,0.1,2.891,0.25,4.174,0.414
				c1.295,0.185,2.492,0.374,3.518,0.562c1.039,0.225,1.951,0.413,2.674,0.627c0.379,0.102,0.689,0.187,0.977,0.289
				s0.541,0.163,0.723,0.227C57.823,18.014,58.046,18.076,58.046,18.076z"/>
			<path fill="#087ED7" d="M14.036,10.818c0-1.626-0.918-2.571-2.828-2.856c1.605-0.348,2.361-1.195,2.361-2.571
				c0-2.047-1.293-2.888-4.494-2.888H3.899v1.29h0.883c0.252,0,0.35,0.123,0.35,0.473v7.911c0,0.375-0.1,0.502-0.35,0.502H3.899
				v1.29h5.15C12.528,13.96,14.036,13.017,14.036,10.818z M7.573,3.789h1.441c1.479,0,2.006,0.477,2.006,1.887
				c0,1.32-0.688,1.855-2.133,1.855H7.573V3.789z M7.573,8.662H9.3c1.51,0,2.17,0.563,2.17,2.04c0,1.447-0.625,1.983-2.295,1.983
				H7.573V8.662L7.573,8.662z"/>
			<polygon fill="#087ED7" points="42.974,4.17 44.11,3.288 45.245,4.17 44.802,2.788 45.935,1.938 44.55,1.938 44.11,0.556 
				43.665,1.938 42.259,1.938 43.386,2.788 			"/>
			<g id="XMLID_2_">
				<g>
					<path fill="#087ED7" d="M54.78,15.215c0.406,0.123,0.549,0.25,0.549,0.25s-0.184-0.026-0.6-0.127
						c-0.186-0.062-0.438-0.101-0.723-0.165c-0.316-0.056-0.625-0.122-1.004-0.182c-0.754-0.129-1.662-0.253-2.697-0.378
						c-1.043-0.126-2.197-0.216-3.49-0.314c-1.281-0.09-2.674-0.152-4.143-0.185c-1.473-0.041-3.039-0.041-4.643,0
						c-1.596,0.034-3.264,0.058-4.959,0.159c-1.693,0.064-3.426,0.189-5.117,0.313c-1.695,0.166-3.393,0.313-5.09,0.475
						c-0.402,0.027-0.836,0.091-1.246,0.126c-0.445,0.029-0.848,0.087-1.26,0.127c-0.816,0.097-1.633,0.19-2.449,0.287
						c-1.596,0.165-3.164,0.285-4.641,0.346c-1.48,0.063-2.887,0.063-4.18,0.063c-1.318-0.025-2.512-0.088-3.551-0.187
						c-1.029-0.1-1.945-0.225-2.697-0.412c-0.375-0.09-0.691-0.188-0.979-0.251c-0.289-0.1-0.539-0.185-0.727-0.285
						c-0.217-0.101-0.342-0.165-0.441-0.227c0.09,0.038,0.254,0.101,0.441,0.163c0.412,0.127,0.979,0.25,1.73,0.316
						c0.381,0.035,0.793,0.06,1.227,0.1c0.441,0.034,0.91,0.034,1.445,0.034c0.537,0,1.068,0,1.67-0.034
						c0.598,0,1.227-0.03,1.855-0.063c1.283-0.066,2.662-0.165,4.141-0.29c0.752-0.063,1.514-0.126,2.262-0.227
						c0.789-0.062,1.572-0.151,2.359-0.249c0.314-0.062,0.625-0.09,0.939-0.126c-2.977-0.125-4.453-2.095-4.453-4.834
						c0-2.889,1.818-4.833,4.488-4.833c2.74,0,4.238,1.783,4.238,4.833v0.475h-6.271c0.027,1.734,0.844,2.861,2.445,2.861
						c1.23,0,1.947-0.653,2.359-1.756l1.355,0.629c-0.377,1.103-1.107,2.008-2.363,2.419c0.723-0.092,1.449-0.19,2.203-0.251
						c0.16-0.025,0.348-0.025,0.537-0.062v-1.167h0.787c0.217,0,0.313-0.063,0.313-0.503V6.778c0-0.439-0.092-0.564-0.313-0.564
						h-0.852V4.796h1.445c0.875,0,1.658-0.09,2.072-0.188v2.008c0.412-1.471,1.316-2.07,2.352-2.07c1.285,0,2.08,0.874,2.08,2.23
						c0,1.192-0.691,1.985-1.697,1.985c-0.627,0-1.193-0.57-1.193-1.257c0-0.507,0.316-1.035,0.854-1.192
						c-0.125-0.127-0.35-0.191-0.602-0.191c-1.156,0-1.752,1.159-1.752,3.075v2.889c0,0.439,0.123,0.503,0.309,0.503h0.857v0.752
						c1.092-0.066,2.223-0.125,3.324-0.16v-0.605h0.791c0.215,0,0.314-0.059,0.314-0.502V6.767c0-0.442-0.092-0.566-0.314-0.566
						h-0.566c-0.063-0.375-0.373-1.19-0.854-1.415h2.01c0.852,0,1.666-0.092,2.045-0.189v1.82c0.539-1.256,1.539-1.885,2.924-1.885
						c1.814,0,2.797,1.128,2.797,3.426v4.082c0,0.438,0.123,0.503,0.311,0.503h0.791v0.624c0.1,0,0.188,0,0.285,0v-0.624h0.793
						c0.189,0,0.285-0.09,0.285-0.503V6.918c0-0.592-0.061-0.753-0.377-0.753h-0.689V4.75h1.414c0.879,0,1.662-0.089,2.07-0.189
						v7.473c0,0.402,0.104,0.501,0.289,0.501h0.756v1.004c0.184,0.026,0.377,0.026,0.563,0.06c0.908,0.128,1.787,0.255,2.576,0.378
						c-2.074-0.593-3.113-2.352-3.113-4.646c0-2.887,1.82-4.834,4.494-4.834c2.732,0,4.24,1.781,4.24,4.834v0.475h-6.279
						c0.027,1.732,0.844,2.857,2.443,2.857c1.23,0,1.953-0.651,2.363-1.755l1.352,0.63c-0.502,1.47-1.662,2.633-3.891,2.633
						c-0.188,0-0.381-0.035-0.561-0.035c0.973,0.19,1.854,0.377,2.543,0.568c0.377,0.097,0.695,0.187,0.977,0.286
						C54.345,15.087,54.599,15.15,54.78,15.215z M48.782,8.563h3.895c-0.029-1.844-0.566-2.576-1.82-2.576
						C49.604,5.986,48.913,6.741,48.782,8.563z M38.093,12.05V7.996c0-1.279-0.441-1.818-1.416-1.818
						c-1.195,0-1.885,0.969-1.885,3.013v2.857c0,0.439,0.123,0.503,0.313,0.503h0.693v0.502c0.434-0.036,0.875-0.036,1.289,0v-0.502
						h0.689C37.991,12.553,38.093,12.491,38.093,12.05z M16.806,8.563h3.891c-0.027-1.844-0.566-2.576-1.818-2.576
						C17.624,5.987,16.929,6.741,16.806,8.563z"/>
					<path d="M0.569,14.549c0,0,0.061,0,0.121,0.1C0.63,14.587,0.569,14.549,0.569,14.549z"/>
				</g>
			</g>
			<path fill="#087ED7" d="M25.009,23.91c0.287-0.296,0.484-0.535,0.592-0.722c0.107-0.189,0.16-0.387,0.16-0.592
				c0-0.369-0.123-0.652-0.375-0.872c-0.248-0.217-0.543-0.317-0.879-0.317c-0.328,0-0.611,0.061-0.824,0.193
				c-0.217,0.135-0.402,0.332-0.582,0.6l0.547,0.316c0.219-0.34,0.496-0.503,0.824-0.503c0.189,0,0.342,0.053,0.467,0.169
				c0.123,0.116,0.176,0.25,0.176,0.414c0,0.157-0.053,0.321-0.17,0.477c-0.113,0.16-0.307,0.373-0.582,0.643l-1.219,1.217v0.572
				h2.74v-0.643h-1.818L25.009,23.91z M28.163,21.408c-0.545,0-0.957,0.188-1.223,0.565c-0.271,0.376-0.406,0.881-0.406,1.516
				c0,0.64,0.135,1.14,0.406,1.514c0.266,0.379,0.678,0.565,1.223,0.565c0.551,0,0.963-0.186,1.232-0.565
				c0.271-0.374,0.402-0.874,0.402-1.514c0-0.635-0.131-1.137-0.402-1.516C29.126,21.597,28.714,21.408,28.163,21.408z
				 M28.899,24.574c-0.154,0.279-0.402,0.415-0.734,0.415c-0.34,0-0.582-0.139-0.742-0.415c-0.164-0.277-0.242-0.638-0.242-1.085
				c0-0.446,0.08-0.808,0.242-1.083c0.16-0.283,0.406-0.413,0.742-0.413c0.342,0,0.584,0.135,0.734,0.413
				c0.156,0.275,0.232,0.637,0.232,1.083C29.132,23.94,29.063,24.297,28.899,24.574z"/>
			<polygon fill="#087ED7" points="30.31,22.108 31.124,22.108 31.124,25.518 31.761,25.518 31.761,21.507 30.31,21.507 			"/>
			<path fill="#087ED7" d="M35.235,23.29c-0.246-0.24-0.551-0.356-0.914-0.356c-0.215,0-0.42,0.044-0.598,0.144
				c-0.18,0.088-0.313,0.197-0.408,0.303c0-0.409,0.088-0.729,0.254-0.974c0.172-0.239,0.434-0.358,0.793-0.358
				c0.115,0,0.24,0.025,0.393,0.088c0.143,0.063,0.262,0.138,0.348,0.206l0.344-0.502c-0.352-0.269-0.744-0.402-1.186-0.402
				s-0.797,0.159-1.102,0.467c-0.152,0.161-0.281,0.373-0.363,0.651c-0.086,0.28-0.131,0.622-0.131,1.033
				c0,0.412,0.07,0.78,0.203,1.112c0.244,0.576,0.689,0.86,1.33,0.86c0.395,0,0.723-0.113,0.988-0.36
				c0.26-0.241,0.395-0.557,0.395-0.959C35.581,23.838,35.472,23.534,35.235,23.29z M34.771,24.773
				c-0.152,0.135-0.338,0.193-0.563,0.193c-0.227,0-0.412-0.071-0.566-0.221c-0.152-0.148-0.227-0.327-0.227-0.533
				c0-0.202,0.084-0.368,0.234-0.5c0.156-0.129,0.352-0.188,0.584-0.188c0.234,0,0.416,0.073,0.557,0.212
				c0.135,0.145,0.205,0.316,0.205,0.522C34.995,24.48,34.915,24.638,34.771,24.773z"/>
			<rect x="4.653" y="23.38" fill="#E1E2E2" width="17.039" height="0.229"/>
			<rect x="37.112" y="23.38" fill="#E1E2E2" width="17.031" height="0.229"/>
		</g>
	</g>
</g>
</svg>
