<?xml version="1.0" encoding="utf-8"?>
<!-- Generator: Adobe Illustrator 15.0.0, SVG Export Plug-In . SVG Version: 6.00 Build 0)  -->
<!DOCTYPE svg PUBLIC "-//W3C//DTD SVG 1.1//EN" "http://www.w3.org/Graphics/SVG/1.1/DTD/svg11.dtd">
<svg version="1.1" id="Layer_1" xmlns="http://www.w3.org/2000/svg" xmlns:xlink="http://www.w3.org/1999/xlink" x="0px" y="0px"
	 width="32.046px" height="51.609px" viewBox="0 0 32.046 51.609" enable-background="new 0 0 32.046 51.609" xml:space="preserve">
<g>
	<g>
		<text transform="matrix(1 0 0 1 0.2012 48.7983)" fill="#666666" font-family="Play" font-size="12">swing</text>
	</g>
	<g>
		<g>
			<path fill="#BC4444" d="M15.074,21.219c-1.42,0-2.632,0.504-3.631,1.512c-1.001,1.007-1.5,2.236-1.5,3.686
				c0,1.493,0.482,2.722,1.445,3.687c0.964,0.963,2.193,1.445,3.687,1.445c1.436,0,2.66-0.496,3.675-1.489
				c1.014-0.993,1.521-2.2,1.521-3.62c0-1.421-0.51-2.646-1.532-3.676C17.715,21.734,16.494,21.219,15.074,21.219z"/>
			<path fill="#0071BC" d="M22.043,3.248C20.18,1.443,17.885,0.54,15.161,0.54c-1.537,0-3.022,0.363-4.458,1.087
				C9.268,2.353,8.1,3.331,7.202,4.563c-1.163,1.592-1.77,3.625-1.823,6.102c-0.002,0.117,0.136,0.356,0.367,0.356
				c0.169,0,3.711,0,5.655,0l0.364-0.948L9.381,6.599l4.208,0.222l2.568-3.34l1.089,4.07l3.971,1.41l-3.535,2.293l-0.115,4.212
				l-3.273-2.653l-1.642,0.485c-0.511,0.388-0.893,0.85-1.145,1.387c-0.407,0.862-0.609,2.2-0.609,4.012v1.1
				c0,0-0.001,0.271,0.207,0.271c0.207,0,7.454,0,7.615,0c0.16,0,0.247-0.167,0.249-0.247c0.014-0.905,0.107-1.504,0.281-1.797
				c0.188-0.319,0.717-0.696,1.587-1.13c2.667-1.333,4-3.646,4-6.937C24.836,7.289,23.905,5.052,22.043,3.248z"/>
		</g>
	</g>
</g>
</svg>
