<?xml version="1.0" encoding="utf-8"?>
<!-- Generator: Adobe Illustrator 15.0.0, SVG Export Plug-In . SVG Version: 6.00 Build 0)  -->
<!DOCTYPE svg PUBLIC "-//W3C//DTD SVG 1.1//EN" "http://www.w3.org/Graphics/SVG/1.1/DTD/svg11.dtd">
<svg version="1.1" id="Layer_1" xmlns="http://www.w3.org/2000/svg" xmlns:xlink="http://www.w3.org/1999/xlink" x="0px" y="0px"
	 width="54px" height="82.992px" viewBox="0 0 54 82.992" enable-background="new 0 0 54 82.992" xml:space="preserve">
<g>
	<g opacity="0.25">
		<g>
			<g enable-background="new    ">
				<defs>
					<rect id="SVGID_1_" x="5.129" y="59.142" enable-background="new    " width="35.577" height="15.599"/>
				</defs>
				<clipPath id="SVGID_2_">
					<use xlink:href="#SVGID_1_"  overflow="visible"/>
				</clipPath>
				<g clip-path="url(#SVGID_2_)">
					<g>
						<g>
							<g>
								<path fill="#231F20" d="M22.922,73.221c-7.902,0-14.319-2.818-14.319-6.279c0-3.462,6.417-6.276,14.319-6.276
									c7.894,0,14.311,2.814,14.311,6.276C37.232,70.402,30.815,73.221,22.922,73.221 M22.922,59.142
									c-9.81,0-17.793,3.501-17.793,7.8c0,4.302,7.983,7.799,17.793,7.799c9.811,0,17.784-3.497,17.784-7.799
									C40.706,62.643,32.732,59.142,22.922,59.142"/>
								<path fill="#231F20" d="M22.922,62.998c-4.977,0-9,1.764-9,3.943c0,2.183,4.023,3.947,9,3.947
									c4.968,0,8.991-1.765,8.991-3.947C31.913,64.762,27.89,62.998,22.922,62.998"/>
							</g>
						</g>
					</g>
				</g>
			</g>
		</g>
	</g>
	<defs>
		<filter id="Adobe_OpacityMaskFilter" filterUnits="userSpaceOnUse" x="11.11" y="30.694" width="44.619" height="43.075">
			<feColorMatrix  type="matrix" values="1 0 0 0 0  0 1 0 0 0  0 0 1 0 0  0 0 0 1 0"/>
		</filter>
	</defs>
	<mask maskUnits="userSpaceOnUse" x="11.11" y="30.694" width="44.619" height="43.075" id="SVGID_3_">
		<g filter="url(#Adobe_OpacityMaskFilter)">
			<path fill="#FFFFFF" d="M19.787,58.066l3.155,10.878c0,0,26.986-5.729,29.893-17.687s4.484-23.084-12.289-21.838
				C23.773,30.666,19.787,58.066,19.787,58.066z"/>
		</g>
	</mask>
	<g opacity="0.36" mask="url(#SVGID_3_)">
		<defs>
			<filter id="Adobe_OpacityMaskFilter_1_" filterUnits="userSpaceOnUse" x="11.11" y="30.694" width="44.619" height="43.075">
				<feFlood  style="flood-color:white;flood-opacity:1" result="back"/>
				<feBlend  in="SourceGraphic" in2="back" mode="normal"/>
			</filter>
		</defs>
		<mask maskUnits="userSpaceOnUse" x="11.11" y="30.694" width="44.619" height="43.075" id="SVGID_3_">
			<g filter="url(#Adobe_OpacityMaskFilter_1_)">
				<image overflow="visible" width="49" height="48" xlink:href="5D225C7E.jpg"  transform="matrix(1 0 0 1 9 27.9961)">
				</image>
			</g>
		</mask>
		<g>
			<g enable-background="new    ">
				<defs>
					<polygon id="SVGID_4_" enable-background="new    " points="11.11,73.77 16.875,30.91 55.729,30.694 49.964,73.554 					"/>
				</defs>
				<clipPath id="SVGID_5_">
					<use xlink:href="#SVGID_4_"  overflow="visible"/>
				</clipPath>
				<g clip-path="url(#SVGID_5_)">
					<g>
						<g>
							<g>
								<path d="M43.28,30.763c-4.998,0.028-10.772,2.562-15.375,7.215C20.564,45.398,11.11,73.77,11.11,73.77
									s29.004-10.548,36.335-17.968c7.342-7.43,8.916-17.427,3.517-22.35C48.948,31.616,46.251,30.747,43.28,30.763"/>
							</g>
						</g>
					</g>
				</g>
			</g>
		</g>
	</g>
	<linearGradient id="SVGID_6_" gradientUnits="userSpaceOnUse" x1="0" y1="34.3765" x2="45.835" y2="34.3765">
		<stop  offset="0.5" style="stop-color:#2794E6"/>
		<stop  offset="0.5" style="stop-color:#087ED7"/>
	</linearGradient>
	<path fill="url(#SVGID_6_)" d="M45.835,22.918c0,12.656-22.917,45.835-22.917,45.835S0,35.574,0,22.918C0,10.26,10.261,0,22.918,0
		S45.835,10.26,45.835,22.918z"/>
	<g>
		<linearGradient id="SVGID_7_" gradientUnits="userSpaceOnUse" x1="5.1563" y1="22.0947" x2="40.6787" y2="22.0947">
			<stop  offset="0.5" style="stop-color:#FFFFFF"/>
			<stop  offset="0.5" style="stop-color:#FAFAFA"/>
		</linearGradient>
		<circle fill="url(#SVGID_7_)" cx="22.917" cy="22.094" r="17.761"/>
		<path opacity="0.5" fill="#5E5E5E" d="M5.795,22.431c0-9.81,7.952-17.762,17.763-17.762c2.901,0,5.631,0.71,8.051,1.944
			c-2.57-1.446-5.532-2.279-8.69-2.279c-9.811,0-17.762,7.951-17.762,17.76c0,6.908,3.951,12.881,9.71,15.817
			C9.455,34.867,5.795,29.08,5.795,22.431z"/>
	</g>
	<g>
		<g>
			<path fill="#EA504E" d="M40.358,26.967c0,0-0.137-0.023-0.365-0.078c-0.113-0.021-0.266-0.059-0.439-0.097
				s-0.381-0.077-0.609-0.099c-0.455-0.077-1.012-0.152-1.639-0.211c-0.631-0.077-1.354-0.138-2.131-0.176
				c-0.785-0.038-1.625-0.074-2.516-0.099c-0.441,0-0.914-0.021-1.369,0c-0.482,0-0.955,0-1.434,0.024
				c-0.973,0.021-1.979,0.061-3.008,0.112c-1.027,0.061-2.057,0.115-3.106,0.191c-0.518,0.039-1.028,0.077-1.561,0.136
				c-0.519,0.039-1.029,0.099-1.548,0.153c-0.248,0.022-0.517,0.062-0.76,0.076c-0.25,0.022-0.495,0.06-0.764,0.076
				c-0.248,0.038-0.493,0.061-0.744,0.077c-0.249,0.039-0.495,0.061-0.744,0.077c-0.974,0.099-1.926,0.173-2.841,0.19
				c-0.457,0.021-0.898,0.036-1.318,0.036c-0.419,0-0.838,0-1.241-0.021c-0.782-0.022-1.507-0.077-2.155-0.137
				c-0.646-0.076-1.2-0.174-1.658-0.288c-0.229-0.06-0.419-0.114-0.593-0.174s-0.326-0.114-0.44-0.173
				c-0.115-0.063-0.213-0.098-0.252-0.137c-0.059-0.039-0.074-0.061-0.074-0.061s0.037,0.021,0.098,0.039
				c0.06,0.021,0.151,0.061,0.267,0.076c0.114,0.038,0.267,0.061,0.441,0.099c0.174,0.036,0.38,0.06,0.606,0.075
				c0.231,0.021,0.48,0.038,0.748,0.038c0.267,0,0.569,0.022,0.875,0c0.633,0,1.355-0.038,2.117-0.077
				c0.381-0.021,0.799-0.059,1.221-0.074c0.418-0.038,0.857-0.076,1.293-0.115c0.897-0.076,1.828-0.175,2.802-0.287
				c0.495-0.061,0.991-0.115,1.485-0.176c0.497-0.061,1.014-0.114,1.523-0.173c0.518-0.061,1.03-0.1,1.563-0.138
				c0.516-0.037,1.049-0.074,1.563-0.113c1.047-0.077,2.094-0.114,3.121-0.137c1.028-0.021,2.039-0.021,3.028,0
				c0.496,0.022,0.977,0.022,1.449,0.06c0.477,0.022,0.934,0.06,1.391,0.077c0.898,0.061,1.754,0.151,2.535,0.251
				c0.785,0.112,1.51,0.228,2.133,0.341c0.631,0.137,1.184,0.251,1.623,0.381c0.229,0.061,0.418,0.113,0.592,0.175
				s0.328,0.099,0.441,0.137C40.222,26.929,40.358,26.967,40.358,26.967z"/>
			<path fill="#087ED7" d="M13.65,22.563c0-0.988-0.558-1.561-1.716-1.734c0.975-0.211,1.431-0.725,1.431-1.56
				c0-1.243-0.783-1.753-2.726-1.753H7.499v0.783h0.535c0.153,0,0.212,0.074,0.212,0.287v4.801c0,0.227-0.061,0.304-0.212,0.304
				H7.499v0.784h3.124C12.735,24.469,13.65,23.896,13.65,22.563z M9.727,18.297h0.875c0.898,0,1.219,0.289,1.219,1.144
				c0,0.802-0.418,1.126-1.296,1.126H9.727V18.297z M9.727,21.254h1.048c0.916,0,1.317,0.342,1.317,1.238
				c0,0.878-0.379,1.203-1.392,1.203H9.727V21.254L9.727,21.254z"/>
			<polygon fill="#087ED7" points="31.212,18.527 31.901,17.992 32.591,18.527 32.321,17.689 33.009,17.173 32.169,17.173 
				31.901,16.334 31.632,17.173 30.778,17.173 31.462,17.689 			"/>
			<g id="XMLID_72_">
				<g>
					<path fill="#087ED7" d="M38.378,25.23c0.246,0.076,0.332,0.152,0.332,0.152s-0.113-0.016-0.365-0.076
						c-0.113-0.038-0.264-0.062-0.439-0.101c-0.191-0.034-0.379-0.074-0.609-0.11c-0.457-0.078-1.008-0.154-1.637-0.23
						c-0.633-0.076-1.334-0.131-2.117-0.19c-0.777-0.055-1.623-0.093-2.516-0.112c-0.891-0.025-1.844-0.025-2.816,0
						c-0.968,0.02-1.98,0.035-3.009,0.096c-1.028,0.039-2.078,0.115-3.107,0.191c-1.029,0.1-2.057,0.189-3.086,0.288
						c-0.245,0.016-0.509,0.054-0.759,0.076c-0.269,0.017-0.514,0.053-0.764,0.077c-0.495,0.059-0.99,0.115-1.485,0.174
						c-0.969,0.1-1.92,0.174-2.818,0.21c-0.897,0.038-1.752,0.038-2.536,0.038c-0.799-0.016-1.523-0.054-2.154-0.113
						c-0.626-0.061-1.181-0.137-1.638-0.25c-0.228-0.055-0.419-0.115-0.593-0.153c-0.175-0.06-0.327-0.112-0.441-0.173
						c-0.131-0.061-0.207-0.1-0.268-0.137c0.055,0.023,0.154,0.06,0.268,0.098c0.249,0.078,0.594,0.153,1.051,0.193
						c0.229,0.021,0.479,0.036,0.744,0.06c0.268,0.021,0.552,0.021,0.877,0.021c0.326,0,0.647,0,1.013-0.021
						c0.364,0,0.745-0.018,1.126-0.038c0.778-0.04,1.617-0.1,2.512-0.176c0.458-0.039,0.918-0.077,1.374-0.137
						c0.479-0.037,0.952-0.092,1.431-0.152c0.191-0.037,0.38-0.054,0.571-0.076c-1.807-0.076-2.704-1.271-2.704-2.933
						c0-1.753,1.105-2.933,2.726-2.933c1.662,0,2.572,1.082,2.572,2.933v0.288h-3.808c0.017,1.052,0.513,1.736,1.485,1.736
						c0.746,0,1.182-0.396,1.432-1.065l0.822,0.381c-0.228,0.669-0.671,1.218-1.433,1.468c0.438-0.055,0.878-0.115,1.335-0.152
						c0.099-0.016,0.211-0.016,0.326-0.037v-0.709h0.479c0.131,0,0.19-0.038,0.19-0.305v-3.221c0-0.266-0.056-0.342-0.19-0.342
						h-0.517v-0.861h0.876c0.532,0,1.006-0.053,1.258-0.113v1.218c0.251-0.892,0.799-1.256,1.429-1.256
						c0.779,0,1.26,0.53,1.26,1.353c0,0.724-0.42,1.205-1.028,1.205c-0.381,0-0.725-0.346-0.725-0.762
						c0-0.308,0.191-0.629,0.518-0.724c-0.077-0.077-0.212-0.116-0.366-0.116c-0.7,0-1.063,0.703-1.063,1.866v1.753
						c0,0.267,0.075,0.305,0.188,0.305h0.519v0.457c0.662-0.04,1.35-0.076,2.019-0.098v-0.367h0.479
						c0.131,0,0.192-0.035,0.192-0.305v-3.219c0-0.269-0.056-0.344-0.192-0.344h-0.342c-0.04-0.228-0.228-0.723-0.518-0.859h1.219
						c0.517,0,1.011-0.055,1.241-0.115v1.105c0.327-0.762,0.935-1.144,1.773-1.144c1.103,0,1.698,0.685,1.698,2.079v2.477
						c0,0.266,0.074,0.305,0.189,0.305h0.479v0.379c0.061,0,0.115,0,0.174,0v-0.379h0.48c0.115,0,0.174-0.054,0.174-0.305v-3.108
						c0-0.359-0.037-0.457-0.229-0.457h-0.418v-0.858h0.859c0.533,0,1.008-0.055,1.256-0.115v4.535c0,0.244,0.061,0.304,0.174,0.304
						h0.459v0.609c0.113,0.015,0.229,0.015,0.342,0.036c0.551,0.078,1.084,0.154,1.563,0.229c-1.258-0.359-1.889-1.426-1.889-2.819
						c0-1.752,1.104-2.933,2.727-2.933c1.658,0,2.574,1.081,2.574,2.933v0.288h-3.811c0.016,1.051,0.512,1.735,1.484,1.735
						c0.746,0,1.184-0.396,1.432-1.066l0.822,0.382c-0.305,0.893-1.008,1.599-2.363,1.599c-0.113,0-0.229-0.022-0.34-0.022
						c0.59,0.115,1.125,0.229,1.543,0.345c0.23,0.059,0.422,0.113,0.594,0.174C38.112,25.153,38.265,25.191,38.378,25.23z
						 M34.737,21.193h2.363c-0.018-1.119-0.344-1.563-1.105-1.563S34.815,20.088,34.737,21.193z M28.248,23.31v-2.46
						c0-0.777-0.267-1.104-0.86-1.104c-0.724,0-1.142,0.588-1.142,1.828v1.735c0,0.266,0.074,0.304,0.189,0.304h0.42v0.305
						c0.265-0.021,0.532-0.021,0.783,0v-0.305h0.419C28.188,23.615,28.248,23.577,28.248,23.31z M15.33,21.193h2.362
						c-0.016-1.119-0.344-1.563-1.104-1.563C15.826,19.631,15.405,20.088,15.33,21.193z"/>
					<path d="M5.476,24.826c0,0,0.038,0,0.076,0.061C5.514,24.85,5.476,24.826,5.476,24.826z"/>
				</g>
			</g>
			<path fill="#087ED7" d="M20.309,30.508c0.174-0.18,0.295-0.325,0.36-0.439c0.063-0.115,0.097-0.234,0.097-0.359
				c0-0.224-0.077-0.396-0.229-0.529c-0.151-0.131-0.33-0.193-0.533-0.193c-0.199,0-0.37,0.037-0.499,0.117
				c-0.132,0.082-0.245,0.203-0.354,0.365l0.331,0.191c0.133-0.206,0.301-0.305,0.501-0.305c0.114,0,0.207,0.033,0.283,0.103
				c0.075,0.07,0.108,0.151,0.108,0.251c0,0.096-0.033,0.195-0.104,0.289c-0.069,0.098-0.185,0.227-0.353,0.391l-0.741,0.738v0.348
				h1.664v-0.391h-1.104L20.309,30.508z M22.223,28.989c-0.331,0-0.581,0.114-0.743,0.343c-0.163,0.229-0.245,0.535-0.245,0.92
				c0,0.388,0.082,0.691,0.245,0.919c0.162,0.229,0.412,0.343,0.743,0.343c0.333,0,0.584-0.113,0.748-0.343
				c0.164-0.228,0.244-0.531,0.244-0.919c0-0.385-0.08-0.69-0.244-0.92C22.807,29.104,22.556,28.989,22.223,28.989z M22.671,30.91
				c-0.094,0.17-0.245,0.252-0.446,0.252c-0.207,0-0.354-0.084-0.451-0.252c-0.099-0.168-0.147-0.387-0.147-0.658
				s0.049-0.49,0.147-0.657c0.098-0.172,0.246-0.251,0.451-0.251c0.207,0,0.353,0.082,0.446,0.251
				c0.092,0.167,0.14,0.386,0.14,0.657C22.811,30.525,22.769,30.742,22.671,30.91z"/>
			<polygon fill="#087ED7" points="23.525,29.414 24.02,29.414 24.02,31.483 24.406,31.483 24.406,29.049 23.525,29.049 			"/>
			<path fill="#087ED7" d="M26.513,30.131c-0.148-0.146-0.334-0.216-0.552-0.216c-0.13,0-0.256,0.026-0.363,0.087
				c-0.109,0.054-0.19,0.119-0.248,0.184c0-0.248,0.053-0.443,0.155-0.591c0.103-0.146,0.263-0.218,0.48-0.218
				c0.069,0,0.147,0.016,0.238,0.054c0.087,0.038,0.161,0.083,0.21,0.125l0.209-0.305c-0.213-0.163-0.451-0.244-0.718-0.244
				s-0.485,0.097-0.67,0.283c-0.092,0.098-0.169,0.227-0.218,0.396c-0.054,0.169-0.081,0.376-0.081,0.627
				c0,0.249,0.044,0.473,0.124,0.674c0.147,0.35,0.418,0.523,0.806,0.523c0.24,0,0.44-0.07,0.599-0.219
				c0.158-0.146,0.24-0.338,0.24-0.582C26.725,30.464,26.658,30.279,26.513,30.131z M26.233,31.031
				c-0.093,0.082-0.206,0.117-0.342,0.117c-0.137,0-0.251-0.043-0.344-0.133c-0.092-0.09-0.136-0.199-0.136-0.324
				c0-0.123,0.05-0.223,0.142-0.303c0.093-0.078,0.213-0.115,0.354-0.115c0.143,0,0.252,0.045,0.337,0.129
				c0.082,0.088,0.125,0.193,0.125,0.318C26.369,30.853,26.32,30.949,26.233,31.031z"/>
			<rect x="7.956" y="30.186" fill="#E1E2E2" width="10.34" height="0.138"/>
			<rect x="27.654" y="30.186" fill="#E1E2E2" width="10.337" height="0.138"/>
		</g>
	</g>
</g>
</svg>
