<?xml version="1.0" encoding="utf-8"?>
<!-- Generator: Adobe Illustrator 15.0.0, SVG Export Plug-In . SVG Version: 6.00 Build 0)  -->
<!DOCTYPE svg PUBLIC "-//W3C//DTD SVG 1.1//EN" "http://www.w3.org/Graphics/SVG/1.1/DTD/svg11.dtd">
<svg version="1.1" id="bslogo" xmlns="http://www.w3.org/2000/svg" xmlns:xlink="http://www.w3.org/1999/xlink" x="0px" y="0px"
	 width="80px" height="42px" viewBox="0 0 80 42" enable-background="new 0 0 80 42" xml:space="preserve">
<g>
	<path fill="#EA504E" d="M80,27.977c0,0-0.312-0.051-0.836-0.176c-0.262-0.049-0.61-0.137-1.011-0.225
		c-0.398-0.088-0.873-0.176-1.396-0.225c-1.049-0.176-2.32-0.35-3.757-0.486c-1.446-0.176-3.106-0.313-4.892-0.398
		c-1.797-0.088-3.719-0.176-5.765-0.227c-1.012,0-2.098-0.049-3.146,0c-1.098,0-2.184,0-3.281,0.051
		c-2.232,0.051-4.542,0.139-6.899,0.262c-2.358,0.139-4.717,0.264-7.126,0.438c-1.186,0.088-2.358,0.176-3.581,0.313
		c-1.187,0.088-2.358,0.225-3.544,0.35c-0.574,0.051-1.186,0.139-1.747,0.176c-0.574,0.051-1.136,0.137-1.747,0.176
		c-0.574,0.086-1.137,0.137-1.709,0.174c-0.574,0.088-1.137,0.137-1.71,0.174c-2.233,0.227-4.417,0.4-6.515,0.439
		c-1.047,0.049-2.059,0.086-3.02,0.086c-0.96,0-1.921,0-2.846-0.051c-1.797-0.049-3.456-0.174-4.941-0.311
		c-1.484-0.176-2.757-0.4-3.806-0.662c-0.524-0.137-0.962-0.262-1.36-0.4c-0.398-0.137-0.749-0.262-1.011-0.396
		c-0.263-0.139-0.487-0.227-0.574-0.314c-0.137-0.086-0.174-0.137-0.174-0.137s0.087,0.051,0.226,0.088
		c0.137,0.049,0.348,0.137,0.61,0.174c0.263,0.088,0.61,0.139,1.011,0.227c0.399,0.086,0.874,0.137,1.397,0.174
		c0.524,0.051,1.098,0.088,1.71,0.088c0.611,0,1.31,0.049,2.009,0c1.448,0,3.106-0.088,4.854-0.176
		c0.873-0.049,1.834-0.137,2.795-0.174c0.961-0.088,1.972-0.176,2.97-0.264c2.06-0.174,4.192-0.398,6.426-0.66
		c1.136-0.139,2.271-0.264,3.407-0.398c1.135-0.139,2.32-0.264,3.494-0.4c1.186-0.137,2.359-0.225,3.582-0.313
		c1.186-0.086,2.408-0.174,3.582-0.262c2.407-0.176,4.804-0.262,7.163-0.313c2.357-0.051,4.679-0.051,6.949,0
		c1.137,0.051,2.233,0.051,3.319,0.137c1.098,0.051,2.146,0.139,3.194,0.176c2.059,0.139,4.019,0.35,5.814,0.574
		c1.797,0.262,3.456,0.523,4.893,0.785c1.446,0.313,2.708,0.574,3.719,0.873c0.522,0.139,0.96,0.264,1.359,0.4
		c0.398,0.137,0.749,0.225,1.011,0.313C79.688,27.889,80,27.977,80,27.977z"/>
	<path fill="#087ED7" d="M18.743,17.88c0-2.271-1.272-3.581-3.931-3.98c2.232-0.486,3.281-1.659,3.281-3.581
		c0-2.845-1.797-4.018-6.252-4.018H4.643v1.797h1.223c0.35,0,0.487,0.175,0.487,0.661v11.006c0,0.523-0.138,0.699-0.487,0.699H4.643
		v1.797h7.162C16.646,22.25,18.743,20.938,18.743,17.88z M9.746,8.097h2.01c2.059,0,2.795,0.662,2.795,2.621
		c0,1.834-0.961,2.583-2.971,2.583H9.746V8.097z M9.746,14.875h2.408c2.098,0,3.02,0.785,3.02,2.845c0,2.01-0.873,2.758-3.194,2.758
		H9.746V14.875L9.746,14.875z"/>
	<polygon fill="#087ED7" points="59.023,8.622 60.608,7.399 62.181,8.622 61.569,6.701 63.142,5.515 61.22,5.515 60.608,3.593 
		59.984,5.515 58.025,5.515 59.598,6.701 	"/>
	<g id="XMLID_1_">
		<g>
			<path fill="#087ED7" d="M75.458,23.996c0.563,0.176,0.763,0.35,0.763,0.35s-0.263-0.037-0.836-0.174
				c-0.264-0.088-0.612-0.141-1.013-0.227c-0.436-0.086-0.873-0.174-1.396-0.262c-1.048-0.174-2.31-0.35-3.756-0.525
				c-1.447-0.174-3.059-0.297-4.854-0.436c-1.783-0.125-3.718-0.213-5.765-0.262c-2.047-0.053-4.229-0.053-6.464,0
				c-2.222,0.049-4.542,0.086-6.9,0.225c-2.358,0.088-4.768,0.262-7.125,0.436c-2.359,0.227-4.718,0.438-7.076,0.662
				c-0.563,0.037-1.173,0.125-1.746,0.174c-0.613,0.039-1.174,0.125-1.748,0.176c-1.136,0.139-2.271,0.264-3.406,0.398
				c-2.221,0.227-4.406,0.4-6.465,0.488c-2.059,0.086-4.019,0.086-5.815,0.086c-1.834-0.037-3.493-0.125-4.942-0.262
				c-1.434-0.139-2.707-0.313-3.755-0.574c-0.524-0.123-0.96-0.262-1.36-0.352c-0.398-0.137-0.748-0.26-1.01-0.396
				c-0.3-0.139-0.475-0.225-0.611-0.314c0.123,0.053,0.349,0.139,0.611,0.227c0.573,0.174,1.36,0.35,2.408,0.438
				c0.523,0.049,1.098,0.086,1.709,0.137s1.262,0.051,2.008,0.051c0.75,0,1.485,0,2.322-0.051c0.836,0,1.709-0.035,2.583-0.088
				c1.785-0.088,3.708-0.225,5.765-0.398c1.049-0.088,2.098-0.176,3.146-0.313c1.099-0.088,2.185-0.211,3.282-0.35
				c0.438-0.086,0.873-0.125,1.311-0.174c-4.145-0.176-6.201-2.92-6.201-6.727c0-4.02,2.533-6.727,6.25-6.727
				c3.807,0,5.902,2.482,5.902,6.727v0.66h-8.734c0.037,2.409,1.174,3.981,3.406,3.981c1.709,0,2.708-0.91,3.282-2.445l1.885,0.873
				c-0.522,1.535-1.534,2.794-3.282,3.369c1-0.125,2.01-0.262,3.059-0.35c0.225-0.037,0.486-0.037,0.749-0.088v-1.622h1.098
				c0.3,0,0.437-0.088,0.437-0.699V12.25c0-0.61-0.125-0.786-0.437-0.786h-1.185V9.494h2.008c1.224,0,2.309-0.124,2.883-0.263v2.795
				c0.574-2.046,1.834-2.883,3.282-2.883c1.786,0,2.882,1.223,2.882,3.106c0,1.66-0.96,2.76-2.357,2.76
				c-0.873,0-1.66-0.787-1.66-1.747c0-0.7,0.437-1.437,1.186-1.66c-0.175-0.175-0.486-0.264-0.836-0.264
				c-1.609,0-2.445,1.61-2.445,4.28v4.019c0,0.611,0.174,0.699,0.436,0.699h1.188v1.049c1.521-0.089,3.094-0.176,4.629-0.226v-0.837
				h1.1c0.299,0,0.438-0.087,0.438-0.698v-7.387c0-0.612-0.126-0.787-0.438-0.787h-0.787c-0.088-0.522-0.523-1.658-1.186-1.971
				h2.795c1.186,0,2.321-0.125,2.846-0.262v2.531c0.749-1.747,2.146-2.62,4.068-2.62c2.532,0,3.894,1.572,3.894,4.768v5.679
				c0,0.61,0.175,0.697,0.437,0.697h1.099v0.873c0.139,0,0.263,0,0.398,0v-0.873h1.1c0.263,0,0.398-0.123,0.398-0.697v-7.127
				c0-0.823-0.087-1.048-0.523-1.048h-0.96V9.429h1.972c1.223,0,2.308-0.124,2.883-0.262v10.396c0,0.561,0.137,0.699,0.398,0.699
				h1.048v1.396c0.263,0.037,0.524,0.037,0.786,0.086c1.261,0.176,2.482,0.352,3.582,0.525c-2.884-0.824-4.33-3.27-4.33-6.463
				c0-4.02,2.533-6.727,6.251-6.727c3.807,0,5.901,2.483,5.901,6.727v0.661h-8.733c0.036,2.406,1.173,3.979,3.406,3.979
				c1.709,0,2.707-0.911,3.28-2.445l1.886,0.872c-0.698,2.047-2.31,3.669-5.416,3.669c-0.263,0-0.524-0.051-0.785-0.051
				c1.358,0.264,2.582,0.525,3.543,0.787c0.523,0.137,0.961,0.262,1.36,0.4C74.848,23.82,75.195,23.908,75.458,23.996z
				 M67.11,14.736h5.415c-0.037-2.568-0.785-3.581-2.532-3.581C68.245,11.155,67.285,12.203,67.11,14.736z M52.224,19.59V13.95
				c0-1.784-0.612-2.532-1.973-2.532c-1.659,0-2.62,1.348-2.62,4.191v3.98c0,0.611,0.176,0.698,0.438,0.698h0.961v0.698
				c0.61-0.05,1.223-0.05,1.797,0v-0.698h0.96C52.086,20.291,52.224,20.203,52.224,19.59z M22.599,14.736h5.417
				c-0.038-2.568-0.787-3.581-2.534-3.581S22.773,12.203,22.599,14.736z"/>
			<path d="M0,23.072c0,0,0.088,0,0.176,0.137C0.088,23.121,0,23.072,0,23.072z"/>
		</g>
	</g>
	<path fill="#087ED7" d="M34.018,36.1c0.398-0.412,0.674-0.748,0.822-1.01c0.15-0.264,0.226-0.537,0.226-0.824
		c0-0.512-0.175-0.912-0.524-1.211s-0.761-0.449-1.223-0.449c-0.461,0-0.848,0.088-1.148,0.275
		c-0.299,0.188-0.562,0.461-0.811,0.836l0.762,0.436c0.299-0.473,0.687-0.697,1.147-0.697c0.262,0,0.474,0.074,0.649,0.236
		c0.174,0.162,0.25,0.35,0.25,0.574c0,0.223-0.076,0.449-0.238,0.66c-0.161,0.225-0.424,0.523-0.812,0.898l-1.696,1.697v0.799h3.817
		v-0.898h-2.532L34.018,36.1z M38.409,32.617c-0.761,0-1.335,0.264-1.709,0.787c-0.375,0.523-0.562,1.225-0.562,2.109
		s0.188,1.584,0.562,2.107c0.375,0.523,0.949,0.785,1.709,0.785c0.761,0,1.335-0.262,1.71-0.785
		c0.374-0.523,0.563-1.223,0.563-2.107s-0.188-1.586-0.563-2.109C39.744,32.881,39.17,32.617,38.409,32.617z M39.433,37.023
		c-0.212,0.387-0.562,0.574-1.023,0.574c-0.474,0-0.811-0.189-1.036-0.574c-0.225-0.387-0.337-0.887-0.337-1.51
		c0-0.625,0.112-1.123,0.337-1.51c0.226-0.389,0.563-0.574,1.036-0.574c0.476,0,0.812,0.188,1.023,0.574
		c0.211,0.385,0.323,0.885,0.323,1.51C39.756,36.137,39.657,36.637,39.433,37.023z"/>
	<polygon fill="#087ED7" points="41.392,33.592 42.527,33.592 42.527,38.334 43.413,38.334 43.413,32.756 41.392,32.756 	"/>
	<path fill="#087ED7" d="M48.242,35.238c-0.337-0.336-0.761-0.498-1.26-0.498c-0.3,0-0.587,0.063-0.836,0.199
		c-0.25,0.125-0.438,0.273-0.574,0.424c0-0.574,0.125-1.021,0.361-1.359c0.236-0.336,0.6-0.498,1.099-0.498
		c0.162,0,0.337,0.035,0.549,0.123c0.2,0.088,0.374,0.188,0.486,0.287l0.475-0.697c-0.485-0.375-1.035-0.563-1.646-0.563
		s-1.11,0.225-1.534,0.648c-0.213,0.225-0.388,0.523-0.5,0.91c-0.124,0.387-0.187,0.861-0.187,1.436s0.1,1.086,0.286,1.547
		c0.338,0.799,0.96,1.199,1.848,1.199c0.549,0,1.011-0.162,1.372-0.5c0.361-0.336,0.55-0.773,0.55-1.336
		S48.579,35.576,48.242,35.238z M47.606,37.297c-0.213,0.188-0.475,0.273-0.786,0.273c-0.313,0-0.574-0.1-0.786-0.311
		c-0.213-0.201-0.313-0.449-0.313-0.736s0.111-0.512,0.323-0.699c0.214-0.176,0.487-0.262,0.813-0.262s0.574,0.1,0.773,0.299
		c0.188,0.199,0.286,0.438,0.286,0.725C47.918,36.887,47.806,37.111,47.606,37.297z"/>
	<rect x="5.69" y="35.363" fill="#E1E2E2" width="23.709" height="0.313"/>
	<rect x="50.863" y="35.363" fill="#E1E2E2" width="23.709" height="0.313"/>
</g>
</svg>
