<?xml version="1.0" encoding="utf-8"?>
<!-- Generator: Adobe Illustrator 15.0.0, SVG Export Plug-In . SVG Version: 6.00 Build 0)  -->
<!DOCTYPE svg PUBLIC "-//W3C//DTD SVG 1.1//EN" "http://www.w3.org/Graphics/SVG/1.1/DTD/svg11.dtd">
<svg version="1.1" id="Layer_1" xmlns="http://www.w3.org/2000/svg" xmlns:xlink="http://www.w3.org/1999/xlink" x="0px" y="0px"
	 width="900px" height="826px" viewBox="0 0 900 826" enable-background="new 0 0 900 826" xml:space="preserve">
<symbol  id="_x12_408540160_-1058669184_31_x00_" viewBox="-57.639 -54.818 115.277 109.637">
	<polygon fill="#F6F5F4" points="0,54.818 17.812,18.729 57.639,12.941 28.819,-15.151 35.623,-54.818 0,-36.09 -35.623,-54.818 
		-28.819,-15.151 -57.639,12.941 -17.812,18.729 	"/>
</symbol>
<symbol  id="_x12_408540160_1001454208_11_x00_" viewBox="-57.639 -54.818 115.277 109.637">
	<polygon fill="#F3F3F1" points="0,54.818 17.812,18.729 57.639,12.941 28.819,-15.151 35.623,-54.818 0,-36.09 -35.623,-54.818 
		-28.819,-15.151 -57.639,12.941 -17.812,18.729 	"/>
</symbol>
<symbol  id="_x12_408540160_1001454208_13_x00_" viewBox="-57.639 -54.818 115.277 109.637">
	<polygon fill="#F4F3F1" points="0,54.818 17.812,18.729 57.639,12.941 28.819,-15.151 35.623,-54.818 0,-36.09 -35.623,-54.818 
		-28.819,-15.151 -57.639,12.941 -17.812,18.729 	"/>
</symbol>
<symbol  id="_x12_408540160_1001454208_15_x00_" viewBox="-57.639 -54.818 115.277 109.637">
	<polygon fill="#F4F3F1" points="0,54.818 17.812,18.729 57.639,12.941 28.819,-15.151 35.623,-54.818 0,-36.09 -35.623,-54.818 
		-28.819,-15.151 -57.639,12.941 -17.812,18.729 	"/>
</symbol>
<symbol  id="_x12_408540160_1001454208_16_x00_" viewBox="-57.639 -54.818 115.277 109.637">
	<polygon fill="#F4F3F1" points="0,54.818 17.812,18.729 57.639,12.941 28.819,-15.151 35.623,-54.818 0,-36.09 -35.623,-54.818 
		-28.819,-15.151 -57.639,12.941 -17.812,18.729 	"/>
</symbol>
<symbol  id="_x12_408540160_1001454208_17_x00_" viewBox="-57.639 -54.818 115.277 109.637">
	<polygon fill="#F4F3F1" points="0,54.818 17.812,18.729 57.639,12.941 28.819,-15.151 35.623,-54.818 0,-36.09 -35.623,-54.818 
		-28.819,-15.151 -57.639,12.941 -17.812,18.729 	"/>
</symbol>
<symbol  id="_x12_408540160_1001454208_18_x00_" viewBox="-57.639 -54.818 115.277 109.637">
	<polygon fill="#F4F3F1" points="0,54.818 17.812,18.729 57.639,12.941 28.819,-15.151 35.623,-54.818 0,-36.09 -35.623,-54.818 
		-28.819,-15.151 -57.639,12.941 -17.812,18.729 	"/>
</symbol>
<symbol  id="_x12_408540160_1001454208_20_x00_" viewBox="-57.639 -54.818 115.277 109.637">
	<polygon fill="#F5F3F1" points="0,54.818 17.812,18.729 57.639,12.941 28.819,-15.151 35.623,-54.818 0,-36.09 -35.623,-54.818 
		-28.819,-15.151 -57.639,12.941 -17.812,18.729 	"/>
</symbol>
<symbol  id="_x12_408540160_1001454208_28_x00_" viewBox="-57.639 -54.818 115.277 109.637">
	<polygon fill="#F6F3F0" points="0,54.818 17.812,18.729 57.639,12.941 28.819,-15.151 35.623,-54.818 0,-36.09 -35.623,-54.818 
		-28.819,-15.151 -57.639,12.941 -17.812,18.729 	"/>
</symbol>
<symbol  id="_x12_408540160_1001454208_32_x00_" viewBox="-57.639 -54.818 115.277 109.637">
	<polygon fill="#F6F4F0" points="0,54.818 17.812,18.729 57.639,12.941 28.819,-15.151 35.623,-54.818 0,-36.09 -35.623,-54.818 
		-28.819,-15.151 -57.639,12.941 -17.812,18.729 	"/>
</symbol>
<symbol  id="_x12_408540160_1001454208_40_x00_" viewBox="-57.639 -54.818 115.277 109.637">
	<polygon fill="#F7F4EF" points="0,54.818 17.812,18.729 57.639,12.941 28.819,-15.151 35.623,-54.818 0,-36.09 -35.623,-54.818 
		-28.819,-15.151 -57.639,12.941 -17.812,18.729 	"/>
</symbol>
<symbol  id="_x12_408540160_1001454208_41_x00_" viewBox="-57.639 -54.818 115.277 109.637">
	<polygon fill="#F7F4EF" points="0,54.818 17.812,18.729 57.639,12.941 28.819,-15.151 35.623,-54.818 0,-36.09 -35.623,-54.818 
		-28.819,-15.151 -57.639,12.941 -17.812,18.729 	"/>
</symbol>
<symbol  id="_x12_408540160_1001454208_45_x00_" viewBox="-57.639 -54.818 115.277 109.637">
	<polygon fill="#F8F4EF" points="0,54.818 17.812,18.729 57.639,12.941 28.819,-15.151 35.623,-54.818 0,-36.09 -35.623,-54.818 
		-28.819,-15.151 -57.639,12.941 -17.812,18.729 	"/>
</symbol>
<symbol  id="_x12_408540160_1001454208_53_x00_" viewBox="-57.639 -54.818 115.277 109.637">
	<polygon fill="#F9F5EE" points="0,54.818 17.812,18.729 57.639,12.941 28.819,-15.151 35.623,-54.818 0,-36.09 -35.623,-54.818 
		-28.819,-15.151 -57.639,12.941 -17.812,18.729 	"/>
</symbol>
<symbol  id="_x12_408540160_1001454208_54_x00_" viewBox="-57.639 -54.818 115.277 109.637">
	<polygon fill="#F9F5EE" points="0,54.818 17.812,18.729 57.639,12.941 28.819,-15.151 35.623,-54.818 0,-36.09 -35.623,-54.818 
		-28.819,-15.151 -57.639,12.941 -17.812,18.729 	"/>
</symbol>
<symbol  id="_x12_408540160_1001454208_59_x00_" viewBox="-57.639 -54.818 115.277 109.637">
	<polygon fill="#FAF5EE" points="0,54.818 17.812,18.729 57.639,12.941 28.819,-15.151 35.623,-54.818 0,-36.09 -35.623,-54.818 
		-28.819,-15.151 -57.639,12.941 -17.812,18.729 	"/>
</symbol>
<symbol  id="_x12_408540160_1001454208_6_x00_" viewBox="-57.639 -54.818 115.277 109.637">
	<polygon fill="#F3F2F2" points="0,54.818 17.812,18.729 57.639,12.941 28.819,-15.151 35.623,-54.818 0,-36.09 -35.623,-54.818 
		-28.819,-15.151 -57.639,12.941 -17.812,18.729 	"/>
</symbol>
<symbol  id="_x12_408540160_1001454208_63_x00_" viewBox="-57.639 -54.818 115.277 109.637">
	<polygon fill="#FAF5EE" points="0,54.818 17.812,18.729 57.639,12.941 28.819,-15.151 35.623,-54.818 0,-36.09 -35.623,-54.818 
		-28.819,-15.151 -57.639,12.941 -17.812,18.729 	"/>
</symbol>
<symbol  id="_x12_408540160_1001454208_69_x00_" viewBox="-57.639 -54.818 115.277 109.637">
	<polygon fill="#FBF5ED" points="0,54.818 17.812,18.729 57.639,12.941 28.819,-15.151 35.623,-54.818 0,-36.09 -35.623,-54.818 
		-28.819,-15.151 -57.639,12.941 -17.812,18.729 	"/>
</symbol>
<symbol  id="_x12_408540160_1001454208_73_x00_" viewBox="-57.639 -54.818 115.277 109.637">
	<polygon fill="#FBF6ED" points="0,54.818 17.812,18.729 57.639,12.941 28.819,-15.151 35.623,-54.818 0,-36.09 -35.623,-54.818 
		-28.819,-15.151 -57.639,12.941 -17.812,18.729 	"/>
</symbol>
<symbol  id="_x12_408540160_1001454208_74_x00_" viewBox="-57.639 -54.818 115.277 109.637">
	<polygon fill="#FBF6ED" points="0,54.818 17.812,18.729 57.639,12.941 28.819,-15.151 35.623,-54.818 0,-36.09 -35.623,-54.818 
		-28.819,-15.151 -57.639,12.941 -17.812,18.729 	"/>
</symbol>
<symbol  id="_x12_408540160_1001454208_79_x00_" viewBox="-57.639 -54.818 115.277 109.637">
	<polygon fill="#FCF6EC" points="0,54.818 17.812,18.729 57.639,12.941 28.819,-15.151 35.623,-54.818 0,-36.09 -35.623,-54.818 
		-28.819,-15.151 -57.639,12.941 -17.812,18.729 	"/>
</symbol>
<symbol  id="_x12_408540160_1001454208_90_x00_" viewBox="-57.639 -54.818 115.277 109.637">
	<polygon fill="#FDF6EC" points="0,54.818 17.812,18.729 57.639,12.941 28.819,-15.151 35.623,-54.818 0,-36.09 -35.623,-54.818 
		-28.819,-15.151 -57.639,12.941 -17.812,18.729 	"/>
</symbol>
<symbol  id="_x12_408540160_1001454208_93_x00_" viewBox="-57.639 -54.818 115.277 109.637">
	<polygon fill="#FEF7EB" points="0,54.818 17.812,18.729 57.639,12.941 28.819,-15.151 35.623,-54.818 0,-36.09 -35.623,-54.818 
		-28.819,-15.151 -57.639,12.941 -17.812,18.729 	"/>
</symbol>
<symbol  id="_x12_408540160_1001454208_94_x00_" viewBox="-57.639 -54.818 115.277 109.637">
	<polygon fill="#FEF7EB" points="0,54.818 17.812,18.729 57.639,12.941 28.819,-15.151 35.623,-54.818 0,-36.09 -35.623,-54.818 
		-28.819,-15.151 -57.639,12.941 -17.812,18.729 	"/>
</symbol>
<symbol  id="_x12_408540160_1001454208_95_x00_" viewBox="-57.639 -54.818 115.277 109.637">
	<polygon fill="#FEF7EB" points="0,54.818 17.812,18.729 57.639,12.941 28.819,-15.151 35.623,-54.818 0,-36.09 -35.623,-54.818 
		-28.819,-15.151 -57.639,12.941 -17.812,18.729 	"/>
</symbol>
<symbol  id="_x12_408540160_1001454208_99_x00_" viewBox="-57.639 -54.818 115.277 109.637">
	<polygon fill="#FFF7EB" points="0,54.818 17.812,18.729 57.639,12.941 28.819,-15.151 35.623,-54.818 0,-36.09 -35.623,-54.818 
		-28.819,-15.151 -57.639,12.941 -17.812,18.729 	"/>
</symbol>
<symbol  id="_x12_408540160_1068628864_80_x00_" viewBox="-57.639 -54.818 115.277 109.637">
	<polygon fill="#FCF6ED" points="0,54.818 17.812,18.729 57.639,12.941 28.819,-15.151 35.623,-54.818 0,-36.09 -35.623,-54.818 
		-28.819,-15.151 -57.639,12.941 -17.812,18.729 	"/>
</symbol>
<symbol  id="_x12_408540160_1421540224_86_x00_" viewBox="-57.639 -54.818 115.277 109.637">
	<polygon fill="#FDF7EE" points="0,54.818 17.812,18.729 57.639,12.941 28.819,-15.151 35.623,-54.818 0,-36.09 -35.623,-54.818 
		-28.819,-15.151 -57.639,12.941 -17.812,18.729 	"/>
</symbol>
<symbol  id="New_Symbol" viewBox="-58 -54.818 116 109.637">
	<polygon fill="#F2F2F2" points="0,54.818 17.812,18.729 57.639,12.941 28.819,-15.151 35.623,-54.818 0,-36.09 -35.623,-54.818 
		-28.819,-15.151 -57.639,12.941 -17.812,18.729 	"/>
	<polygon display="none" fill="none" points="-58,54 58,54 58,-54 -58,-54 	"/>
</symbol>
<g>
	
		<use xlink:href="#_x12_408540160_-1058669184_31_x00_"  width="115.277" height="109.637" x="-57.639" y="-54.818" transform="matrix(0.566 -0.6551 -0.529 -0.7009 421.8359 740.3125)" overflow="visible" opacity="0.1824"/>
	
		<use xlink:href="#_x12_408540160_1001454208_32_x00_"  width="115.277" height="109.637" x="-57.639" y="-54.818" transform="matrix(0.5206 -0.7984 -0.6447 -0.6447 477.6748 701.5332)" overflow="visible" opacity="0.2637"/>
	
		<use xlink:href="#_x12_408540160_1001454208_93_x00_"  width="115.277" height="109.637" x="-57.639" y="-54.818" transform="matrix(0.7143 -0.0197 -0.0159 -0.8846 410.0137 652.2822)" overflow="visible" opacity="0.5692"/>
	
		<use xlink:href="#_x12_408540160_1001454208_15_x00_"  width="115.277" height="109.637" x="-57.639" y="-54.818" transform="matrix(0.8536 0.2284 0.1844 -1.0571 338.4165 650.7676)" overflow="visible" opacity="0.3953"/>
	
		<use xlink:href="#_x12_408540160_1001454208_54_x00_"  width="115.277" height="109.637" x="-57.639" y="-54.818" transform="matrix(0.5901 0.9201 0.743 -0.7308 328.4058 539.1572)" overflow="visible" opacity="0.3651"/>
	
		<use xlink:href="#_x12_408540160_1001454208_40_x00_"  width="115.277" height="109.637" x="-57.639" y="-54.818" transform="matrix(0.6236 0.8719 0.704 -0.7723 334.5371 397.5396)" overflow="visible" opacity="0.2355"/>
	
		<use xlink:href="#_x12_408540160_1001454208_69_x00_"  width="115.277" height="109.637" x="-57.639" y="-54.818" transform="matrix(1.1432 -0.0879 -0.071 -1.4157 247.3257 405.5332)" overflow="visible" opacity="0.3666"/>
	
		<use xlink:href="#_x12_408540160_1001454208_20_x00_"  width="115.277" height="109.637" x="-57.639" y="-54.818" transform="matrix(0.947 0.2178 0.1759 -1.1728 402.6328 229.6196)" overflow="visible" opacity="0.4338"/>
	
		<use xlink:href="#_x12_408540160_1001454208_11_x00_"  width="115.277" height="109.637" x="-57.639" y="-54.818" transform="matrix(0.8633 0.5187 0.4188 -1.0691 368.1973 109.1133)" overflow="visible" opacity="0.2806"/>
	
		<use xlink:href="#_x12_408540160_1001454208_16_x00_"  width="115.277" height="109.637" x="-57.639" y="-54.818" transform="matrix(0.9788 0.1593 0.1287 -1.2121 274.3716 117.8301)" overflow="visible" opacity="0.3686"/>
	
		<use xlink:href="#New_Symbol"  width="116" height="109.637" x="-58" y="-54.818" transform="matrix(0.1312 -1.2221 -0.9868 -0.1625 471.4072 80.4834)" overflow="visible" opacity="0.479"/>
	
		<use xlink:href="#_x12_408540160_1068628864_80_x00_"  width="115.277" height="109.637" x="-57.639" y="-54.818" transform="matrix(-0.7548 0.7298 0.5893 0.9347 751.6143 338.9346)" overflow="visible" opacity="0.2788"/>
	
		<use xlink:href="#_x12_408540160_1001454208_16_x00_"  width="115.277" height="109.637" x="-57.639" y="-54.818" transform="matrix(0.039 -1.1883 -0.9595 -0.0483 598.6514 167.8564)" overflow="visible" opacity="0.6053"/>
	
		<use xlink:href="#_x12_408540160_1001454208_53_x00_"  width="115.277" height="109.637" x="-57.639" y="-54.818" transform="matrix(0.7221 0.7804 0.6302 -0.8943 442.0547 316.7158)" overflow="visible" opacity="0.4049"/>
	
		<use xlink:href="#_x12_408540160_1001454208_41_x00_"  width="115.277" height="109.637" x="-57.639" y="-54.818" transform="matrix(0.201 1.1469 0.9261 -0.2489 501.3848 322.5728)" overflow="visible" opacity="0.3301"/>
	
		<use xlink:href="#_x12_408540160_1001454208_74_x00_"  width="115.277" height="109.637" x="-57.639" y="-54.818" transform="matrix(0.9538 0.372 0.3004 -1.1812 524.6191 395.8486)" overflow="visible" opacity="0.3445"/>
	
		<use xlink:href="#_x12_408540160_1001454208_79_x00_"  width="115.277" height="109.637" x="-57.639" y="-54.818" transform="matrix(0.9752 0.1219 0.0984 -1.2077 567.8223 503.2773)" overflow="visible" opacity="0.5349"/>
	
		<use xlink:href="#_x12_408540160_1001454208_63_x00_"  width="115.277" height="109.637" x="-57.639" y="-54.818" transform="matrix(0.6381 0.0533 0.0431 -0.7903 448.4194 467.3018)" overflow="visible" opacity="0.4783"/>
	
		<use xlink:href="#New_Symbol"  width="116" height="109.637" x="-58" y="-54.818" transform="matrix(0.534 0 0 -0.6613 540.4482 640.9531)" overflow="visible" opacity="0.391"/>
	
		<use xlink:href="#_x12_408540160_1001454208_73_x00_"  width="115.277" height="109.637" x="-57.639" y="-54.818" transform="matrix(0.4993 6.183331e-005 4.993000e-005 -0.6183 487.2813 611.0273)" overflow="visible" opacity="0.4439"/>
	
		<use xlink:href="#_x12_408540160_1001454208_28_x00_"  width="115.277" height="109.637" x="-57.639" y="-54.818" transform="matrix(0.918 0.1894 0.153 -1.1369 539.1729 552.8965)" overflow="visible" opacity="0.4777"/>
	
		<use xlink:href="#_x12_408540160_1001454208_95_x00_"  width="115.277" height="109.637" x="-57.639" y="-54.818" transform="matrix(0.9735 -0.2002 -0.1617 -1.2055 673.2578 450.4629)" overflow="visible" opacity="0.6487"/>
	
		<use xlink:href="#_x12_408540160_1001454208_99_x00_"  width="115.277" height="109.637" x="-57.639" y="-54.818" transform="matrix(0.9643 -0.1436 -0.116 -1.1941 699.749 201.3657)" overflow="visible" opacity="0.4675"/>
	
		<use xlink:href="#New_Symbol"  width="116" height="109.637" x="-58" y="-54.818" transform="matrix(0.9501 -0.0661 -0.0534 -1.1766 827.0957 85.3286)" overflow="visible" opacity="0.6435"/>
	
		<use xlink:href="#_x12_408540160_1001454208_17_x00_"  width="115.277" height="109.637" x="-57.639" y="-54.818" transform="matrix(0.6641 -0.9042 -0.7301 -0.8225 726.7129 114.7773)" overflow="visible" opacity="0.7292"/>
	
		<use xlink:href="#_x12_408540160_1001454208_20_x00_"  width="115.277" height="109.637" x="-57.639" y="-54.818" transform="matrix(-0.9011 0.3802 0.307 1.116 829.5986 308.3516)" overflow="visible" opacity="0.0897"/>
	
		<use xlink:href="#_x12_408540160_1001454208_94_x00_"  width="115.277" height="109.637" x="-57.639" y="-54.818" transform="matrix(0.8215 -0.5607 -0.4527 -1.0173 605.5283 287.834)" overflow="visible" opacity="0.3734"/>
	
		<use xlink:href="#_x12_408540160_1001454208_18_x00_"  width="115.277" height="109.637" x="-57.639" y="-54.818" transform="matrix(-0.3986 -0.8369 -0.6758 0.4936 477.1563 751.5352)" overflow="visible" opacity="0.0753"/>
	
		<use xlink:href="#_x12_408540160_1001454208_45_x00_"  width="115.277" height="109.637" x="-57.639" y="-54.818" transform="matrix(0.6516 0 0 -0.8069 456.0547 599.2422)" overflow="visible" opacity="0.4713"/>
	
		<use xlink:href="#New_Symbol"  width="116" height="109.637" x="-58" y="-54.818" transform="matrix(0.8285 0.6135 0.4954 -1.026 234.9932 569.3691)" overflow="visible"/>
	
		<use xlink:href="#_x12_408540160_1001454208_13_x00_"  width="115.277" height="109.637" x="-57.639" y="-54.818" transform="matrix(0.6564 -0.9845 -0.7949 -0.8128 135.3657 380.395)" overflow="visible" opacity="0.2471"/>
	
		<use xlink:href="#_x12_408540160_1001454208_6_x00_"  width="115.277" height="109.637" x="-57.639" y="-54.818" transform="matrix(1.0415 0.1621 0.1309 -1.2898 275.7715 274.1782)" overflow="visible" opacity="0.3466"/>
	
		<use xlink:href="#_x12_408540160_1001454208_90_x00_"  width="115.277" height="109.637" x="-57.639" y="-54.818" transform="matrix(0.5025 1.1412 0.9215 -0.6223 78.4541 218.062)" overflow="visible" opacity="0.6188"/>
	
		<use xlink:href="#_x12_408540160_1421540224_86_x00_"  width="115.277" height="109.637" x="-57.639" y="-54.818" transform="matrix(0.9859 0.1418 0.1145 -1.2209 72.9595 101.8745)" overflow="visible" opacity="0.3752"/>
	
		<use xlink:href="#_x12_408540160_1001454208_59_x00_"  width="115.277" height="109.637" x="-57.639" y="-54.818" transform="matrix(0.8595 0.6333 0.5114 -1.0644 189.5972 195.7583)" overflow="visible" opacity="0.8285"/>
</g>
</svg>
