<?xml version="1.0" encoding="utf-8"?>
<!-- Generator: Adobe Illustrator 15.0.0, SVG Export Plug-In . SVG Version: 6.00 Build 0)  -->
<!DOCTYPE svg PUBLIC "-//W3C//DTD SVG 1.1//EN" "http://www.w3.org/Graphics/SVG/1.1/DTD/svg11.dtd">
<svg
    version="1.1"
    id="Layer_1"
    xmlns="http://www.w3.org/2000/svg"
    xmlns:xlink="http://www.w3.org/1999/xlink"
    x="0px" y="0px"
	width="955.486px"
	height="590.287px"
	viewBox="0 0 955.486 590.287"
	enable-background="new 0 0 955.486 590.287"
	xml:space="preserve"
>
	<defs>
		<!-- make sure these colors are set to match the colors in sass -->
		<pattern id="clinton-republican" width="1" height="1" patternContentUnits="objectBoundingBox">
			<rect x="0" y="0" width="1" height="1" fill="#990000"/>
			<image xlink:href="images/clinton.svg" x="0" y="0" width="1" height="1" />
		</pattern>
		<pattern id="clinton-democrat" width="1" height="1" patternContentUnits="objectBoundingBox">
			<rect x="0" y="0" width="1" height="1" fill="#000099"/>
			<image xlink:href="images/clinton.svg" x="0" y="0" width="1" height="1" />
		</pattern>
		<pattern id="clinton-swing" width="1" height="1" patternContentUnits="objectBoundingBox">
			<rect x="0" y="0" width="1" height="1" fill="#009900"/>
			<image xlink:href="images/clinton.svg" x="0" y="0" width="1" height="1" />
		</pattern>

		<pattern id="sanders-republican" width="1" height="1" patternContentUnits="objectBoundingBox">
			<rect x="0" y="0" width="1" height="1" fill="#990000"/>
			<image xlink:href="images/sanders.svg" x="0" y="0" width="1" height="1" />
		</pattern>
		<pattern id="sanders-democrat" width="1" height="1" patternContentUnits="objectBoundingBox">
			<rect x="0" y="0" width="1" height="1" fill="#000099"/>
			<image xlink:href="images/sanders.svg" x="0" y="0" width="1" height="1" />
		</pattern>
		<pattern id="sanders-swing" width="1" height="1" patternContentUnits="objectBoundingBox">
			<rect x="0" y="0" width="1" height="1" fill="#009900"/>
			<image xlink:href="images/sanders.svg" x="0" y="0" width="1" height="1" />
		</pattern>
	</defs>

	<g id="StatePolys" transform="translate(-19.444844,-133.89745)">
		<path id="HI" fill="#FFFFD0" d="M271.407,643.336l1.875-3.438l2.188-0.313l0.313,0.781l-2.031,2.969L271.407,643.336
			L271.407,643.336z M281.251,639.742l5.938,2.5l2.031-0.313l1.563-3.75l-0.625-3.28l-4.063-0.47l-3.906,1.72L281.251,639.742
			L281.251,639.742z M310.939,649.43l3.594,5.313l2.344-0.313l1.094-0.469l1.406,1.25l3.594-0.156l0.938-1.404l-2.813-1.721
			l-1.875-3.594l-2.031-3.438l-5.625,2.813L310.939,649.43L310.939,649.43z M330.47,658.023l1.25-1.875l4.531,0.938l0.625-0.469
			l5.938,0.625l-0.313,1.25l-2.5,1.406l-4.22-0.313L330.47,658.023z M335.627,663.023l1.875,3.75l2.969-1.095l0.313-1.563
			l-1.563-2.031l-3.594-0.313V663.023L335.627,663.023z M342.345,661.93l2.188-2.813l4.531,2.344l4.22,1.094l4.22,2.656v1.875
			l-3.438,1.719l-4.688,0.938l-2.345-1.406L342.345,661.93L342.345,661.93z M358.439,676.93l1.563-1.25l3.281,1.563l7.344,3.438
			l3.281,2.03l1.563,2.345l1.875,4.22l3.905,2.5l-0.313,1.25l-3.75,3.125l-4.063,1.405l-1.406-0.625l-2.969,1.72l-2.345,3.125
			l-2.188,2.813l-1.72-0.156l-3.438-2.5l-0.313-4.375l0.625-2.344l-1.563-5.469l-2.03-1.719l-0.155-2.5l2.188-0.938l2.031-2.969
			l0.469-0.938l-1.563-1.719L358.439,676.93L358.439,676.93z"/>
		<path id="AK" fill="url(#clinton)" d="M198.907,579.898l-0.313,82.5l1.563,0.938l2.969,0.156l1.406-1.094h2.5l0.156,2.813l6.719,6.563
			l0.469,2.5l3.281-1.875l0.625-0.156l0.313-2.969l1.406-1.563l1.094-0.156l1.875-1.404l2.969,2.029l0.625,2.813l1.875,1.094
			l1.094,2.345l3.75,1.72l3.281,5.78l2.656,3.75l2.188,2.655l1.406,3.595l4.844,1.72l5,2.03l0.938,4.22l0.469,2.969l-0.938,3.281
			l-1.719,2.188l-1.563-0.781l-1.406-2.969l-2.656-1.406l-1.719-1.094l-0.781,0.781l1.406,2.656l0.156,3.594l-1.094,0.469
			l-1.875-1.875l-2.031-1.25l0.469,1.563l1.25,1.719l-0.781,0.781c0,0-0.781-0.313-1.25-0.938c-0.469-0.625-2.031-3.281-2.031-3.281
			l-0.938-2.188c0,0-0.313,1.25-0.938,0.938c-0.625-0.312-1.25-1.404-1.25-1.404l1.719-1.875l-1.406-1.406v-4.844h-0.781
			l-0.781,3.279l-1.094,0.471l-0.938-3.596l-0.625-3.594l-0.781-0.469l0.313,5.469v1.094l-1.406-1.25l-3.438-5.779l-2.031-0.471
			l-0.625-3.594l-1.563-2.813l-1.563-1.095v-2.188l2.031-1.25l-0.469-0.313l-2.5,0.625l-3.282-2.344l-2.5-2.813l-4.688-2.5
			l-3.906-2.5l1.25-3.125v-1.563l-1.719,1.563l-2.813,1.094l-3.594-1.094l-5.469-2.345h-5.313l-0.625,0.47l-6.25-3.75l-2.031-0.313
			l-2.656-5.625l-3.438,0.313l-3.438,1.405l0.469,4.375l1.094-2.813l0.938,0.313l-1.406,4.22l3.125-2.656l0.625,1.563l-3.75,4.221
			l-1.25-0.313l-0.469-1.875l-1.25-0.781l-1.25,1.096l-2.656-1.721l-2.969,2.031l-1.719,2.031l-3.281,2.031l-4.531-0.156
			l-0.469-2.031l3.594-0.625v-1.25l-2.188-0.625l0.938-2.344l2.188-3.75v-1.719l0.156-0.781l4.219-2.188l0.938,1.25h2.656l-1.25-2.5
			l-3.594-0.313l-4.844,2.656l-2.344,3.279l-1.719,2.5l-1.094,2.188l-4.063,1.406l-2.969,2.5l-0.313,1.563l2.188,0.938l0.781,2.03
			l-2.656,3.125l-6.25,4.063l-7.5,4.063l-2.031,1.096l-5.157,1.094l-5.156,2.188l1.719,1.25l-1.406,1.405l-0.469,1.095l-2.656-0.938
			l-3.125,0.156l-0.781,2.188h-0.938l0.313-2.344l-3.438,1.25l-2.813,0.938l-3.281-1.25l-2.813,1.875h-3.125l-2.031,1.25l-1.563,0.78
			l-2.031-0.313l-2.5-1.096l-2.188,0.625l-0.938,0.938l-1.563-1.094v-1.875l2.969-1.25l6.094,0.625l4.219-1.563l2.031-2.031
			l2.813-0.625l1.719-0.779l2.656,0.154l1.563,1.25l0.938-0.313l2.188-2.656l2.969-0.938l3.281-0.625l1.25-0.313l0.625,0.47h0.781
			l1.25-3.595l3.906-1.405l1.875-3.595l2.188-4.375l1.563-1.405l0.313-2.5l-1.563,1.25l-3.282,0.625l-0.625-2.345l-1.25-0.313
			l-0.938,0.938l-0.156,2.813l-1.406-0.156l-1.406-5.625l-1.25,1.25l-1.094-0.469l-0.313-1.875l-3.906,0.155l-2.031,1.095l-2.5-0.313
			l1.406-1.405l0.469-2.5l-0.625-1.875l1.406-0.938l1.25-0.156l-0.625-1.719v-4.219l-0.938-0.938l-0.781,1.406h-5.938l-1.406-1.25
			l-0.625-3.75l-2.031-3.438v-0.938l2.031-0.781l0.156-2.03l1.094-1.095l-0.781-0.469l-1.25,0.469l-1.094-2.655l0.938-4.845
			l4.375-3.125l2.5-1.563l1.875-3.596l2.656-1.25l2.5,1.096l0.313,2.344l2.344-0.313l3.125-2.344l1.563,0.625l0.938,0.625h1.563
			l2.188-1.25l0.781-4.219c0,0,0.313-2.813,0.938-3.281s0.938-0.938,0.938-0.938l-1.094-1.875l-2.5,0.78l-3.125,0.78l-1.875-0.469
			l-3.438-1.719l-4.844-0.156l-3.438-3.594l0.469-3.75l0.625-2.346l-2.031-1.719l-1.875-3.594l0.469-0.781l6.563-0.469h2.031
			l0.938,0.938h0.625l-0.156-1.563l3.75-0.625l2.5,0.313l1.406,1.096l-1.406,2.029l-0.469,1.406l2.656,1.563l4.844,1.719l1.719-0.938
			L125,595.205l-0.938-3.125l0.938-0.781l-3.282-1.875l-0.469-1.094l0.469-1.563l-0.781-3.75l-2.813-4.53l-2.344-4.063l2.813-1.875
			h3.125l1.719,0.625l4.063-0.156l3.594-3.438l1.094-2.969l3.594-2.345l1.563,0.938l2.656-0.625l3.594-2.03l1.094-0.156l0.938,0.781
			l4.375-0.156l2.656-2.969h1.094l3.438,2.344l1.875,2.031l-0.469,1.094l0.625,1.095l1.563-1.563l3.75,0.313l0.313,3.594l1.875,1.406
			l6.875,0.625l6.094,4.063l1.406-0.938l5,2.5l2.031-0.625l1.875-0.781l4.688,1.875L198.907,579.898L198.907,579.898z
			 M87.656,607.867l2.031,5.156l-0.156,0.938l-2.813-0.313l-1.719-3.906l-1.719-1.406h-2.344l-0.156-2.5l1.719-2.344l1.094,2.344
			l1.406,1.406L87.656,607.867z M85.156,640.211l3.594,0.781l3.594,0.938l0.781,0.938l-1.563,3.594l-2.969-0.155l-3.281-3.438
			L85.156,640.211z M65.156,626.617l1.094,2.5l1.094,1.563l-1.094,0.781l-2.031-2.969v-1.875H65.156z M51.875,697.242l3.281-2.188
			l3.281-0.938l2.5,0.313l0.469,1.563l1.875,0.469l1.875-1.875l-0.313-1.563l2.656-0.625l2.813,2.5l-1.094,1.719l-4.219,1.094
			l-2.656-0.469l-3.594-1.094l-4.219,1.405l-1.563,0.313L51.875,697.242z M99.219,692.867l1.563,1.875l2.031-1.563l-1.406-1.25
			L99.219,692.867z M102.031,695.836l1.094-2.188l2.031,0.313l-0.781,1.875H102.031z M124.844,693.961l1.406,1.719l0.938-1.094
			l-0.781-1.875L124.844,693.961z M133.282,681.93l1.094,5.625l2.813,0.781l4.844-2.813l4.219-2.5l-1.563-2.345l0.469-2.345
			l-2.031,1.25l-2.813-0.78l1.563-1.095l1.875,0.781l3.75-1.719l0.469-1.406l-2.344-0.781l0.781-1.875l-2.656,1.875l-4.531,3.438
			l-4.688,2.813L133.282,681.93z M174.219,662.711l2.344-1.406l-0.938-1.719l-1.719,0.938L174.219,662.711z"/>
		<path id="FL" fill="#F2D0FF" d="M776.407,571.149l2.021,7.928l3.604,9.416l5.156,9.063l3.594,6.095l4.689,5.313l3.906,3.594
			l1.563,2.813l-1.094,1.25l-0.781,1.25l2.813,7.188l2.813,2.813l2.5,5.156l3.439,5.625l4.375,7.969l1.25,7.344l0.469,11.563
			l0.625,1.719l-0.313,3.281l-2.346,1.25l0.314,1.875l-0.625,1.875l0.313,2.344l0.467,1.871l-2.656,3.125l-2.969,1.405l-3.75,0.155
			l-1.406,1.563l-2.344,0.938l-1.25-0.47l-1.096-0.938l-0.313-2.813l-0.781-3.281l-3.281-5l-3.438-2.188l-3.75-0.313l-0.781,1.25
			l-2.969-4.22l-0.625-3.438l-2.501-3.905l-1.719-1.095l-1.563,2.03l-1.72-0.313l-2.03-4.845l-2.813-3.75l-2.813-5.155l-2.5-2.97
			l-3.438-3.594l2.031-2.345l3.125-5.313l-0.156-1.563l-4.375-0.938l-1.563,0.625l0.313,0.625l2.5,0.938l-1.406,4.375l-0.78,0.469
			l-1.72-3.905l-1.25-4.688l-0.313-2.656l1.406-4.53v-9.22l-2.97-3.594l-1.25-2.969l-5-1.25l-1.875-0.625l-1.563-2.5l-3.279-1.563
			l-1.096-3.281l-2.654-0.938l-2.346-3.594l-4.063-1.406l-2.813-1.405h-2.5l-3.906,0.78l-0.156,1.875l0.781,0.938l-0.469,1.095
			l-2.969-0.156l-3.595,3.438l-3.438,1.875h-3.75l-3.125,1.25l-0.313-2.655l-1.563-1.875l-2.813-1.095l-1.555-1.401l-7.813-3.75
			l-7.344-1.719l-4.221,0.625l-5.779,0.469l-5.781,2.031l-3.362,0.593l-0.229-7.78l-2.5-1.875l-1.721-1.719l0.314-2.969l9.844-1.25
			l24.688-2.813l6.563-0.625l5.938-0.156l2.5,3.75l1.404,1.406l7.656,0.156l10.457-0.625l20.793-1.25l5.264-0.652l4.426,0.027
			l0.154,2.813l2.5,0.781l0.314-4.219l-1.564-4.375l1.096-1.563l5.625,0.78L776.407,571.149L776.407,571.149z M788.362,699.977
			l2.344-0.625l1.25-0.233l1.406-2.267l2.267-1.563l1.25,0.469l1.641,0.313l0.393,1.016l-3.358,1.172l-4.064,1.406l-2.266,1.172
			L788.362,699.977z M801.409,695.133l1.172,1.018l2.656-2.031l5.156-4.063l3.594-3.75l2.422-6.404l0.938-1.643l0.156-3.28
			l-0.703,0.47l-0.938,2.732l-1.406,4.453l-3.125,5.078l-4.219,4.063l-3.281,1.875L801.409,695.133z"/>
		<path id="SC" fill="#FFD0D0" d="M781.875,540.524l-1.719,0.938l-2.5-1.25l-0.625-2.031l-1.25-3.438l-2.188-2.031l-2.5-0.625
			l-1.563-4.688l-2.656-5.78l-4.063-1.875l-2.029-1.875l-1.25-2.5l-2.03-1.875l-2.189-1.25l-2.188-2.813l-2.969-2.188l-4.375-1.719
			l-0.469-1.406l-2.344-2.813l-0.47-1.406l-3.28-5l-3.281,0.156l-3.906-2.345l-1.25-1.25l-0.313-1.717l0.78-1.875l2.188-0.938
			l-0.313-2.031l5.938-2.5l8.75-4.375l7.031-0.78l15.938-0.47l2.188,1.875l1.563,3.125l4.22-0.469l12.188-1.406l2.814,0.781
			l12.188,7.344l9.771,7.851l-5.238,5.274l-2.5,5.938l-0.469,6.095l-1.564,0.78l-1.094,2.656l-2.344,0.625l-2.031,3.438l-2.656,2.655
			l-2.188,3.281l-1.563,0.78l-3.438,3.281l-2.814,0.155l0.939,3.125l-4.845,5.313L781.875,540.524L781.875,540.524z"/>
		<path id="GA" fill="#D7FFD0" d="M712.657,487.396l-4.688,0.781l-8.125,1.094l-8.281,0.859v2.109l0.156,2.031l0.625,3.281
			l3.28,7.654l2.345,9.531l1.405,5.938l1.563,4.688l1.406,6.719l2.03,6.094l2.5,3.281l0.47,3.281l1.875,0.781l0.155,2.03
			l-1.719,4.688l-0.471,3.125l-0.154,1.875l1.563,4.219l0.313,5.156l-0.781,2.344l0.625,0.781l1.406,0.781l0.625,3.279l2.5,3.75
			l1.406,1.406l7.656,0.156l10.457-0.625l20.793-1.25l5.264-0.651l4.424,0.026l0.156,2.813l2.5,0.781l0.313-4.219l-1.563-4.375
			l1.094-1.563l5.625,0.78l4.812,0.309l-0.748-6.089l2.188-9.688l1.406-4.063l-0.469-2.501l3.906-6.719l-0.58-1.563l-1.765,0.937
			l-2.5-1.25l-0.625-2.03l-1.25-3.438l-2.188-2.031l-2.5-0.625l-1.564-4.688l-2.654-5.781l-4.063-1.875l-2.031-1.875l-1.25-2.5
			l-2.029-1.875l-2.188-1.25l-2.188-2.813l-2.969-2.188l-4.375-1.72l-0.469-1.405l-2.344-2.813l-0.47-1.406l-3.28-5l-3.281,0.156
			l-3.906-2.345l-1.25-1.25l-0.313-1.719l0.78-1.875l2.188-0.938l-0.156-2.205l-1.719,0.486l-5.625,0.938l-6.719,0.78
			L712.657,487.396L712.657,487.396z"/>
		<path id="AL" fill="#FFD0D0" d="M650.782,592.557l-1.563-14.688l-2.656-18.126l0.156-13.594l0.78-30.001l-0.155-16.094l0.158-6.203
			l7.497-0.358l26.875-2.5l9.83-0.858l-0.145,2.108l0.156,2.03l0.625,3.281l3.28,7.655l2.345,9.531l1.405,5.938l1.563,4.688
			l1.406,6.719l2.03,6.095l2.5,3.28l0.47,3.281l1.875,0.781l0.155,2.029l-1.719,4.688l-0.469,3.125l-0.156,1.875l1.563,4.219
			l0.313,5.156l-0.781,2.344l0.625,0.781l1.406,0.781l0.779,3.438h-6.094l-6.563,0.625l-24.688,2.813l-9.845,1.25l-0.313,2.969
			l1.721,1.719l2.5,1.875l0.562,7.67l-6.345,2.487l-2.655-0.313l2.655-1.875v-0.938l-2.969-5.781l-2.188-0.625l-1.406,4.22
			l-1.25,2.655l-0.625-0.155L650.782,592.557L650.782,592.557z"/>
		<path id="NC" fill="#F2D0FF" d="M850.376,429.889l1.654,4.541l3.438,6.25l2.344,2.344l0.625,2.188l-2.344,0.156l0.78,0.625
			l-0.313,4.063l-2.5,1.25l-0.625,2.03l-1.25,2.813l-3.594,1.563l-2.345-0.313l-1.405-0.155l-1.563-1.25l0.313,1.25v0.938h1.875
			l0.78,1.25l-1.875,6.094h4.063l0.625,1.563l2.188-2.188l1.25-0.469l-1.875,3.438l-2.969,4.688h-1.25l-1.096-0.469l-2.654,0.625
			l-5,2.344l-6.25,5.156l-3.281,4.529l-1.875,6.25l-0.469,2.344l-4.531,0.469l-5.698,2.146l-9.613-7.93l-12.188-7.345l-2.813-0.78
			l-12.188,1.405l-4.22,0.47l-1.563-3.125l-2.188-1.875l-15.938,0.47l-7.031,0.78l-8.75,4.375l-5.938,2.5l-1.563,0.313l-5.625,0.938
			l-6.719,0.781l-6.563,0.469l0.313-4.688l1.719-1.405l2.656-0.625l0.625-3.595l4.063-2.655l3.75-1.405l4.063-3.438l4.219-2.03
			l0.625-2.97l3.75-3.75l0.625-0.155c0,0,0,1.094,0.781,1.094c0.78,0,1.875,0.313,1.875,0.313l2.188-3.438l2.031-0.625l2.188,0.313
			l1.563-3.438l2.814-2.5l0.469-2.03v-3.828l4.375,0.703l6.896-1.25l15.291-1.875l16.563-2.5l19.912-3.646l18.524-3.697l11.095-2.813
			L850.376,429.889L850.376,429.889z M854.143,461.771l2.5-2.422l3.047-2.5l1.484-0.625l0.155-1.953l-0.625-5.938l-1.405-2.266
			l-0.625-1.799l0.702-0.232l2.656,5.313l0.392,4.297l-0.156,3.281l-3.279,1.484l-2.733,2.344l-1.095,1.172L854.143,461.771z"/>
		<path id="TN" fill="#FFFFD0" d="M719.844,451.307l-50.156,4.844l-15.23,1.719l-4.467,0.496l-3.737-0.027v3.75l-8.125,0.469
			l-6.72,0.625l-10.727,0.053l-0.256,5.641l-2.066,6.064l-0.961,2.914l-1.305,4.234l-0.313,2.5l-3.905,2.188l1.405,3.438l-0.938,4.22
			l-1.484,1.641l7.892-0.078l23.28-1.875l5.156-0.156l7.813-0.469l26.875-2.5l9.83-0.781l8.139-0.938l8.125-1.094l4.688-0.781
			l0.313-4.688l1.719-1.405l2.656-0.625l0.625-3.595l4.063-2.655l3.75-1.406l4.063-3.438l4.219-2.03l0.625-2.97l3.75-3.75
			l0.625-0.155c0,0,0,1.094,0.781,1.094s1.875,0.313,1.875,0.313l2.188-3.438l2.029-0.625l2.189,0.313l1.563-3.438l2.813-2.5
			l0.469-2.031l0.172-3.801l-2.203,0.051l-2.344,1.875l-7.656,0.156l-11.594,1.838L719.844,451.307L719.844,451.307z"/>
		<path id="RI" fill="#F2D0FF" d="M890.938,315.212l-0.467-4.063l-0.781-4.22l-1.641-5.703l5.547-1.483l1.563,1.094l3.281,4.219
			l2.813,4.297l-2.814,1.485l-1.25-0.156l-1.094,1.72l-2.344,1.875L890.938,315.212L890.938,315.212z"/>
		<path id="CT" fill="#D7FFD0" d="M891.407,315.212l-0.938-4.063l-0.781-4.22l-1.563-5.78l-5,1.094l-21.094,4.608l0.625,3.203
			l1.406,7.031v7.813l-1.094,2.188l1.771,2.038l4.789-3.287l3.438-3.125l1.875-2.031l0.78,0.625l2.656-1.405l5-1.095L891.407,315.212
			L891.407,315.212z"/>
		<path id="MA" fill="#FFD0D0" d="M915.977,309.438l2.1-0.662l0.441-1.657l0.994,0.11l0.994,2.209l-1.216,0.442l-3.756,0.111
			L915.977,309.438L915.977,309.438z M906.917,310.213l2.211-2.541h1.547l1.768,1.437l-2.32,0.994l-2.1,0.994L906.917,310.213
			L906.917,310.213z M873.284,288.96l16.875-4.063l2.188-0.625l2.031-3.125l3.61-1.606l2.793,4.265l-2.346,5l-0.313,1.406l1.875,2.5
			l1.095-0.781h1.719l2.188,2.5l3.75,5.781l3.438,0.469l2.188-0.938l1.719-1.719l-0.781-2.656l-2.029-1.563l-1.405,0.781l-0.939-1.25
			l0.471-0.469l2.029-0.156l1.721,0.781l1.875,2.344l0.938,2.813l0.313,2.344l-4.063,1.406l-3.75,1.875l-3.75,4.375l-1.875,1.405
			v-0.938l2.344-1.406l0.469-1.719l-0.78-2.969l-2.813,1.405l-0.781,1.406l0.47,2.188l-2.654,1.405l-2.656-4.375l-3.278-4.219
			l-1.564-1.094l-5.547,1.483l-4.922,1.017l-21.095,4.608l-0.938-5.547l0.625-10.233l5-0.859L873.284,288.96"/>
		<path id="ME" fill="#F2D0FF" d="M938.438,216.149l1.875,2.03l2.188,3.595v1.875l-2.031,4.53l-1.875,0.625l-3.281,2.97l-4.688,5.313
			c0,0-0.625,0-1.25,0s-0.938-2.031-0.938-2.031l-1.719,0.156l-0.938,1.406l-2.346,1.406l-0.938,1.405l1.563,1.406l-0.469,0.625
			l-0.47,2.656l-1.875-0.156v-1.563l-0.313-1.25l-1.406,0.313l-1.719-3.125l-2.031,1.25l1.25,1.406l0.313,1.094l-0.781,1.25
			l0.314,2.969l0.155,1.563l-1.563,2.5l-2.813,0.469l-0.313,2.813l-5.156,2.969l-1.25,0.469l-1.563-1.406l-2.969,3.438l0.938,3.125
			l-1.406,1.25l-0.156,4.219l-1.522,7.366l-2.381-1.118l-0.47-2.969l-3.75-1.094l-0.313-2.656l-7.031-22.656l-4.604-14.28
			l2.358-0.333l1.463,0.396v-2.5l0.781-5.313l2.5-4.53l1.406-3.906l-1.875-2.344v-5.781l0.78-0.938l0.781-2.655l-0.156-1.406
			l-0.155-4.688l1.719-4.688l2.813-8.594l2.03-4.063h1.25l1.25,0.156v1.094l1.25,2.188l2.656,0.625l0.781-0.781v-0.938l3.905-2.813
			l1.72-1.72l1.405,0.156l5.781,2.344l1.875,0.938l8.75,28.906h5.779l0.781,1.875l0.155,4.688l2.813,2.188h0.781l0.155-0.469
			l-0.469-1.095L938.438,216.149L938.438,216.149z M918.206,245.288l1.484-1.484l1.328,1.017l0.547,2.344l-1.641,0.858
			L918.206,245.288z M924.69,239.585l1.721,1.797c0,0,1.25,0.078,1.25-0.234s0.232-1.952,0.232-1.952l0.858-0.781l-0.78-1.719
			l-1.953,0.702L924.69,239.585z"/>
		<path id="NH" fill="#FFFFD0" d="M897.989,279.503l0.293-1.479l1.054-3.182l-2.457-0.883l-0.47-2.969l-3.75-1.095l-0.313-2.655
			l-7.031-22.656l-4.445-14.056L880,230.524l-0.625,1.563l-0.625-0.469l-0.938-0.938l-1.404,1.875l-0.926,5.303l0.303,5.478
			l1.875,2.656v3.905l-3.596,3.906l-2.5,1.094v1.095l1.096,1.719v8.281l-0.78,8.905l-0.156,4.688l0.938,1.25l-0.156,4.375
			l-0.469,1.719l1.406,1.953l16.719-3.984l2.188-0.625l2.03-3.125L897.989,279.503L897.989,279.503z"/>
		<path id="VT" fill="#D7FFD0" d="M861.876,291.304l-0.78-5.469l-2.97-10.625l-0.625-0.313l-2.813-1.25l0.781-2.813l-0.781-2.031
			l-2.5-4.375l0.938-3.75l-0.78-5l-2.345-6.25l-0.778-4.758l26.246-6.96l0.313,5.624l1.875,2.656v3.905l-3.596,3.906l-2.5,1.094
			v1.095l1.096,1.719v8.281l-0.781,8.905l-0.155,4.688l0.938,1.25l-0.155,4.375l-0.47,1.719l1.406,1.953l-6.719,1.328
			L861.876,291.304L861.876,291.304z"/>
		<path id="NY" fill="#F2D0FF" d="M846.565,325.367l-1.094-0.938l-2.5-0.156l-2.188-1.875l-2.346-5.155l-2.902-0.9l-2.252-2.069
			l-17.971,3.906l-41.563,8.438l-8.594,1.405l-0.715-6.69l2.588-1.746l1.25-1.094l0.938-1.563l1.719-1.094l1.875-1.719l0.471-1.563
			l2.029-2.656l1.096-0.938l-0.156-0.938l-1.25-2.969l-1.719-0.156l-1.875-5.938l2.813-1.719l4.219-1.406l3.906-1.25l3.125-0.469
			l6.094-0.156l1.875,1.25l1.563,0.156l2.03-1.25l2.5-1.095l5-0.469l2.031-1.719l1.719-3.125l1.563-1.875h2.031l1.875-1.094
			l0.155-2.188l-1.405-2.031l-0.313-1.405l1.094-2.031v-1.406h-1.719l-1.719-0.781l-0.781-1.094l-0.156-2.5l5.625-5.313l0.625-0.781
			l1.406-2.813l2.813-4.375l2.655-3.594l2.031-2.344l2.334-1.765l2.979-1.204l5.313-1.25l3.125,0.155l4.375-1.405l7.313-2.002
			l0.505,4.813l2.344,6.25l0.781,5l-0.939,3.75l2.5,4.375l0.781,2.031l-0.781,2.813l2.814,1.25l0.625,0.313l2.969,10.625l0.469,5
			L861.1,301.3l0.781,5.313l0.78,3.438l1.404,7.031v7.813l-1.094,2.188l1.776,1.926l-0.217,1.513l-1.875,1.72l0.313,1.25l1.25-0.313
			l1.406-1.25l2.188-2.5l1.096-0.625l1.563,0.625l2.188,0.156l7.656-3.75l2.813-2.656l1.25-1.406l4.063,1.563l-3.279,3.438
			l-3.75,2.813l-6.879,5.158l-2.5,0.938l-5.625,1.875l-3.906,1.095l-1.465-0.516l-0.563-3.236l0.469-2.655l-0.156-2.031l-2.5-1.094
			l-4.375-0.938l-3.75-1.094L846.565,325.367L846.565,325.367z"/>
		<path id="NJ" fill="#FFFFD0" d="M846.565,325.367l-2.031,2.344v2.969l-1.875,2.969l-0.155,1.563l1.25,1.25l-0.156,2.344
			l-2.188,1.094l0.781,2.656l0.156,1.094l2.655,0.313l0.938,2.5l3.438,2.344l2.344,1.563v0.78l-3.125,2.97l-1.563,2.188l-1.405,2.656
			l-2.188,1.25l-1.172,0.703l-0.234,1.172l-0.588,2.52l1.056,2.17l3.125,2.813l4.688,2.188l3.906,0.625l0.156,1.405l-0.781,0.934
			l0.313,2.656h0.781l2.031-2.345l0.781-4.688l2.655-3.906l2.97-6.25l1.094-5.313l-0.625-1.095l-0.156-9.061l-1.563-3.281
			l-1.095,0.781l-2.655,0.313l-0.47-0.469l1.095-0.938l2.03-1.875l0.062-1.058l-0.371-3.319l0.469-2.655l-0.156-2.031l-2.5-1.094
			l-4.375-0.938l-3.75-1.094L846.565,325.367L846.565,325.367z"/>
		<path id="PA" fill="#D7FFD0" d="M842.346,360.836l1.094-0.625l2.188-1.25l1.405-2.656l1.563-2.188l3.125-2.97v-0.78l-2.344-1.563
			l-3.438-2.344l-0.938-2.5l-2.655-0.313l-0.156-1.094l-0.781-2.656l2.188-1.094l0.156-2.344l-1.25-1.25l0.155-1.563l1.875-2.969
			v-2.969l2.267-2.344l-1.328-0.938l-2.5-0.156l-2.188-1.875l-2.344-5.155l-2.904-0.9l-2.252-2.069l-17.969,3.906l-41.563,8.438
			l-8.595,1.405l-0.479-6.847l-5.303,5.441l-1.25,0.469l-4.063,2.908l2.813,18.497l1.631,10.391l3.453,18.617l4.475-0.727
			l11.545-1.451l36.656-7.409l14.379-2.729l8.021-1.567l1.246-1.219l2.031-1.563h2.033L842.346,360.836L842.346,360.836z"/>
		<path id="DE" fill="#FFD0D0" d="M841.25,364.118l0.783-2.032l0.232-1.25h-1.953l-2.029,1.563l-1.406,1.406l1.406,4.063l2.188,5.469
			l2.03,9.375l1.563,6.094l4.844-0.156l5.938-1.171l-2.188-7.108l-0.938,0.469l-3.438-2.344l-1.719-4.531l-1.875-3.438l-2.188-0.938
			l-2.03-3.438L841.25,364.118L841.25,364.118z"/>
		<path id="MD" fill="#F2D0FF" d="M854.844,387.399l-5.937,1.248l-4.846,0.156l-1.563-6.094l-2.031-9.375l-2.188-5.469l-1.244-4.251
			l-8.022,1.567l-14.379,2.729l-36.197,7.298l1.094,4.844l0.938,5.469l0.313-0.313l2.029-2.344l2.189-2.97l2.344-0.155l1.406-1.406
			l1.719-2.5l1.25,0.625l2.813-0.313l2.5-2.03l1.939-1.405l1.783-0.469l1.59,1.092l2.813,1.406l1.875,1.719l1.172,1.484l3.984,1.641
			v2.813l5.313,1.25l1.875,1.25l0.938-1.875l2.189,1.563l-1.406,3.125l-0.313,2.656l-1.721,2.5v2.03l0.625,1.72l4.896,1.31
			l4.166-0.06l2.969,0.938l2.031,0.313l0.938-2.031l-1.404-2.031v-1.719l-2.346-2.031l-2.029-5.313l1.25-5.156l-0.155-2.031
			l-1.25-1.25c0,0,1.405-1.563,1.405-2.188s0.47-2.031,0.47-2.031l1.875-1.25l1.875-1.563l0.469,0.938l-1.406,1.563l-1.25,3.595
			l0.313,1.094l1.719,0.313l0.469,5.313l-2.029,0.938l0.313,3.438l0.469-0.156l1.094-1.875l1.563,1.719l-1.563,1.25l-0.313,3.281
			l2.5,3.281l3.75,0.469l1.563-0.781l3.125,5l1.72,0.47v3.438l-2.188,4.688l-0.469,6.719l1.406,3.281l1.405,0.155l1.875-4.063
			l0.779-3.438l0.156-6.875l2.969-4.688l2.031-6.719v-5.471H854.844L854.844,387.399z M838.989,396.851l1.095,2.422l0.155,1.72
			l1.095,1.797c0,0,0.856-0.859,0.856-1.172s-0.701-2.97-0.701-2.97l-0.703-2.266L838.989,396.851z"/>
		<path id="WV" fill="#FFFFD0" d="M778.458,375.276l1.074,4.778l0.938,5.469l0.313-0.313l2.029-2.344l2.188-2.97l2.345-0.155
			l1.405-1.406l1.72-2.5l1.25,0.625l2.813-0.313l2.5-2.03l1.939-1.405l1.783-0.469l1.59,1.092l2.813,1.406l1.875,1.719l1.328,1.25
			l-1.016,4.844l-5.469-2.969l-4.375-1.719l-0.156,5.155l-0.469,2.031l-1.564,2.656l-0.625,1.563l-2.969,2.345l-0.47,2.188
			l-3.28,0.313l-0.313,2.969l-1.094,5.313h-2.5l-1.25-0.78l-1.563-2.656l-1.72,0.156l-0.313,4.219l-2.029,6.406l-4.844,10.469
			l0.781,1.25l-0.156,2.656l-2.031,1.875l-1.404-0.313l-3.125,2.345l-2.5-0.938l-1.721,4.53c0,0-3.594,0.78-4.219,0.938
			c-0.625,0.157-2.344-1.25-2.344-1.25l-2.345,2.188l-2.5,0.625l-2.813-0.781l-1.25-1.25l-2.119-2.922l-3.037-1.921l-2.5-2.656
			l-2.813-3.594l-0.625-2.188l-2.5-1.405l-0.781-1.563l-0.234-5.078l2.109-0.078l1.875-0.78l0.156-2.656l1.563-1.406l0.156-4.844
			l0.938-3.75l1.25-0.625l1.25,1.094l0.47,1.719l1.719-0.938l0.469-1.563l-1.094-1.719v-2.344l0.938-1.25l2.188-3.281l1.25-1.406
			l2.031,0.47l2.188-1.563l2.969-3.281l2.188-3.75l0.313-5.469l0.47-4.844v-4.531l-1.095-2.969l0.938-1.406l1.24-1.25l3.375,19.164
			l4.475-0.726L778.458,375.276L778.458,375.276z"/>
		<path id="VA" fill="#FFD0D0" d="M744.844,428.649l1.875,3.437l1.25,1.25l2.813,0.781l2.5-0.625l2.345-2.188
			c0,0,1.719,1.405,2.344,1.25c0.625-0.156,4.219-0.938,4.219-0.938l1.719-4.53l2.5,0.938l3.125-2.345l1.406,0.313l2.031-1.875
			l0.156-2.656l-0.781-1.25l4.842-10.469l2.031-6.406l0.313-4.219l1.72-0.156l1.563,2.656l1.25,0.781h2.5l1.094-5.313l0.313-2.969
			l3.281-0.313l0.469-2.188l2.969-2.344l0.625-1.563l1.564-2.656l0.469-2.03l0.156-5.156l4.375,1.719l5.469,2.969l0.781-4.922
			l4.063,1.953v2.813l5.313,1.25l1.875,1.25l0.938-1.875l2.189,1.563l-1.406,3.125l-0.313,2.656l-1.721,2.5v2.031l0.625,1.719
			l4.896,1.31l1.821,1.503l5,0.313l2.5,2.188l3.125,0.625l1.25,1.25l-0.469,4.375l0.938,0.938l0.155,2.188l1.25,2.031l-0.155,1.719
			l-3.125-1.094v0.938l1.875,1.563v1.094l1.405,1.095l1.25,1.563l0.156,2.188l-2.188,1.405l0.313,0.47l2.5-0.47l3.125-0.625
			l1.094-0.155l3.938,6.792l-4.719,1.646l-11.095,2.813l-18.522,3.697l-19.914,3.646l-16.563,2.5l-15.289,1.875l-6.897,1.25
			l-4.361-0.599l-2.045-0.026l-2.344,1.875l-7.656,0.155l-11.594,1.838l-9.664,0.899l2.664-1.332l5.469-3.28l3.75-2.03v-2.031
			l1.721-1.719l4.375-5.156l4.063-3.438L744.844,428.649L744.844,428.649z"/>
		<path id="KY" fill="#D7FFD0" d="M744.735,429.367l-3.016,3.029l-4.063,3.438l-4.375,5.156l-1.719,1.719v2.031l-3.75,2.03
			l-5.469,3.28l-2.525,1.359l-50.131,4.733l-15.232,1.72l-4.467,0.495l-3.737-0.026v3.75l-8.125,0.469l-6.72,0.625l-10.082,0.199
			l0.974-1.201l2.106-1.702l1.986-1.104l0.223-3.093l0.886-1.771l-1.556-2.452l0.775-1.845l2.188-1.719l2.031-0.625l2.656,1.25
			l3.438,1.25l1.095-0.313l0.155-2.188l-1.25-2.346l0.313-2.188l1.875-1.406l2.5-0.625l1.563-0.625l-0.78-1.719l-0.625-1.875
			l1.094-0.781l1.016-3.203l2.892-1.641l5.625-0.938l3.438-0.47l1.406,1.875l1.719,0.781l1.722-3.124l2.813-1.406l1.875,1.563
			l0.781,1.094l2.031-0.469l-0.156-3.28l2.813-1.563l1.095-0.781l1.094,1.563h4.531l0.78-2.03l-0.313-2.188l2.813-3.438l4.531-3.75
			l0.469-4.375l2.656-0.313l3.75-1.719l2.656-1.875l-0.316-1.871l-1.403-1.406l0.547-2.109l3.981-0.233l2.347-0.781l2.813,1.563
			l1.563,4.219l5.625,0.313l1.719,1.72l2.031,0.155l2.344-1.405l2.969,0.469l1.25,1.406l2.656-2.5l1.719-1.25h1.564l0.625,2.655
			l1.719,0.938l3.438,2.031l0.156,5.313l0.781,1.563l2.5,1.405l0.625,2.188l2.813,3.594l2.5,2.656L744.735,429.367z"/>
		<path id="OH" fill="#FFD0D0" d="M754.065,329.778l-6.877,4.026l-3.75,2.188l-3.281,3.594l-3.906,3.75l-3.125,0.781l-2.813,0.469
			l-5.313,2.5l-2.03,0.156l-3.281-2.969l-5,0.625l-2.5-1.406l-2.303-1.307l-4.729,0.681l-9.844,1.563l-7.5,1.172l1.25,14.142
			l1.719,13.282l2.5,22.655l0.547,5.547l3.984-0.233l2.344-0.781l2.813,1.563l1.563,4.219l5.625,0.313l1.72,1.72l2.03,0.155
			l2.345-1.405l2.969,0.469l1.25,1.406l2.656-2.5l1.719-1.25h1.563l0.625,2.655l1.72,0.938l3.358,2.266l2.109-0.078l1.875-0.78
			l0.156-2.656l1.563-1.406l0.156-4.844l0.938-3.75l1.25-0.625l1.25,1.094l0.47,1.719l1.719-0.938l0.469-1.563l-1.094-1.719v-2.344
			l0.938-1.25l2.188-3.281l1.25-1.406l2.031,0.47l2.188-1.563l2.969-3.281l2.188-3.75l0.313-5.469l0.47-4.844v-4.531l-1.095-2.969
			l0.938-1.406l1.328-0.704l-1.797-10.391L754.065,329.778L754.065,329.778z"/>
		<path id="MI" fill="#D7FFD0" d="M608.274,220.719l1.771-1.989l2.1-0.772l5.19-3.757l2.212-0.553l0.44,0.442l-4.973,4.972
			l-3.205,1.879l-1.986,0.884L608.274,220.719L608.274,220.719z M691.565,251.771l0.625,2.423l3.125,0.155l1.25-1.172
			c0,0-0.078-1.406-0.391-1.563c-0.314-0.157-1.564-1.797-1.564-1.797l-2.106,0.233l-1.564,0.156l-0.313,1.094L691.565,251.771z
			 M720.625,312.712l-3.125-7.969l-2.188-8.75l-2.344-3.125l-2.5-1.719l-1.563,1.094l-3.75,1.719l-1.875,4.844l-2.656,3.595
			l-1.094,0.625l-1.406-0.625c0,0-2.5-1.406-2.344-2.031s0.469-4.844,0.469-4.844l3.281-1.25l0.781-3.281l0.625-2.5l2.344-1.563
			l-0.313-9.688l-1.563-2.188l-1.25-0.78l-0.781-2.031l0.781-0.781l1.563,0.313l0.155-1.563l-2.344-2.188l-1.25-2.5h-2.5
			l-4.375-1.406l-5.313-3.281h-2.656l-0.625,0.625l-0.938-0.469l-2.969-2.188l-2.813,1.719l-2.813,2.188l0.313,3.438l0.938,0.313
			l2.031,0.469l0.469,0.781l-2.5,0.781l-2.5,0.313l-1.406,1.72l-0.313,2.03l0.313,1.563l0.313,5.313l-3.438,2.031l-0.625-0.156
			v-4.064l1.25-2.344l0.625-2.345l-0.78-0.78l-1.875,0.78l-0.938,4.063l-2.656,1.094l-1.719,1.875l-0.156,0.938l0.625,0.78
			l-0.625,2.5l-2.188,0.47v1.094l0.781,2.344l-1.095,5.938l-1.563,3.905l0.625,4.531l0.471,1.094l-0.781,2.345l-0.313,0.78
			l-0.313,2.656l3.438,5.781l2.813,6.25l1.406,4.688l-0.781,4.531l-0.938,5.781l-2.344,5l-0.313,2.656l-2.979,3.007l-0.718,0.743
			l4.479-0.157l21.25-2.188l5.938-0.625l0.313,1.172l7.5-1.172l9.844-1.563l5.041-0.445l-1.291-1.116l0.154-1.405l2.031-3.595
			l1.934-1.68l-0.209-4.883l1.543-1.543l1.055-0.332l0.216-3.438l1.483-2.93l1.017,0.586l0.155,0.625l0.781,0.156l1.875-0.938
			L720.625,312.712z M593.524,249.336l1.789-1l2.656-0.781l3.438-2.188v-0.938l0.625-0.625l5.781-0.938l2.344-1.875l4.219-2.031
			l0.156-1.25l1.875-2.813l1.719-0.78l1.25-1.72l2.188-2.188l4.221-2.344l4.529-0.47l1.096,1.095l-0.313,0.938l-3.595,0.938
			l-1.405,2.969l-2.188,0.781l-0.469,2.344l-2.344,3.125l-0.313,2.5l0.779,0.469l0.938-1.094l3.438-2.813l1.25,1.25h2.188
			l3.125,0.938l1.406,1.094l1.406,2.969l2.656,2.656l3.75-0.156l1.405-0.938l1.563,1.25l1.563,0.469l1.25-0.781h1.095l1.563-0.938
			l3.904-3.438l3.281-1.094l6.405-0.313l4.375-1.875l2.5-1.25l1.406,0.155v5.47l0.469,0.313l2.813,0.781l1.875-0.469l5.939-1.563
			l1.094-1.094l1.406,0.469v6.719l3.125,2.97l1.25,0.625l1.25,0.938l-1.25,0.313l-0.781-0.313l-3.594-0.469l-2.031,0.625
			l-2.188-0.156l-3.125,1.406h-1.721l-5.625-1.25l-5,0.156l-1.875,2.5l-6.719,0.625l-2.345,0.78l-1.094,2.97l-1.25,1.094
			l-0.469-0.156l-1.406-1.563l-4.375,2.344h-0.625l-1.094-1.563l-0.781,0.156l-1.875,4.219l-0.938,3.906l-3.623,7.863l-1.576-1.109
			l-1.326-1.326l-1.547-9.943l-3.535-1.105l-1.326-2.209l-12.151-2.651l-2.433-1.105l-7.955-2.209l-7.954-1.104L593.524,249.336
			L593.524,249.336z"/>
		<path id="WY" fill="#FFD0D0" d="M389.447,280.526l-11.127-0.936l-31.014-3.185l-15.689-1.989l-27.4-3.979l-19.225-2.872
			l-1.372,10.802l-3.71,23.449l-5.083,29.389l-1.48,10.164l-1.614,11.491l6.306,0.896l16.323,2.21l8.535,1.137l19.881,2.386
			l36.019,3.978l23.644,1.989l4.199-42.869l1.546-24.528L389.447,280.526L389.447,280.526z"/>
		<path id="MT" fill="#FFFFD0" d="M391.63,260.054l0.78-11.243l2.184-24.112l1.326-14.584l1.218-13.754l-30.89-3.18l-28.28-3.438
			l-28.281-3.906l-31.25-5.156l-17.813-3.28l-31.628-6.701l-4.329,20.633l3.315,7.292l-1.326,4.419l1.768,4.42l3.093,1.326
			l3.536,9.944l3.536,3.534l0.442,1.105l3.314,1.104l0.442,1.989l-6.85,17.015v2.432l2.431,3.094h0.884l4.64-2.873l0.663-1.104
			l1.547,0.663l-0.221,5.083l2.652,12.152l2.873,2.432l0.884,0.662l1.768,2.209l-0.442,3.315l0.663,3.314l1.105,0.884l2.209-2.209
			h2.652l3.093,1.546l2.431-0.884h3.978l3.536,1.547l2.652-0.442l0.442-2.873l2.873-0.663l1.326,1.326l0.442,3.093l2.496,2.405
			l1.482-11.022l19.225,2.872l27.4,3.979l15.689,1.989l31.014,3.185l11.088,1.163l1.638-15.376L391.63,260.054L391.63,260.054z"/>
		<path id="ID" fill="#D7FFD0" d="M182.071,313.035l4.589-17.848l4.198-17.125l1.326-4.088l2.431-5.745l-1.215-2.21l-2.431,0.11
			l-0.773-0.994l0.442-1.104l0.332-2.983l4.309-5.303l1.768-0.442l1.104-1.104l0.553-3.095l0.884-0.662l3.756-5.636l3.757-4.197
			l0.221-3.646l-3.314-2.541l-1.271-4.254l0.387-9.336l3.536-15.91l4.309-20.107l3.646-13.038l0.737-3.677l13.646,2.6l-4.329,20.633
			l3.315,7.292l-1.326,4.419l1.768,4.419l3.093,1.326l3.536,9.943l3.536,3.535l0.442,1.105l3.314,1.104l0.442,1.988l-6.85,17.016
			v2.431l2.431,3.094h0.884l4.64-2.873l0.663-1.104l1.547,0.663l-0.221,5.083l2.652,12.152l2.873,2.432l0.884,0.662l1.768,2.209
			l-0.442,3.315l0.663,3.314l1.105,0.884l2.209-2.21h2.652l3.093,1.547l2.431-0.884h3.977l3.536,1.547l2.652-0.442l0.442-2.873
			l2.873-0.663l1.326,1.326l0.442,3.094l2.542,1.989l-3.646,23.645l-4.972,29.278l-4.64-0.772l-8.065-1.326l-9.944-1.768
			l-11.601-1.989l-12.264-2.266l-7.734-1.934l-8.949-1.768l-9.391-1.879L182.071,313.035L182.071,313.035z"/>
		<path id="WA" fill="#FFD0D0" d="M136.562,147.556l4.219,1.406l9.375,2.656l8.281,1.875l19.375,5.469L200,164.431l15.584,3.591
			l-0.971,3.755l-3.646,13.037l-4.309,20.108l-3.536,15.91l-0.185,9.375l-13.516-3.298l-14.584-3.425l-14.916,0.109l-0.442-1.326
			l-5.303,1.989l-4.309-0.553l-2.32-1.547l-1.215,0.663l-4.53-0.222l-1.658-1.326l-5.082-1.988l-0.773,0.109l-4.199-1.436
			l-1.878,1.768l-5.966-0.332l-5.745-3.977l0.663-0.773l0.221-7.513l-2.21-3.756l-3.977-0.553l-0.663-2.432l-2.275-0.45l-1.854-1.448
			l-1.719,0.938l-2.188-2.813l0.313-2.813l2.656-0.313l1.563-3.906l-2.5-1.094l0.156-3.595l4.219-0.625l-2.656-2.655l-1.406-6.873
			l0.625-2.813v-7.655l-1.719-3.125l2.188-9.063l2.031,0.469l2.344,2.813l2.656,2.5l3.125,1.875l4.375,2.031l2.969,0.625l2.813,1.405
			l3.281,0.938l2.188-0.156v-2.344l1.25-1.094l2.031-1.25l0.313,1.094l0.313,1.719l-2.188,0.469l-0.313,2.031l1.719,1.406
			l1.094,2.344l0.625,1.875l1.406-0.156l0.156-1.25l-0.938-1.25l-0.469-3.125l0.781-1.719l-0.625-1.406v-2.188l1.719-3.438
			l-1.094-2.5l-2.344-4.688l0.313-0.781L136.562,147.556L136.562,147.556z M127.422,153.334l1.953-0.156l0.469,1.328l1.484-1.563
			h2.266l0.781,1.483l-1.484,1.642l0.625,0.78l-0.703,1.953l-1.328,0.392c0,0-0.859,0.077-0.859-0.234c0-0.313,1.406-2.5,1.406-2.5
			l-1.641-0.547l-0.313,1.406l-0.703,0.625l-1.484-2.188L127.422,153.334L127.422,153.334z"/>
		<path id="TX" fill="#D7FFD0" d="M391.224,463.623l21.931,1.05l30.053,1.104l-1.325,22.98l-0.442,17.234l0.222,1.547l4.198,3.536
			l1.988,1.104l0.663-0.222l0.663-1.989l1.325,1.771h1.987v-1.326l2.651,1.326l-0.44,3.756l3.979,0.221l2.431,1.105l3.979,0.662
			l2.431,1.769l2.21-1.989l3.313,0.664l2.432,3.313h0.884v2.211l2.21,0.662l2.209-2.209l1.77,0.662h2.431l0.885,2.432l4.642,1.768
			l1.325-0.662l1.769-3.979h1.104l1.104,1.989l3.978,0.663l3.535,1.324l2.873,0.885l1.768-0.885l0.664-2.431h4.197l1.988,0.884
			l2.651-1.988h1.104l0.662,1.548h3.979l1.547-1.989l1.769,0.441l1.988,2.432l3.094,1.768l3.094,0.885l2.652,1.217l2.209,1.878
			l2.873-1.326l2.651,1.105l0.648,10.729l0.014,9.378l0.662,9.062l0.664,3.757l2.432,3.977l0.884,4.862l4.198,5.303l0.222,3.095
			l0.661,0.662l-0.661,8.178l-2.873,4.859l1.547,1.988l-0.662,2.432l-0.664,7.07l-1.324,3.094l0.273,3.465l-6.252,1.688l-9.531,4.375
			l-0.938,1.875l-2.5,1.875l-2.03,1.406l-1.25,0.78l-5.47,5.155l-2.655,2.031l-5.156,3.125l-5.469,2.344l-6.095,3.281l-1.719,1.406
			l-5.625,3.438l-3.281,0.625l-3.75,5.313l-3.905,0.313l-0.938,1.875l2.188,1.875l-1.406,5.313l-1.25,4.375l-1.094,3.75l-0.781,4.375
			l0.781,2.344l1.719,6.719l0.938,5.938l1.72,2.655l-0.938,1.405l-2.97,1.875l-5.469-3.75l-5.313-1.094l-1.25,0.469l-3.125-0.625
			l-4.063-2.969l-5-1.094l-7.345-3.281l-2.03-3.75l-1.25-6.25l-3.124-1.877l-0.625-2.188l0.625-0.625l0.313-3.279l-1.25-0.625
			l-0.625-0.938l1.25-4.219l-1.563-2.188l-3.125-1.25l-3.281-4.22l-3.438-6.405l-4.063-2.5l0.156-1.875l-5.156-11.875l-0.78-4.063
			l-1.72-1.875l-0.155-1.406l-5.78-5.155l-2.5-2.97v-1.094l-2.5-2.031l-6.563-1.094l-7.188-0.625l-2.969-2.188l-4.375,1.721
			l-3.438,1.404l-2.188,3.125l-0.938,3.596l-4.22,5.938l-2.344,2.345l-2.5-0.938l-1.72-1.094l-1.875-0.625l-3.75-2.188v-0.625
			l-1.719-1.875l-5-2.031l-7.188-7.5l-2.188-4.529v-7.813l-3.125-6.25l-0.47-2.656l-1.563-0.938l-1.094-2.031l-4.845-2.031
			l-1.25-1.563l-6.875-7.656l-1.25-3.125l-4.53-2.188l-1.406-4.22l-2.5-2.813l-1.875-0.469l-0.627-4.521l7.734,0.663l28.063,2.651
			l28.063,1.547l2.209-22.98l3.757-53.695l1.547-18.119l1.326,0.027 M488.048,689.742l-0.547-6.875l-2.656-6.953l-0.547-6.797
			l1.483-7.969l3.202-6.643l3.359-5.232l3.047-3.438l0.625,0.234l-4.608,6.405l-4.22,6.327l-1.953,6.406l-0.313,5l0.858,5.938
			l2.5,6.952l0.469,5l0.156,1.405L488.048,689.742z"/>
		<path id="CA" fill="#D7FFD0" d="M178.906,515.837l3.998-0.78l1.436-2.102l0.553-2.651l-3.536-0.553l-0.442-0.772l0.442-1.656
			l0.11-5.635l1.989-0.664l2.762-2.65l0.552-4.751l1.437-3.535l1.878-1.879l3.315-1.657l1.546-1.324l0.111-2.211l-0.995-0.553
			l-0.773-0.994l-1.215-5.635l-2.651-4.751l0.559-3.158l-2.438-3.14l-14.032-21.986l-18.782-28.063l-21.987-32.703l-11.967-17.96
			l1.582-6.348l6.74-25.081l7.844-30.383l-13.037-3.536l-13.037-3.313l-12.154-3.979l-7.292-1.989l-11.048-2.872l-6.815-2.331
			l-1.527,4.565l-0.156,7.188l-5,11.405l-2.969,2.5l-0.313,1.095l-1.719,0.78l-1.406,4.063l-0.781,3.125l2.656,4.063l1.563,4.063
			l1.094,3.438l-0.313,6.25l-1.72,2.968l-0.625,5.625l-0.938,3.594l1.719,3.75l2.656,4.375l2.188,4.688l1.25,3.905l-0.313,3.125
			l-0.313,0.47v2.03l5.469,6.095l-0.468,2.343l-0.625,2.188l-0.625,1.875l0.156,7.97l2.031,3.594l1.875,2.5l2.656,0.469l0.938,2.656
			l-1.094,3.438l-2.031,1.563H75.78L75,409.743l0.469,2.813l3.125,4.22l1.563,5.155l1.406,4.531l1.25,2.969l3.281,5.625l1.406,2.5
			l0.469,2.813l1.563,0.938v2.346l-0.781,1.875l-1.719,6.875l-0.469,1.875l2.344,2.656l4.063,0.469l4.375,1.719l3.75,2.031h2.813
			l2.813,2.969l2.5,4.688l1.094,2.188l3.75,2.03l4.688,0.781l1.406,2.03l0.625,3.125l-1.406,0.625l0.313,0.938l3.125,0.779
			l2.656,0.156l2.813,4.531l3.75,4.063l0.781,2.188l2.5,4.063l0.313,3.125v9.063l0.469,1.719l9.688,1.406l19.063,2.656
			L178.906,515.837L178.906,515.837z M93.281,467.164l1.25,1.482l-0.156,1.25l-3.125-0.076l-0.547-1.174l-0.625-1.404L93.281,467.164
			L93.281,467.164z M95.156,467.164l1.172-0.625l3.438,2.031l2.969,1.172l-0.859,0.625l-4.375-0.233l-1.563-1.563L95.156,467.164z
			 M115.156,486.307l1.719,2.266l0.781,0.938l1.484,0.547l0.547-1.404l-0.938-1.721l-2.578-1.953l-1.016,0.156L115.156,486.307
			L115.156,486.307z M113.75,494.664l1.719,3.047l1.172,1.875l-1.406,0.234l-1.25-1.174c0,0-0.703-1.404-0.703-1.797
			c0-0.391,0-2.107,0-2.107L113.75,494.664L113.75,494.664z"/>
		<path id="AZ" fill="#FFFFD0" d="M179.258,515.938l-2.54,2.086l-0.313,1.406l0.469,0.938l18.281,10.313l11.719,7.346l14.219,8.279
			l16.25,9.688l11.875,2.344l25.838,3.391l1.98-12.862l3.627-26.021l6.731-51.422l4.115-29.772l-24.859-3.713l-26.296-4.42
			l-32.31-6.104L205.22,444.9l-0.442,0.439l-1.657,2.541l-2.431-0.109l-1.215-2.65l-2.652-0.332l-0.884-1.104h-0.884l-0.884,0.553
			l-1.878,0.994l-0.11,6.738l-0.221,1.658l-0.552,12.152l-1.437,2.1l-0.552,3.204l2.651,4.751l1.215,5.635l0.773,0.994l0.995,0.553
			l-0.111,2.211l-1.546,1.324l-3.315,1.658l-1.878,1.879l-1.437,3.534l-0.552,4.751l-2.762,2.65l-1.989,0.664l-0.11,5.635
			l-0.442,1.656l0.442,0.772l3.535,0.554l-0.552,2.651l-1.436,2.101L179.258,515.938L179.258,515.938z"/>
		<path id="NV" fill="#FFD0D0" d="M182.071,313.035l20.278,4.359l9.391,1.878l8.949,1.769l7.79,2.044l-1.16,5.358l-3.425,16.903
			l-3.646,19.777l-1.878,8.619l-2.1,13.146l-3.204,16.021l-3.093,14.694l-1.903,10.149l-2.848,17.141l-0.442,0.441l-1.657,2.541
			l-2.431-0.109l-1.215-2.65l-2.652-0.332l-0.884-1.104h-0.884l-0.884,0.553l-1.878,0.994l-0.11,6.739l-0.221,1.656l-0.552,12.153
			l-1.433,2.123l-2.434-3.117l-14.032-21.986l-18.782-28.063l-21.987-32.704l-11.967-17.96l1.582-6.348l6.74-25.081l7.624-30.298
			l32.483,7.87l13.258,2.873"/>
		<path id="UT" fill="#F2D0FF" d="M291.401,441.913l-24.749-3.979l-26.296-4.42l-32.384-5.974l2.001-9.937l3.094-14.694l3.204-16.021
			l2.1-13.146l1.878-8.618l3.646-19.777l3.425-16.903l1.077-5.387l12.292,2.183l11.601,1.988l9.944,1.769l8.065,1.326l4.64,0.772
			l-1.59,10.274l-1.614,11.491l6.306,0.896l16.323,2.21l8.867,1.137l-2.99,21.389l-3.094,21.654l-3.627,27.051l-1.455,10.735
			L291.401,441.913L291.401,441.913z"/>
		<path id="CO" fill="#D7FFD0" d="M409.178,453.402l3.977-63.64l1.548-21.654l-32.263-2.651l-23.644-1.989l-36.019-3.978
			l-19.998-2.432l-2.541,21.435l-3.094,21.654l-3.627,27.051l-1.455,10.735l-0.553,3.756l33.256,3.979l35.702,4.279l31.667,2.129
			l6.436,0.662l11.05,0.554"/>
		<path id="NM" fill="#FFD0D0" d="M320.468,558.182l-0.784-4.679l7.733,0.663l28.063,2.651l28.063,1.547l2.209-22.98l3.757-53.694
			l1.547-18.119l1.326,0.027l-0.015-11.326l-31.9-2.321l-35.702-4.279l-33.312-3.978l-4.06,29.729l-6.731,51.422l-3.627,26.021
			l-1.98,12.864l14.943,1.923l1.25-9.688l16.094,2.5L320.468,558.182L320.468,558.182z"/>
		<path id="OR" fill="#F2D0FF" d="M182.351,312.645l4.309-17.457l4.198-17.125l1.326-4.088l2.431-5.745l-1.215-2.21l-2.431,0.11
			l-0.773-0.994l0.442-1.104l0.332-2.983l4.309-5.303l1.768-0.442l1.104-1.104l0.553-3.095l0.884-0.662l3.756-5.636l3.757-4.197
			l0.221-3.646l-3.314-2.541l-1.013-4.049l-13.571-3.464l-14.584-3.425l-14.916,0.109l-0.442-1.326l-5.303,1.989l-4.309-0.552
			l-2.32-1.547l-1.215,0.663l-4.53-0.222l-1.658-1.325l-5.082-1.989l-0.773,0.109l-4.199-1.436l-1.878,1.768l-5.966-0.332
			l-5.745-3.977l0.663-0.773l0.221-7.513l-2.21-3.756l-3.977-0.553l-0.663-2.432l-2.275-0.45l-5.604,1.989l-2.188,6.25l-3.125,9.688
			l-3.125,6.25l-4.844,13.594l-6.25,13.125l-7.813,12.188l-1.875,2.813l-0.781,8.281l-1.25,5.781l2.152,4.34l6.815,2.331
			l11.049,2.873l7.292,1.988l12.153,3.979l13.037,3.313l13.038,3.758 M182.072,313.035l-45.351-10.691l32.483,7.87l13.258,2.873"/>
		<path id="ND" fill="#D7FFD0" d="M502.428,265.578l-0.664-8.176l-1.769-7.071l-1.768-13.038l-0.441-9.501l-1.769-3.314l-1.547-4.86
			v-9.944l0.663-3.756l-1.891-5.315l-28.401-0.545l-17.97-0.625l-25.625-1.25l-24.111-1.82l-1.219,13.754l-1.325,14.584
			l-2.184,24.112l-0.625,11.737l54.294,3.483L502.428,265.578L502.428,265.578z"/>
		<path id="SD" fill="#F2D0FF" d="M503.87,338.563l-0.922-1.975l-1.625-2.729l1.769-4.198l1.325-5.524l-2.651-1.989l-0.439-2.65
			l0.883-2.432h1.769l0.443-6.629l-0.224-29.389l-0.44-2.873l-3.979-3.313l-1.104-1.769v-1.547l1.987-1.546l1.326-1.326l0.33-3.093
			l-56.236-1.547l-54.294-3.757l-0.74,5.103l-1.561,15.337l-1.3,17.346l-1.546,24.859l15.025,0.995l19.444,1.104l17.236,1.105
			l22.98,1.104l10.387-0.441l1.987,2.209l4.642,2.873l1.104,0.884l4.197-1.326l3.756-0.441l2.652-0.222l1.769,1.326l4.86,1.547
			l2.872,1.547l0.442,1.547l0.884,1.988h1.768L503.87,338.563L503.87,338.563z"/>
		<path id="NE" fill="#FFFFD0" d="M515.245,379.82l1.324,2.431l-0.221,2.209l2.43,3.756l3.096,3.979h-5.967l-42.646-0.442
			l-39.112-1.326l-21.103-0.772l1.656-21.545l-32.263-2.651l4.199-42.537l15.025,0.995l19.444,1.104l17.236,1.104l22.98,1.104
			l10.386-0.441l1.988,2.209l4.642,2.873l1.104,0.884l4.197-1.326l3.756-0.441l2.652-0.222l1.768,1.326l4.861,1.547l2.872,1.547
			l0.442,1.548l0.883,1.988h1.769l1.547-0.11l1.105,5.192l2.651,7.292l0.883,4.642l2.211,3.536l0.662,5.081l1.548,3.979l0.221,6.408
			l1.873,5.316"/>
		<path id="IA" fill="#D7FFD0" d="M594.737,336.068l0.058,1.768l2.211,0.663l0.883,1.104l0.44,1.769l3.759,3.313l0.661,2.21
			l-0.661,3.314l-1.771,3.536l-0.662,2.431l-2.211,1.769l-1.768,0.663l-5.082,1.325l-0.662,1.769l-0.664,1.989l0.664,1.325
			l1.768,1.546l-0.221,3.979l-1.771,1.547l-0.661,1.547v2.652l-1.769,0.441l-1.547,1.104l-0.223,1.326l0.223,1.988l-1.658,1.713
			l-3.203-3.26l-1.104-2.21l-7.512,0.663l-9.503,0.442l-24.528,0.884l-13.037,0.221l-9.06,0.222l-1.053,0.116l-1.6-5.198
			l-0.224-6.408l-1.545-3.979l-0.664-5.083l-2.209-3.534l-0.885-4.642l-2.649-7.292l-1.105-5.192l-1.324-2.1l-1.549-2.651
			l1.771-4.198l1.323-5.524l-2.649-1.988l-0.441-2.651l0.885-2.431h1.656h11.158l47.951-0.663l17.457-0.663l3.979-0.11l0.662,3.204
			l2.209,1.547l0.223,1.326l-1.989,3.313l0.221,3.095l2.432,3.756l2.433,1.104l2.873,0.442L594.737,336.068L594.737,336.068z"/>
		<path id="MS" fill="#F2D0FF" d="M650.653,592.748l-1.121,1.214h-5l-1.405-0.78l-2.031-0.313l-6.563,1.875l-1.721-0.781l-2.5,4.063
			l-1.064,0.752l-1.086-2.404l-1.104-3.757l-3.313-3.095l1.104-7.291l-0.664-0.886l-1.769,0.223l-7.954,0.663l-23.423,0.662
			l-0.44-1.547l0.662-7.733l3.313-5.966l5.082-8.84l-0.885-1.988h1.104l0.662-3.094l-2.209-1.77l0.222-1.769l-1.988-4.42
			l-0.275-5.166l1.324-2.566l-0.387-4.198l-1.326-2.873l1.326-1.323l-1.326-1.99l0.443-1.769l0.883-5.966l2.873-2.65l-0.662-1.988
			l3.535-5.084l2.649-0.883v-2.433l-0.662-1.324l2.65-5.084l2.652-1.104l0.104-3.297l8.387-0.075l23.279-1.875l5.308-0.222
			l0.008,6.158l0.155,16.094l-0.78,30.001l-0.156,13.594l2.656,18.125L650.653,592.748L650.653,592.748z"/>
		<path id="IN" fill="#F2D0FF" d="M644.063,433.18l-0.154-3.749l0.47-4.375l2.188-2.813l1.719-3.75l2.5-4.063l-0.469-5.625
			l-1.719-2.655l-0.313-3.125l0.779-5.313l-0.469-6.719l-1.25-15.469l-1.25-14.845l-0.938-11.328l2.969,0.86l1.406,0.938l1.094-0.313
			l2.031-1.875l2.734-1.563l4.922-0.156l21.25-2.188l5.939-0.625l0.155,1.095l1.404,14.22l1.721,13.281l2.5,22.655l0.47,5.47
			l-0.47,2.188l1.404,1.406l0.314,1.875l-2.656,1.875l-3.75,1.719l-2.656,0.313l-0.469,4.375l-4.531,3.75l-2.813,3.438l0.313,2.188
			l-0.781,2.03h-4.53l-1.097-1.563l-1.094,0.781l-2.813,1.563l0.156,3.28l-2.031,0.469l-0.78-1.094l-1.875-1.563l-2.813,1.406
			l-1.721,3.124l-1.719-0.78l-1.406-1.875l-3.438,0.469l-5.625,0.938L644.063,433.18L644.063,433.18z"/>
		<path id="IL" fill="#FFD0D0" d="M643.907,433.021v-3.592l0.469-4.375l2.188-2.813l1.721-3.75l2.5-4.063l-0.471-5.625l-1.719-2.655
			l-0.313-3.125l0.781-5.313l-0.469-6.719l-1.25-15.469l-1.25-14.845l-0.783-11.25l-1.25-0.78l-0.779-2.5l-1.25-3.595l-1.563-1.719
			l-1.406-2.5l-0.225-5.305l-9.572,1.268l-26.295,1.658l-8.396-0.415l0.222,2.292l2.211,0.663l0.883,1.104l0.44,1.769l3.759,3.313
			l0.661,2.21l-0.661,3.314l-1.771,3.536l-0.662,2.431l-2.211,1.769l-1.768,0.662l-5.082,1.326l-0.662,1.769l-0.664,1.988
			l0.664,1.326l1.768,1.547l-0.221,3.978l-1.768,1.547l-0.664,1.547v2.652l-1.769,0.441l-1.547,1.105l-0.223,1.326l0.223,1.988
			l-1.656,1.271l-0.996,2.707l0.441,3.536l2.211,7.071l7.07,7.292l5.303,3.535l-0.221,4.198l0.885,1.326l6.188,0.442l2.65,1.325
			l-0.662,3.536l-2.211,5.745l-0.662,3.094l2.209,3.758l6.189,5.08l4.418,0.664l1.99,4.86l1.985,3.095l-0.883,2.872l1.547,3.979
			l1.769,1.986l2.866-0.326l0.556-1.979l2.188-1.72l2.031-0.625l2.656,1.25l3.438,1.25l1.095-0.313l0.155-2.188l-1.25-2.345
			l0.313-2.188l1.875-1.406l2.5-0.625l1.563-0.625l-0.778-1.719l-0.625-1.875l1.094-0.781L643.907,433.021L643.907,433.021z"/>
		<path id="MN" fill="#FFD0D0" d="M502.208,265.578l-0.442-8.176l-1.769-7.071l-1.768-13.038l-0.441-9.501l-1.769-3.314l-1.547-4.86
			v-9.944l0.663-3.756l-1.761-5.271l29.124,0.034l0.313-7.969l0.625-0.156l2.188,0.47l1.875,0.78l0.779,5.313l1.406,5.938
			l1.563,1.563h4.688l0.313,1.406l6.095,0.313v2.031h4.688l0.314-1.25l1.094-1.094l2.188-0.625l1.25,0.938h2.813l3.75,2.5
			l5.156,2.344l2.344,0.47l0.469-0.938l1.406-0.469l0.469,2.813l2.5,1.25l0.472-0.469l1.25,0.156v2.031l2.5,0.938h2.969l1.563-0.781
			l3.125-3.125l2.5-0.469l0.781,1.719l0.469,1.25h0.938l0.938-0.78l8.597-0.313l1.719,2.969h0.625l0.688-1.048l4.291-0.357
			l-0.592,2.203l-3.809,1.775l-8.937,3.925l-4.614,1.94l-2.97,2.5l-2.344,3.438l-2.188,3.75l-1.72,0.781l-4.375,4.844l-1.25,0.156
			l-3.28,2.969l0.664,0.525l-2.724,2.617l-0.221,2.65v8.177l-1.104,1.546l-5.084,3.757l-2.209,5.745l0.441,0.221l2.43,1.989
			l0.664,3.093l-1.768,3.094v3.756l0.44,6.408l2.871,2.873h3.314l1.768,3.094l3.314,0.442l3.758,5.524l6.85,3.978l1.988,2.651
			l0.885,7.292h-3.979l-17.455,0.663l-47.951,0.663h-11.16l0.556-6.63l-0.224-29.389l-0.44-2.873l-3.979-3.313l-1.104-1.769v-1.547
			l1.987-1.546l1.326-1.326L502.208,265.578L502.208,265.578z"/>
		<path id="WI" fill="#FFFFD0" d="M638.766,333.195l0.141-4.077l-1.563-4.375l-0.625-5.938l-1.095-2.344l0.938-2.969l0.781-2.813
			l1.405-2.5l-0.625-3.28l-0.625-3.438l0.47-1.719l1.875-2.344l0.155-2.656l-0.78-1.25l0.625-2.5l0.469-3.125l2.656-5.469
			l2.813-6.563l0.156-2.188l-0.313-0.938l-0.78,0.469l-4.063,6.094l-2.656,3.906l-1.875,1.719l-0.78,2.188l-1.406,0.781l-1.094,1.878
			l-1.406-0.313l-0.156-1.719l1.25-2.344l2.031-4.531l1.719-1.563l1.064-2.216l-1.576-0.875l-1.326-1.325l-1.547-9.944l-3.535-1.105
			l-1.326-2.209l-12.151-2.651l-2.433-1.105l-7.955-2.209l-7.954-1.104l-4.029-5.225l-0.512,1.22l-1.095-0.156l-0.625-1.094
			l-2.655-0.781l-1.095,0.156l-1.719,0.938L585,248.961l0.625-1.875l1.875-2.969l1.095-1.094l-1.875-1.406l-2.031,0.781l-2.813,1.875
			l-7.188,3.125l-2.813,0.625l-2.813-0.47l-0.949-0.849l-2.047,2.741l-0.221,2.65v8.177l-1.104,1.547l-5.082,3.757l-2.209,5.745
			l0.439,0.221l2.432,1.989l0.662,3.094l-1.768,3.094v3.756l0.44,6.408l2.873,2.873h3.314l1.768,3.094l3.314,0.442l3.756,5.524
			l6.852,3.978l1.988,2.651l0.885,7.182l0.662,3.204l2.211,1.547l0.221,1.326l-1.987,3.313l0.221,3.095l2.432,3.756l2.431,1.104
			l2.873,0.442l1.188,2.431h8.867l25.742-1.547L638.766,333.195L638.766,333.195z"/>
		<path id="MO" fill="#F2D0FF" d="M583.965,382.693l-3.093-3.095l-1.104-2.21l-7.514,0.663l-9.502,0.442l-24.527,0.884l-13.037,0.221
			l-7.623,0.11l-2.211,0.11l1.217,2.431l-0.223,2.21l2.432,3.756l2.982,3.979l2.983,2.651l2.209,0.222l1.326,0.884v2.873l-1.77,1.546
			l-0.441,2.21l1.988,3.313l2.432,2.873l2.433,1.769l1.325,11.27l-0.663,34.141l0.221,4.531l0.442,6.629l22.539-0.441l22.54-0.664
			l20.107-0.884l10.604-0.441l1.769,2.872l-0.441,2.21l-3.094,2.651l-0.662,2.871l5.967,0.441l4.859-0.662l1.99-6.188l-0.14-5.439
			l2.789-1.408l1.326-1.547l1.988-1.105l0.221-3.094l0.885-1.769l-1.325-2.349l-2.873,0.357l-1.769-1.986l-1.547-3.979l0.885-2.873
			l-1.987-3.095l-1.99-4.86l-4.418-0.664l-6.188-5.082l-2.211-3.756l0.662-3.094l2.211-5.745l0.662-3.536l-2.65-1.325l-6.188-0.442
			l-0.885-1.326l0.221-4.198l-5.303-3.536l-7.07-7.292l-2.211-7.07l-0.441-3.535L583.965,382.693L583.965,382.693z"/>
		<path id="AR" fill="#FFD0D0" d="M618.282,474.814l-4.705,0.906l-5.967-0.441l0.662-2.872l3.094-2.652l0.441-2.209l-1.769-2.873
			l-10.604,0.442l-20.107,0.884l-22.539,0.663l-22.539,0.439l1.545,6.629v7.955l1.326,10.606l0.222,36.571l2.211,1.878l2.873-1.326
			l2.649,1.104l0.638,10.855l21.461-0.027l18.563-0.885l10.439,0.139l1.438-2.567l-0.387-4.198l-1.326-2.872l1.326-1.326
			l-1.326-1.988l0.441-1.768l0.885-5.967l2.871-2.652l-0.662-1.986l3.535-5.082l2.651-0.887v-2.43l-0.664-1.326l2.652-5.082
			l2.65-1.104l-0.287-3.532l2.371-1.091l0.938-4.531l-1.406-3.438l3.906-2.188l0.313-2.5l1.305-4.233L618.282,474.814
			L618.282,474.814z"/>
		<path id="OK" fill="#FFFFD0" d="M408.901,453.184l-10.331-0.442l-6.215-0.47l0.249,0.192l-0.523,11.158l21.075,1.051l30.052,1.104
			l-1.325,22.979l-0.442,17.235l0.222,1.547l4.198,3.536l1.988,1.104l0.663-0.222l0.663-1.987l1.325,1.768h1.988v-1.325l2.65,1.325
			l-0.44,3.757l3.979,0.222l2.431,1.104l3.979,0.664l2.431,1.768l2.21-1.988l3.313,0.662l2.432,3.314h0.884v2.21l2.21,0.663
			l2.209-2.21l1.771,0.663h2.431l0.884,2.431l4.641,1.769l1.326-0.664l1.769-3.978h1.104l1.104,1.989l3.979,0.662l3.533,1.326
			l2.873,0.883l1.77-0.883l0.662-2.433h4.197l1.99,0.886l2.649-1.988h1.104l0.664,1.547h3.979l1.547-1.989l1.769,0.442l1.988,2.431
			l3.094,1.769l3.094,0.883l2.652,1.549l-0.224-36.902l-1.323-10.605v-7.955l-1.548-6.629l-0.442-6.629l-0.221-4.311l-12.816,0.771
			l-44.855-0.439l-43.531-1.988L408.901,453.184L408.901,453.184z"/>
		<path id="KS" fill="#FFD0D0" d="M533.583,456.275l-12.815,0.662l-44.856-0.44l-43.53-1.988l-23.341-1.216l4.006-63.64l21.103,0.772
			l39.112,1.326l42.647,0.442h5.854l2.983,2.651l2.209,0.222l1.326,0.884v2.873l-1.77,1.547l-0.441,2.21l1.988,3.313l2.432,2.873
			l2.433,1.769l1.325,11.27L533.583,456.275L533.583,456.275z"/>
		<path id="LA" fill="#FFFFD0" d="M629.375,598.571l-1.215-2.199l-1.104-3.757l-3.313-3.095l1.104-7.291l-0.664-0.885l-1.769,0.222
			l-7.955,0.663l-23.422,0.662l-0.44-1.547l0.662-7.733l3.313-5.966l5.082-8.84l-0.885-1.988h1.104l0.662-3.094l-2.209-1.77
			l0.222-1.768l-1.988-4.42l-0.332-5.305h-10.496l-18.563,0.885l-21.461,0.026l0.026,9.254l0.662,9.062l0.662,3.757l2.432,3.978
			l0.886,4.861l4.198,5.303l0.222,3.095l0.661,0.663l-0.661,8.177l-2.873,4.86l1.547,1.988l-0.662,2.432l-0.664,7.069l-1.326,3.095
			l0.119,3.495l4.529-1.47l7.813-0.313l10,3.438l6.25,1.094l3.595-1.405l3.125,1.095l3.125,0.938l0.78-2.03l-3.125-1.095l-2.5,0.47
			l-2.655-1.563c0,0,0.155-1.25,0.78-1.406c0.625-0.155,2.97-0.938,2.97-0.938l1.719,1.405l1.719-0.938l3.125,0.625l1.406,2.344
			l0.313,2.188l4.375,0.313l1.72,1.72l-0.781,1.563l-1.25,0.781l1.563,1.563l8.125,3.438l3.438-1.25l0.938-2.345l2.5-0.625
			l1.72-1.405l1.25,0.938l0.78,2.813l-2.188,0.78l0.625,0.625l3.281-1.25l2.188-3.28l0.781-0.47l-2.031-0.313l0.781-1.563
			l-0.156-1.405l2.031-0.47l1.094-1.25l0.625,0.78c0,0-0.156,2.97,0.625,2.97s4.063,0.625,4.063,0.625l3.905,1.875l0.938,1.405h2.813
			l1.095,0.938l2.188-2.97v-1.405h-1.25l-3.281-2.656l-5.625-0.781l-3.125-2.188l1.095-2.656l2.188,0.313l0.156-0.625l-1.719-0.938
			v-0.469h3.125l1.719-2.97l-1.25-1.875l-0.313-2.655l-1.405,0.155l-1.875,2.03l-0.625,2.5l-2.97-0.625l-0.938-1.719l1.719-1.875
			l1.953-1.719L629.375,598.571L629.375,598.571z"/>
	</g>
	<g id="state-points" display="none">
		<path id="WA-Point" display="inline" fill="#FFD0D0" d="M143.243,55.644"/>
		<path id="OR-Point" display="inline" fill="#FFD0D0" d="M120.243,126.644"/>
		<path id="CA-Point" display="inline" fill="#FFD0D0" d="M92.243,279.644"/>
		<path id="ID-Point" display="inline" fill="#FFD0D0" d="M210.243,147.644"/>
		<path id="NV-Point" display="inline" fill="#FFD0D0" d="M155.243,228.644"/>
		<path id="UT-Point" display="inline" fill="#FFD0D0" d="M236.243,250.644"/>
		<path id="AZ-Point" display="inline" fill="#FFD0D0" d="M222.243,355.644"/>
		<path id="MT-Point" display="inline" fill="#FFD0D0" d="M295.243,91.644"/>
		<path id="WY-Point" display="inline" fill="#FFD0D0" d="M312.243,183.644"/>
		<path id="CO-Point" display="inline" fill="#FFD0D0" d="M334.243,272.644"/>
		<path id="NM-Point" display="inline" fill="#FFD0D0" d="M319.243,367.644"/>
		<path id="ND-Point" display="inline" fill="#FFD0D0" d="M428.243,97.644"/>
		<path id="SD-Point" display="inline" fill="#FFD0D0" d="M430.243,160.644"/>
		<path id="NE-Point" display="inline" fill="#FFD0D0" d="M436.243,225.644"/>
		<path id="KS-Point" display="inline" fill="#FFD0D0" d="M452.243,287.644"/>
		<path id="OK-Point" display="inline" fill="#FFD0D0" d="M467.243,352.644"/>
		<path id="TX-Point" display="inline" fill="#FFD0D0" d="M438.243,441.644"/>
		<path id="MN-Point" display="inline" fill="#FFD0D0" d="M513.243,120.644"/>
		<path id="IA-Point" display="inline" fill="#FFD0D0" d="M531.243,212.644"/>
		<path id="MO-Point" display="inline" fill="#FFD0D0" d="M550.243,293.644"/>
		<path id="AR-Point" display="inline" fill="#FFD0D0" d="M555.243,366.644"/>
		<path id="LA-Point" display="inline" fill="#FFD0D0" d="M556.243,441.644"/>
		<path id="WI-Point" display="inline" fill="#FFD0D0" d="M585.243,158.644"/>
		<path id="IL-Point" display="inline" fill="#FFD0D0" d="M603.243,255.644"/>
		<path id="MS-Point" display="inline" fill="#FFD0D0" d="M604.243,405.644"/>
		<path id="MI-Point" display="inline" fill="#FFD0D0" d="M665.243,166.644"/>
		<path id="IN-Point" display="inline" fill="#FFD0D0" d="M652.243,249.644"/>
		<path id="OH-Point" display="inline" fill="#FFD0D0" d="M706.243,240.644"/>
		<path id="KY-Point" display="inline" fill="#FFD0D0" d="M680.243,297.644"/>
		<path id="TN-Point" display="inline" fill="#FFD0D0" d="M661.243,339.644"/>
		<path id="AL-Point" display="inline" fill="#FFD0D0" d="M661.243,404.644"/>
		<path id="GA-Point" display="inline" fill="#FFD0D0" d="M715.243,402.644"/>
		<path id="FL-Point" display="inline" fill="#FFD0D0" d="M762.243,488.644"/>
		<path id="NY-Point" display="inline" fill="#FFD0D0" d="M811.243,160.644"/>
		<path id="PA-Point" display="inline" fill="#FFD0D0" d="M786.243,210.644"/>
		<path id="NJ-Point" display="inline" fill="#FFD0D0" d="M837.91,220.977"/>
		<path id="WV-Point" display="inline" fill="#FFD0D0" d="M743.243,266.644"/>
		<path id="MD-Point" display="inline" fill="#FFD0D0" d="M802.243,242.644"/>
		<path id="DE-Point" display="inline" fill="#FFD0D0" d="M833.243,250.644"/>
		<path id="VA-Point" display="inline" fill="#FFD0D0" d="M786.243,283.644"/>
		<path id="NC-Point" display="inline" fill="#FFD0D0" d="M793.243,326.644"/>
		<path id="SC-Point" display="inline" fill="#FFD0D0" d="M760.243,368.644"/>
		<path id="VT-Point" display="inline" fill="#FFD0D0" d="M843.743,129.644"/>
		<path id="NH-Point" display="inline" fill="#FFD0D0" d="M865.243,136.644"/>
		<path id="MA-Point" display="inline" fill="#FFD0D0" d="M862.743,160.144"/>
		<path id="CT-Point" display="inline" fill="#FFD0D0" d="M855.243,177.144"/>
		<path id="RI-Point" display="inline" fill="#FFD0D0" d="M876.743,172.144"/>
		<path id="ME-Point" display="inline" fill="#FFD0D0" d="M887.743,83.644"/>
		<path id="AK-Point" display="inline" fill="#FFD0D0" d="M143.243,482.644"/>
		<path id="HI-Point" display="inline" fill="#FFD0D0" d="M342.243,548.644"/>
	</g>
</svg>
