<?xml version="1.0" encoding="utf-8"?>
<!-- Generator: Adobe Illustrator 15.0.0, SVG Export Plug-In . SVG Version: 6.00 Build 0)  -->
<!DOCTYPE svg PUBLIC "-//W3C//DTD SVG 1.1//EN" "http://www.w3.org/Graphics/SVG/1.1/DTD/svg11.dtd">
<svg
    version="1.1"
    id="Layer_1"
    xmlns="http://www.w3.org/2000/svg"
    xmlns:xlink="http://www.w3.org/1999/xlink"
    x="0px" y="0px"
	width="955.486px"
    height="608.644px"
    viewBox="0 -18.356 955.486 608.644"
    enable-background="new 0 -18.356 955.486 608.644"
	xml:space="preserve"
>
	<defs>
		<image id="clinton-logo" xlink:href="images/clinton.svg" width="53.79" height="83.29"></image>
		<image id="sanders-logo" xlink:href="images/sanders.svg" width="54" height="82.99"></image>
	</defs>

	<g id="StatePolys">
	    <path id="WA" fill="#FFD0D0" d="M117.117,13.659l4.219,1.406l9.375,2.656
                    l8.281,1.875l19.375,5.469l22.188,5.469l15.584,3.591l-0.971,3.755l-3.646,13.037l-4.309,20.108l-3.536,15.91l-0.185,9.375
                    l-13.516-3.298l-14.584-3.425l-14.916,0.109l-0.442-1.326l-5.303,1.989l-4.309-0.553l-2.32-1.547l-1.215,0.663l-4.53-0.222
                    l-1.658-1.326l-5.082-1.988l-0.773,0.109l-4.199-1.436l-1.878,1.768l-5.966-0.332l-5.745-3.977l0.663-0.773l0.221-7.513
                    l-2.21-3.756l-3.977-0.553l-0.663-2.432l-2.275-0.45l-1.854-1.448l-1.719,0.938l-2.188-2.813l0.313-2.813l2.656-0.313l1.563-3.906
                    l-2.5-1.094l0.156-3.595l4.219-0.625l-2.656-2.655l-1.406-6.873l0.625-2.813v-7.655l-1.719-3.125l2.188-9.063l2.031,0.469
                    l2.344,2.813l2.656,2.5l3.125,1.875l4.375,2.031l2.969,0.625l2.813,1.405l3.281,0.938l2.188-0.156v-2.344l1.25-1.094l2.031-1.25
                    l0.313,1.094l0.313,1.719l-2.188,0.469l-0.313,2.031l1.719,1.406l1.094,2.344l0.625,1.875l1.406-0.156l0.156-1.25l-0.938-1.25
                    l-0.469-3.125l0.781-1.719l-0.625-1.406v-2.188l1.719-3.438l-1.094-2.5l-2.344-4.688l0.313-0.781L117.117,13.659L117.117,13.659z
                     M107.977,19.437l1.953-0.156l0.469,1.328l1.484-1.563h2.266l0.781,1.483l-1.484,1.642l0.625,0.78l-0.703,1.953l-1.328,0.392
                    c0,0-0.859,0.077-0.859-0.234c0-0.313,1.406-2.5,1.406-2.5l-1.641-0.547l-0.313,1.406l-0.703,0.625l-1.484-2.188L107.977,19.437
                    L107.977,19.437z"/>

        <path id="OR" fill="#F2D0FF" d="M162.906,178.748l4.309-17.457l4.198-17.125
                    l1.326-4.088l2.431-5.745l-1.215-2.21l-2.431,0.11l-0.773-0.994l0.442-1.104l0.332-2.983l4.309-5.303l1.768-0.442l1.104-1.104
                    l0.553-3.095l0.884-0.662l3.756-5.636l3.757-4.197l0.221-3.646l-3.314-2.541l-1.013-4.049l-13.571-3.464l-14.584-3.425
                    l-14.916,0.109l-0.442-1.326l-5.303,1.989l-4.309-0.552l-2.32-1.547l-1.215,0.663l-4.53-0.222l-1.658-1.325l-5.082-1.989
                    l-0.773,0.109l-4.199-1.436l-1.878,1.768l-5.966-0.332l-5.745-3.977l0.663-0.773l0.221-7.513l-2.21-3.756l-3.977-0.553
                    l-0.663-2.432l-2.275-0.45l-5.604,1.989l-2.188,6.25l-3.125,9.688l-3.125,6.25l-4.844,13.594l-6.25,13.125l-7.813,12.188
                    l-1.875,2.813l-0.781,8.281l-1.25,5.781l2.152,4.34l6.815,2.331l11.049,2.873l7.292,1.988l12.153,3.979l13.037,3.313l13.038,3.758
                     M162.627,179.138l-45.351-10.691l32.483,7.87l13.258,2.873"/>

        <path id="CA" fill="#D7FFD0" d="M159.461,381.939l3.998-0.78l1.436-2.102
                    l0.553-2.651l-3.536-0.553l-0.442-0.772l0.442-1.656l0.11-5.635l1.989-0.664l2.762-2.649l0.552-4.751l1.437-3.535l1.878-1.879
                    l3.315-1.657l1.546-1.323l0.111-2.211l-0.995-0.554l-0.773-0.994l-1.215-5.635l-2.651-4.751l0.559-3.158l-2.438-3.14
                    l-14.032-21.986l-18.782-28.063l-21.987-32.703l-11.967-17.96l1.582-6.348l6.74-25.081l7.844-30.383l-13.037-3.536l-13.037-3.313
                    l-12.154-3.979l-7.292-1.989l-11.048-2.872l-6.815-2.331l-1.527,4.565l-0.156,7.188l-5,11.405l-2.969,2.5l-0.313,1.095l-1.719,0.78
                    l-1.406,4.063l-0.781,3.125l2.656,4.063l1.563,4.063l1.094,3.438l-0.313,6.25l-1.72,2.968l-0.625,5.625l-0.938,3.594l1.719,3.75
                    l2.656,4.375l2.188,4.688l1.25,3.905l-0.313,3.125l-0.313,0.47v2.03l5.469,6.095l-0.468,2.343l-0.625,2.188l-0.625,1.875
                    l0.156,7.97l2.031,3.594l1.875,2.5l2.656,0.469l0.938,2.656l-1.094,3.438l-2.031,1.563h-1.094l-0.78,3.746l0.469,2.813l3.125,4.22
                    l1.563,5.155l1.406,4.531l1.25,2.969l3.281,5.625l1.406,2.5l0.469,2.813l1.563,0.938v2.346l-0.781,1.875l-1.719,6.875l-0.469,1.875
                    l2.344,2.656l4.063,0.469l4.375,1.72l3.75,2.03h2.813l2.813,2.97l2.5,4.688l1.094,2.188l3.75,2.029l4.688,0.781l1.406,2.03
                    l0.625,3.125l-1.406,0.625l0.313,0.938l3.125,0.779l2.656,0.155l2.813,4.531l3.75,4.063l0.781,2.188l2.5,4.063l0.313,3.125v9.063
                    l0.469,1.719l9.688,1.406l19.063,2.655L159.461,381.939L159.461,381.939z M73.836,333.267l1.25,1.482l-0.156,1.25l-3.125-0.076
                    l-0.547-1.174l-0.625-1.404L73.836,333.267L73.836,333.267z M75.711,333.267l1.172-0.625l3.438,2.031l2.969,1.172l-0.859,0.625
                    l-4.375-0.233l-1.563-1.563L75.711,333.267z M95.711,352.409l1.719,2.267l0.781,0.938l1.484,0.548l0.547-1.404l-0.938-1.721
                    l-2.578-1.953l-1.016,0.155L95.711,352.409L95.711,352.409z M94.305,360.767l1.719,3.047l1.172,1.875l-1.406,0.234l-1.25-1.174
                    c0,0-0.703-1.404-0.703-1.797c0-0.392,0-2.107,0-2.107L94.305,360.767L94.305,360.767z"/>

        <path id="NV" fill="#FFD0D0" d="M162.626,179.138l20.278,4.359l9.391,1.878l8.949,1.769
                    l7.79,2.044l-1.16,5.358l-3.425,16.903l-3.646,19.777l-1.878,8.619l-2.1,13.146l-3.204,16.021l-3.093,14.694l-1.903,10.149
                    l-2.848,17.141l-0.442,0.441l-1.657,2.541l-2.431-0.109l-1.215-2.649l-2.652-0.332l-0.884-1.104h-0.884l-0.884,0.553l-1.878,0.994
                    l-0.11,6.739l-0.221,1.656l-0.552,12.153l-1.433,2.123l-2.434-3.117l-14.032-21.986l-18.782-28.063l-21.987-32.704l-11.967-17.96
                    l1.582-6.348l6.74-25.081l7.624-30.298l32.483,7.87l13.258,2.873"/>

        <path id="ID" fill="#D7FFD0" d="M162.626,179.138
                    l4.589-17.848l4.198-17.125l1.326-4.088l2.431-5.745l-1.215-2.21l-2.431,0.11l-0.773-0.994l0.442-1.104l0.332-2.983l4.309-5.303
                    l1.768-0.442l1.104-1.104l0.553-3.095l0.884-0.662l3.756-5.636l3.757-4.197l0.221-3.646l-3.314-2.541l-1.271-4.254l0.387-9.336
                    l3.536-15.91l4.309-20.107l3.646-13.038l0.737-3.677l13.646,2.6l-4.329,20.633l3.315,7.292l-1.326,4.419l1.768,4.419l3.093,1.326
                    l3.536,9.943l3.536,3.535l0.442,1.105l3.314,1.104l0.442,1.988l-6.85,17.016v2.431l2.431,3.094h0.884l4.64-2.873l0.663-1.104
                    l1.547,0.663l-0.221,5.083l2.652,12.152l2.873,2.432l0.884,0.662l1.768,2.209l-0.442,3.315l0.663,3.314l1.105,0.884l2.209-2.21
                    h2.652l3.093,1.547l2.431-0.884h3.977l3.536,1.547l2.652-0.442l0.442-2.873l2.873-0.663l1.326,1.326l0.442,3.094l2.542,1.989
                    l-3.646,23.645l-4.972,29.278l-4.64-0.772l-8.065-1.326l-9.944-1.768l-11.601-1.989l-12.264-2.266l-7.734-1.934l-8.949-1.768
                    l-9.391-1.879L162.626,179.138L162.626,179.138z"/>

		<path id="UT" fill="#F2D0FF" d="M271.956,308.016
                    l-24.749-3.979l-26.296-4.42l-32.384-5.974l2.001-9.937l3.094-14.694l3.204-16.021l2.1-13.146l1.878-8.618l3.646-19.777
                    l3.425-16.903l1.077-5.387l12.292,2.183l11.601,1.988l9.944,1.769l8.065,1.326l4.64,0.772l-1.59,10.274l-1.614,11.491l6.306,0.896
                    l16.323,2.21l8.867,1.137l-2.99,21.389l-3.094,21.654l-3.627,27.051l-1.455,10.735L271.956,308.016L271.956,308.016z"/>

        <path id="AZ" fill="#FFFFD0" d="M159.813,382.04
                    l-2.54,2.086l-0.313,1.406l0.469,0.938l18.281,10.313l11.719,7.347l14.219,8.278l16.25,9.688l11.875,2.344l25.838,3.391
                    l1.98-12.861l3.627-26.021l6.731-51.422l4.115-29.771l-24.859-3.713l-26.296-4.42l-32.31-6.104l-2.824,17.485l-0.442,0.438
                    l-1.657,2.541l-2.431-0.108l-1.215-2.65l-2.652-0.332l-0.884-1.104h-0.884l-0.884,0.553l-1.878,0.994l-0.11,6.737l-0.221,1.658
                    l-0.552,12.151l-1.437,2.101l-0.552,3.204l2.651,4.751l1.215,5.636l0.773,0.993l0.995,0.554l-0.111,2.211l-1.546,1.323
                    l-3.315,1.658l-1.878,1.879l-1.437,3.534l-0.552,4.751l-2.762,2.649l-1.989,0.664l-0.11,5.636l-0.442,1.655l0.442,0.772
                    l3.535,0.554l-0.552,2.651l-1.436,2.101L159.813,382.04L159.813,382.04z"/>

        <path id="MT" fill="#FFFFD0" d="M372.186,126.157
                    l0.779-11.243l2.185-24.112l1.326-14.584l1.218-13.754l-30.891-3.18l-28.279-3.438l-28.281-3.906l-31.25-5.156l-17.813-3.28
                    l-31.628-6.701l-4.329,20.633l3.315,7.292l-1.326,4.419l1.768,4.42l3.093,1.326l3.536,9.944l3.536,3.534l0.442,1.105l3.314,1.104
                    l0.442,1.989l-6.85,17.015v2.432l2.431,3.094h0.884l4.64-2.873l0.663-1.104l1.547,0.663l-0.221,5.083l2.652,12.152l2.873,2.432
                    l0.884,0.662l1.768,2.209l-0.442,3.315l0.663,3.314l1.105,0.884l2.209-2.209h2.652l3.093,1.546l2.431-0.884h3.978l3.536,1.547
                    l2.652-0.442l0.442-2.873l2.873-0.663l1.326,1.326l0.442,3.093l2.496,2.405l1.482-11.022l19.225,2.872l27.4,3.979l15.689,1.989
                    l31.014,3.185l11.088,1.163l1.639-15.376L372.186,126.157L372.186,126.157z"/>

        <path id="WY" fill="#FFD0D0" d="M370.002,146.628
                    l-11.127-0.936l-31.014-3.185l-15.689-1.989l-27.4-3.979l-19.225-2.872l-1.372,10.802l-3.71,23.449l-5.083,29.389l-1.48,10.164
                    l-1.614,11.491l6.306,0.896l16.323,2.21l8.535,1.137l19.881,2.386l36.02,3.978l23.644,1.989l4.199-42.869l1.546-24.528
                    L370.002,146.628L370.002,146.628z"/>

        <path id="CO" fill="#D7FFD0" d="M389.733,319.505l3.977-63.64l1.548-21.654l-32.263-2.651
                    l-23.644-1.989l-36.02-3.978l-19.998-2.432l-2.541,21.435l-3.094,21.654l-3.627,27.051l-1.455,10.735l-0.553,3.756l33.256,3.979
                    l35.702,4.279l31.667,2.129l6.436,0.662l11.05,0.554"/>

        <path id="NM" fill="#FFD0D0" d="M301.023,424.284l-0.784-4.679l7.732,0.663l28.063,2.651l28.063,1.547
                    l2.209-22.98l3.758-53.694l1.547-18.118l1.326,0.026l-0.016-11.326l-31.899-2.32l-35.702-4.279l-33.312-3.979l-4.06,29.729
                    l-6.731,51.423l-3.627,26.021l-1.98,12.864l14.943,1.923l1.25-9.688l16.094,2.5L301.023,424.284L301.023,424.284z"/>

        <path id="ND" fill="#D7FFD0" d="M482.983,131.681
                    l-0.664-8.176l-1.77-7.071l-1.768-13.038l-0.441-9.501l-1.769-3.314l-1.547-4.86v-9.944l0.663-3.756l-1.892-5.315l-28.4-0.545
                    l-17.971-0.625l-25.625-1.25l-24.11-1.82l-1.22,13.754l-1.324,14.584l-2.185,24.112l-0.625,11.737l54.294,3.483L482.983,131.681
                    L482.983,131.681z"/>

        <path id="SD" fill="#F2D0FF" d="M484.425,204.666
                    l-0.922-1.975l-1.625-2.729l1.77-4.198l1.325-5.524l-2.651-1.989l-0.439-2.65l0.884-2.432h1.769l0.443-6.629l-0.225-29.389
                    l-0.439-2.873l-3.979-3.313l-1.104-1.769v-1.547l1.986-1.546l1.326-1.326l0.33-3.093l-56.236-1.547l-54.294-3.757l-0.739,5.103
                    l-1.562,15.337l-1.3,17.346l-1.546,24.859l15.024,0.995l19.444,1.104l17.236,1.105l22.979,1.104l10.388-0.441l1.986,2.209
                    l4.643,2.873l1.104,0.884l4.197-1.326l3.756-0.441l2.652-0.222l1.769,1.326l4.86,1.547l2.872,1.547l0.441,1.547l0.885,1.988h1.768
                    L484.425,204.666L484.425,204.666z"/>

        <path id="NE" fill="#FFFFD0" d="M495.8,245.922l1.324,2.431
                    l-0.221,2.209l2.43,3.756l3.096,3.979h-5.967l-42.646-0.442l-39.112-1.326l-21.103-0.772l1.655-21.545l-32.263-2.651l4.199-42.537
                    l15.024,0.995l19.444,1.104l17.236,1.104l22.979,1.104l10.386-0.441l1.988,2.209l4.643,2.873l1.104,0.884l4.197-1.326l3.756-0.441
                    l2.652-0.222l1.768,1.326l4.861,1.547l2.872,1.547l0.441,1.548l0.883,1.988h1.77l1.547-0.11l1.105,5.192l2.65,7.292l0.883,4.642
                    l2.211,3.536l0.662,5.081l1.548,3.979l0.222,6.408l1.873,5.316"/>

        <path id="KS" fill="#FFD0D0" d="M514.138,322.378l-12.814,0.662
                    l-44.856-0.44l-43.529-1.988l-23.342-1.216l4.007-63.64l21.103,0.772l39.112,1.326l42.646,0.442h5.854l2.982,2.651l2.209,0.222
                    l1.326,0.884v2.873l-1.77,1.547l-0.441,2.21l1.988,3.313l2.432,2.873l2.434,1.769l1.324,11.27L514.138,322.378L514.138,322.378z"/>

        <path id="OK" fill="#FFFFD0" d="M389.456,319.286l-10.331-0.441
                    l-6.215-0.471l0.249,0.192l-0.523,11.158l21.075,1.051l30.052,1.104l-1.324,22.979l-0.442,17.235l0.222,1.547l4.198,3.536
                    l1.988,1.104l0.663-0.222l0.663-1.987l1.324,1.768h1.988v-1.324l2.65,1.324l-0.44,3.758l3.979,0.222l2.431,1.104l3.979,0.664
                    l2.431,1.768l2.21-1.988l3.313,0.662l2.433,3.314h0.884v2.21l2.21,0.663l2.209-2.21l1.771,0.663h2.431l0.884,2.431l4.642,1.769
                    l1.325-0.664l1.77-3.978h1.104l1.104,1.989l3.979,0.662l3.533,1.326l2.873,0.883l1.77-0.883l0.662-2.434h4.197l1.99,0.887
                    l2.648-1.988h1.104l0.664,1.547h3.979l1.547-1.989l1.77,0.442l1.988,2.431l3.094,1.769l3.094,0.883l2.652,1.55l-0.225-36.902
                    l-1.322-10.604v-7.955l-1.549-6.629l-0.441-6.629l-0.221-4.312l-12.816,0.771l-44.855-0.438l-43.53-1.987L389.456,319.286
                    L389.456,319.286z"/>

        <path id="TX" fill="#D7FFD0" d="M371.779,329.726l21.931,1.05
                    l30.053,1.104l-1.324,22.979l-0.442,17.234l0.222,1.547l4.198,3.536l1.988,1.104l0.663-0.222l0.663-1.989l1.324,1.771h1.987v-1.326
                    l2.651,1.326l-0.44,3.756l3.979,0.221l2.431,1.105l3.979,0.662l2.431,1.769l2.21-1.989l3.313,0.664l2.433,3.313h0.884v2.211
                    l2.21,0.662l2.209-2.209l1.771,0.662h2.431l0.885,2.433l4.643,1.768l1.324-0.661l1.77-3.979h1.104l1.104,1.989l3.978,0.662
                    l3.535,1.324l2.873,0.885l1.769-0.885l0.663-2.431h4.197l1.988,0.884l2.651-1.988h1.104l0.662,1.549h3.979l1.548-1.989l1.769,0.44
                    l1.988,2.433l3.094,1.768l3.094,0.886l2.652,1.217l2.209,1.878l2.873-1.326l2.65,1.104l0.648,10.729l0.014,9.378l0.662,9.062
                    l0.664,3.758l2.432,3.977l0.885,4.862l4.197,5.303l0.223,3.095l0.661,0.662l-0.661,8.178l-2.873,4.859l1.547,1.988l-0.662,2.432
                    l-0.664,7.07l-1.324,3.094l0.273,3.465l-6.252,1.688l-9.531,4.375l-0.938,1.875l-2.5,1.875l-2.03,1.405l-1.25,0.78l-5.47,5.155
                    l-2.655,2.031l-5.156,3.125l-5.469,2.344l-6.095,3.281l-1.72,1.405l-5.625,3.438l-3.28,0.625l-3.75,5.313l-3.905,0.313
                    l-0.938,1.875l2.188,1.875l-1.406,5.313l-1.25,4.375l-1.094,3.75l-0.781,4.375l0.781,2.345l1.719,6.719l0.938,5.938l1.72,2.655
                    l-0.938,1.405l-2.97,1.875l-5.469-3.75l-5.313-1.094l-1.25,0.469l-3.125-0.625l-4.063-2.969l-5-1.095l-7.346-3.28l-2.029-3.75
                    l-1.25-6.25l-3.124-1.877l-0.625-2.188l0.625-0.625l0.313-3.279l-1.25-0.625l-0.625-0.938l1.25-4.219l-1.563-2.188l-3.125-1.25
                    l-3.281-4.22l-3.438-6.405l-4.063-2.5l0.156-1.875l-5.156-11.875l-0.78-4.063l-1.72-1.875l-0.155-1.406l-5.779-5.155l-2.5-2.97
                    v-1.094l-2.5-2.031l-6.563-1.094l-7.188-0.625l-2.97-2.188l-4.375,1.722l-3.438,1.403l-2.188,3.125l-0.938,3.597l-4.22,5.938
                    l-2.345,2.345l-2.5-0.938l-1.72-1.095l-1.875-0.625l-3.75-2.188v-0.625l-1.719-1.875l-5-2.031l-7.188-7.5l-2.188-4.528v-7.813
                    l-3.125-6.25l-0.47-2.656l-1.563-0.938l-1.094-2.031l-4.846-2.031l-1.25-1.563l-6.875-7.656l-1.25-3.125l-4.529-2.188l-1.406-4.221
                    l-2.5-2.813l-1.875-0.469l-0.627-4.521l7.734,0.663l28.063,2.651l28.063,1.547l2.209-22.98l3.757-53.694l1.547-18.119l1.326,0.027
                     M468.604,555.845l-0.547-6.875l-2.656-6.953l-0.547-6.797l1.482-7.969l3.202-6.644l3.359-5.231l3.047-3.438l0.625,0.234
                    l-4.608,6.404l-4.22,6.327l-1.953,6.406l-0.313,5l0.857,5.938l2.5,6.951l0.469,5l0.156,1.405L468.604,555.845z"/>

        <path id="MN" fill="#FFD0D0" d="M482.763,131.681l-0.441-8.176l-1.77-7.071l-1.768-13.038l-0.441-9.501
                    l-1.769-3.314l-1.547-4.86v-9.944l0.663-3.756l-1.762-5.271l29.124,0.034l0.313-7.969l0.625-0.156l2.188,0.47l1.875,0.78
                    l0.779,5.313l1.406,5.938l1.563,1.563h4.688l0.313,1.406l6.096,0.313v2.031h4.688l0.314-1.25l1.094-1.094l2.188-0.625l1.25,0.938
                    h2.813l3.75,2.5l5.156,2.344l2.344,0.47l0.469-0.938l1.406-0.469l0.469,2.813l2.5,1.25l0.472-0.469l1.25,0.156v2.031l2.5,0.938
                    h2.97l1.563-0.781l3.125-3.125l2.5-0.469l0.781,1.719l0.469,1.25h0.938l0.938-0.78l8.598-0.313l1.719,2.969h0.625l0.688-1.048
                    l4.291-0.357l-0.592,2.203l-3.809,1.775l-8.938,3.925l-4.614,1.94l-2.97,2.5l-2.344,3.438l-2.188,3.75l-1.72,0.781l-4.375,4.844
                    l-1.25,0.156l-3.28,2.969l0.664,0.525l-2.724,2.617l-0.221,2.65v8.177l-1.104,1.546l-5.084,3.757l-2.209,5.745l0.441,0.221
                    l2.43,1.989l0.664,3.093l-1.768,3.094v3.756l0.439,6.408l2.871,2.873h3.314l1.768,3.094l3.314,0.442l3.758,5.524l6.85,3.978
                    l1.988,2.651l0.885,7.292h-3.979l-17.455,0.663l-47.951,0.663h-11.16l0.556-6.63l-0.224-29.389l-0.44-2.873l-3.979-3.313
                    l-1.104-1.769v-1.547l1.987-1.546l1.326-1.326L482.763,131.681L482.763,131.681z"/>

        <path id="IA" fill="#D7FFD0" d="M575.292,202.17l0.059,1.768l2.211,0.663l0.883,1.104
                    l0.439,1.769l3.76,3.313l0.66,2.21l-0.66,3.314l-1.771,3.536l-0.662,2.431l-2.211,1.769l-1.768,0.663l-5.082,1.325l-0.662,1.769
                    l-0.664,1.989l0.664,1.325l1.768,1.546l-0.221,3.979l-1.771,1.547l-0.66,1.547v2.652l-1.77,0.441l-1.547,1.104l-0.223,1.326
                    l0.223,1.988l-1.658,1.713l-3.203-3.26l-1.104-2.21l-7.512,0.663l-9.504,0.442l-24.527,0.884l-13.037,0.221l-9.061,0.222
                    l-1.053,0.116l-1.6-5.198l-0.225-6.408l-1.545-3.979l-0.664-5.083l-2.209-3.534l-0.885-4.642l-2.648-7.292l-1.105-5.192l-1.324-2.1
                    l-1.549-2.651l1.771-4.198l1.322-5.524l-2.648-1.988l-0.441-2.651l0.885-2.431h1.656h11.158l47.951-0.663l17.457-0.663l3.979-0.11
                    l0.662,3.204l2.209,1.547l0.223,1.326l-1.988,3.313l0.221,3.095l2.432,3.756l2.434,1.104l2.873,0.442L575.292,202.17
                    L575.292,202.17z"/>

        <path id="MO" fill="#F2D0FF" d="M564.521,248.795l-3.094-3.095l-1.104-2.21
                    l-7.514,0.663l-9.502,0.442l-24.527,0.884l-13.037,0.221l-7.623,0.11l-2.211,0.11l1.217,2.431l-0.223,2.21l2.432,3.756l2.982,3.979
                    l2.982,2.651l2.209,0.222l1.326,0.884v2.873l-1.77,1.546l-0.441,2.21l1.988,3.313l2.432,2.873l2.434,1.769l1.324,11.27
                    l-0.663,34.141l0.222,4.531l0.441,6.629l22.539-0.44l22.54-0.664l20.107-0.884l10.604-0.441l1.77,2.872l-0.441,2.21l-3.094,2.65
                    l-0.662,2.871l5.967,0.441l4.859-0.662l1.99-6.188l-0.141-5.439l2.789-1.408l1.326-1.547l1.988-1.104l0.221-3.095l0.885-1.769
                    l-1.325-2.349l-2.873,0.357l-1.769-1.986l-1.547-3.979l0.885-2.873l-1.987-3.095l-1.989-4.859l-4.418-0.664l-6.188-5.082
                    l-2.211-3.757l0.662-3.094l2.211-5.745l0.662-3.536l-2.65-1.325l-6.188-0.442l-0.885-1.326l0.221-4.198l-5.303-3.536l-7.07-7.292
                    l-2.211-7.07l-0.441-3.535L564.521,248.795L564.521,248.795z"/>

        <path id="AR" fill="#FFD0D0" d="M598.837,340.917l-4.705,0.906l-5.967-0.441l0.662-2.872
                    l3.094-2.652l0.441-2.209l-1.77-2.873l-10.604,0.442l-20.107,0.884l-22.539,0.663l-22.539,0.439l1.545,6.629v7.955l1.326,10.605
                    l0.223,36.57l2.211,1.879l2.873-1.326l2.648,1.104l0.638,10.855l21.462-0.027l18.563-0.885l10.439,0.139l1.438-2.566l-0.387-4.198
                    l-1.326-2.872l1.326-1.326l-1.326-1.988l0.441-1.768l0.885-5.967l2.871-2.652l-0.662-1.986l3.535-5.082l2.65-0.887v-2.43
                    l-0.664-1.326l2.652-5.082l2.65-1.104l-0.287-3.532l2.371-1.091l0.938-4.531l-1.406-3.438l3.906-2.188l0.313-2.5l1.305-4.233
                    L598.837,340.917L598.837,340.917z"/>

        <path id="MS" fill="#F2D0FF" d="M631.208,458.851l-1.121,1.214h-5l-1.404-0.78
                    l-2.031-0.313l-6.563,1.875l-1.721-0.781l-2.5,4.063l-1.064,0.752l-1.086-2.404l-1.104-3.757l-3.313-3.095l1.104-7.291
                    l-0.664-0.887l-1.77,0.224l-7.953,0.663l-23.424,0.661l-0.439-1.547l0.662-7.732l3.313-5.966l5.082-8.841l-0.885-1.987h1.104
                    l0.662-3.095l-2.209-1.77l0.223-1.769l-1.988-4.421l-0.275-5.166l1.324-2.565l-0.387-4.198l-1.326-2.873l1.326-1.322l-1.326-1.99
                    l0.443-1.77l0.883-5.966l2.873-2.649l-0.662-1.988l3.535-5.084l2.648-0.883v-2.434l-0.662-1.324l2.65-5.084l2.652-1.104
                    l0.104-3.297l8.387-0.075l23.279-1.875l5.308-0.222l0.009,6.158l0.154,16.094l-0.779,30.001l-0.156,13.594l2.656,18.125
                    L631.208,458.851L631.208,458.851z"/>

        <path id="LA" fill="#FFFFD0" d="M609.93,464.674l-1.215-2.199l-1.104-3.757l-3.313-3.095
                    l1.104-7.291l-0.664-0.886l-1.77,0.223l-7.955,0.663l-23.422,0.661l-0.439-1.547l0.662-7.732l3.313-5.966l5.082-8.841l-0.885-1.987
                    h1.104l0.662-3.095l-2.209-1.77l0.223-1.769l-1.988-4.42l-0.332-5.305h-10.496l-18.563,0.885l-21.462,0.026l0.026,9.254
                    l0.662,9.063l0.662,3.757l2.432,3.978l0.886,4.861l4.198,5.303l0.223,3.095l0.66,0.663l-0.66,8.178l-2.873,4.859l1.547,1.988
                    l-0.662,2.432l-0.664,7.069l-1.326,3.095l0.119,3.495l4.529-1.47l7.813-0.313l10,3.438l6.25,1.094l3.595-1.405l3.125,1.096
                    l3.125,0.938l0.78-2.03l-3.125-1.095l-2.5,0.47l-2.655-1.563c0,0,0.155-1.25,0.78-1.406c0.625-0.155,2.97-0.938,2.97-0.938
                    l1.72,1.404l1.719-0.938l3.125,0.625l1.406,2.344l0.313,2.188l4.375,0.313l1.72,1.72l-0.78,1.563l-1.25,0.781l1.563,1.563
                    l8.125,3.438l3.438-1.25l0.938-2.346l2.5-0.625l1.72-1.404l1.25,0.938l0.78,2.813l-2.188,0.779l0.625,0.625l3.28-1.25l2.188-3.279
                    l0.781-0.471l-2.031-0.313l0.781-1.563l-0.156-1.404l2.031-0.471l1.094-1.25l0.625,0.78c0,0-0.156,2.97,0.625,2.97
                    s4.063,0.625,4.063,0.625l3.905,1.875l0.938,1.405h2.813l1.095,0.938l2.188-2.971v-1.404h-1.25l-3.281-2.656l-5.625-0.781
                    l-3.125-2.188l1.095-2.656l2.188,0.313l0.156-0.625l-1.72-0.938v-0.469h3.125l1.72-2.971l-1.25-1.875l-0.313-2.654l-1.405,0.154
                    l-1.875,2.03l-0.625,2.5l-2.97-0.625l-0.938-1.719l1.719-1.875l1.953-1.719L609.93,464.674L609.93,464.674z"/>

        <path id="WI" fill="#FFFFD0" d="M619.321,199.297l0.141-4.077l-1.563-4.375
                    l-0.625-5.938l-1.096-2.344l0.938-2.969l0.781-2.813l1.404-2.5l-0.625-3.28l-0.625-3.438l0.471-1.719l1.875-2.344l0.154-2.656
                    l-0.779-1.25l0.625-2.5l0.469-3.125l2.656-5.469l2.813-6.563l0.156-2.188l-0.313-0.938l-0.779,0.469l-4.063,6.094l-2.656,3.906
                    L616.805,151l-0.779,2.188l-1.406,0.781l-1.094,1.878l-1.406-0.313l-0.156-1.719l1.25-2.344l2.031-4.531l1.719-1.563l1.064-2.216
                    l-1.576-0.875l-1.326-1.325l-1.547-9.944l-3.535-1.105l-1.326-2.209l-12.15-2.651l-2.434-1.105l-7.955-2.209l-7.953-1.104
                    l-4.029-5.225l-0.512,1.22l-1.096-0.156l-0.625-1.094l-2.654-0.781l-1.096,0.156l-1.719,0.938l-0.939-0.628l0.625-1.875
                    l1.875-2.969l1.096-1.094l-1.875-1.406l-2.031,0.781l-2.813,1.875l-7.188,3.125l-2.813,0.625l-2.813-0.47l-0.949-0.849
                    l-2.047,2.741l-0.221,2.65v8.177l-1.104,1.547l-5.082,3.757l-2.209,5.745l0.439,0.221l2.432,1.989l0.662,3.094l-1.768,3.094v3.756
                    l0.439,6.408l2.873,2.873h3.314l1.768,3.094l3.314,0.442l3.756,5.524l6.852,3.978l1.988,2.651l0.885,7.182l0.662,3.204l2.211,1.547
                    l0.222,1.326l-1.987,3.313l0.221,3.095l2.433,3.756l2.431,1.104l2.873,0.442l1.188,2.431h8.867l25.742-1.547L619.321,199.297
                    L619.321,199.297z"/>

        <path id="IL" fill="#FFD0D0" d="M624.462,299.124v-3.592l0.469-4.375l2.188-2.813l1.721-3.75
                    l2.5-4.063l-0.471-5.625l-1.719-2.655l-0.313-3.125l0.781-5.313l-0.469-6.719l-1.25-15.469l-1.25-14.845l-0.783-11.25l-1.25-0.78
                    l-0.779-2.5l-1.25-3.595l-1.563-1.719l-1.406-2.5l-0.225-5.305l-9.572,1.268l-26.295,1.658l-8.396-0.415l0.223,2.292l2.211,0.663
                    l0.883,1.104l0.439,1.769l3.76,3.313l0.66,2.21l-0.66,3.314l-1.771,3.536l-0.662,2.431l-2.211,1.769l-1.768,0.662l-5.082,1.326
                    l-0.662,1.769l-0.664,1.988l0.664,1.326l1.768,1.547l-0.221,3.978l-1.768,1.547l-0.664,1.547v2.652l-1.77,0.441l-1.547,1.105
                    l-0.223,1.326l0.223,1.988l-1.656,1.271l-0.996,2.707l0.441,3.536l2.211,7.071l7.07,7.292l5.303,3.535l-0.221,4.198l0.885,1.326
                    l6.188,0.442l2.65,1.325l-0.662,3.536l-2.211,5.745l-0.662,3.094l2.209,3.758l6.189,5.08l4.418,0.664l1.99,4.859l1.984,3.095
                    l-0.883,2.872l1.547,3.979l1.77,1.986l2.865-0.326l0.557-1.979l2.188-1.72l2.031-0.625l2.656,1.25l3.438,1.25l1.096-0.313
                    l0.154-2.188l-1.25-2.346l0.313-2.188l1.875-1.406l2.5-0.625l1.563-0.625l-0.777-1.719l-0.625-1.875l1.094-0.781L624.462,299.124
                    L624.462,299.124z"/>

        <path id="MI" fill="#D7FFD0" d="M588.829,86.821l1.771-1.989l2.1-0.772l5.189-3.757l2.213-0.553
                    l0.439,0.442l-4.973,4.972l-3.205,1.879l-1.986,0.884L588.829,86.821L588.829,86.821z M672.12,117.874l0.625,2.423l3.125,0.155
                    l1.25-1.172c0,0-0.078-1.406-0.391-1.563c-0.314-0.157-1.564-1.797-1.564-1.797l-2.105,0.233l-1.564,0.156l-0.313,1.094
                    L672.12,117.874z M701.18,178.814l-3.125-7.969l-2.188-8.75l-2.344-3.125l-2.5-1.719l-1.563,1.094l-3.75,1.719l-1.875,4.844
                    l-2.656,3.595l-1.094,0.625l-1.406-0.625c0,0-2.5-1.406-2.344-2.031s0.469-4.844,0.469-4.844l3.281-1.25l0.781-3.281l0.625-2.5
                    l2.344-1.563l-0.313-9.688l-1.563-2.188l-1.25-0.78l-0.781-2.031l0.781-0.781l1.563,0.313l0.154-1.563l-2.344-2.188l-1.25-2.5h-2.5
                    l-4.375-1.406l-5.313-3.281h-2.656l-0.625,0.625l-0.938-0.469l-2.969-2.188l-2.813,1.719l-2.813,2.188l0.313,3.438l0.938,0.313
                    l2.031,0.469l0.469,0.781l-2.5,0.781l-2.5,0.313l-1.406,1.72l-0.313,2.03l0.313,1.563l0.313,5.313l-3.438,2.031l-0.625-0.156
                    v-4.064l1.25-2.344l0.625-2.345l-0.779-0.78l-1.875,0.78l-0.938,4.063l-2.656,1.094l-1.719,1.875l-0.156,0.938l0.625,0.78
                    l-0.625,2.5l-2.188,0.47v1.094l0.781,2.344l-1.096,5.938l-1.563,3.905l0.625,4.531l0.471,1.094l-0.78,2.345l-0.313,0.78
                    l-0.313,2.656l3.438,5.781l2.813,6.25l1.405,4.688l-0.78,4.531l-0.938,5.781l-2.344,5l-0.313,2.656l-2.979,3.007l-0.718,0.743
                    l4.479-0.157l21.25-2.188l5.938-0.625l0.313,1.172l7.5-1.172l9.844-1.563l5.041-0.445l-1.291-1.116l0.154-1.405l2.031-3.595
                    l1.934-1.68l-0.209-4.883l1.543-1.543l1.056-0.332l0.216-3.438l1.482-2.93l1.018,0.586l0.154,0.625l0.781,0.156l1.875-0.938
                    L701.18,178.814z M574.079,115.438l1.789-1l2.656-0.781l3.438-2.188v-0.938l0.625-0.625l5.781-0.938l2.344-1.875l4.219-2.031
                    l0.156-1.25l1.875-2.813l1.719-0.78l1.25-1.72l2.188-2.188l4.221-2.344l4.529-0.47l1.096,1.095l-0.313,0.938l-3.595,0.938
                    l-1.405,2.969l-2.188,0.781l-0.469,2.344l-2.344,3.125l-0.313,2.5l0.779,0.469l0.938-1.094l3.438-2.813l1.25,1.25h2.188
                    l3.125,0.938l1.406,1.094l1.406,2.969l2.656,2.656l3.75-0.156l1.404-0.938l1.563,1.25l1.563,0.469l1.25-0.781h1.096l1.563-0.938
                    l3.904-3.438l3.281-1.094l6.404-0.313l4.375-1.875l2.5-1.25l1.406,0.155v5.47l0.469,0.313l2.813,0.781l1.875-0.469l5.938-1.563
                    l1.095-1.094l1.405,0.469v6.719l3.125,2.97l1.25,0.625l1.25,0.938l-1.25,0.313l-0.78-0.313l-3.595-0.469l-2.03,0.625l-2.188-0.156
                    l-3.125,1.406h-1.721l-5.625-1.25l-5,0.156l-1.875,2.5l-6.719,0.625l-2.346,0.78l-1.094,2.97l-1.25,1.094l-0.469-0.156
                    l-1.406-1.563l-4.375,2.344h-0.625l-1.094-1.563l-0.781,0.156l-1.875,4.219l-0.938,3.906l-3.623,7.863l-1.576-1.109l-1.326-1.326
                    l-1.547-9.943l-3.535-1.105l-1.326-2.209l-12.15-2.651l-2.434-1.105l-7.955-2.209l-7.953-1.104L574.079,115.438L574.079,115.438z"
                    />

        <path id="OH" fill="#FFD0D0" d="M734.62,195.88l-6.877,4.026l-3.75,2.188
                    l-3.281,3.594l-3.906,3.75l-3.125,0.781l-2.813,0.469l-5.313,2.5l-2.029,0.156l-3.281-2.969l-5,0.625l-2.5-1.406l-2.303-1.307
                    l-4.729,0.681l-9.844,1.563l-7.5,1.172l1.25,14.142l1.719,13.282l2.5,22.655l0.547,5.547l3.984-0.233l2.344-0.781l2.813,1.563
                    l1.563,4.219l5.625,0.313l1.72,1.72l2.03,0.155l2.345-1.405l2.97,0.469l1.25,1.406l2.655-2.5l1.72-1.25h1.563l0.625,2.655
                    l1.72,0.938l3.358,2.266l2.109-0.078l1.875-0.78l0.155-2.656l1.563-1.406l0.156-4.844l0.938-3.75l1.25-0.625l1.25,1.094l0.47,1.719
                    l1.72-0.938l0.469-1.563l-1.094-1.719v-2.344l0.938-1.25l2.188-3.281l1.25-1.406l2.03,0.47l2.188-1.563l2.969-3.281l2.188-3.75
                    l0.313-5.469l0.47-4.844v-4.531l-1.095-2.969l0.938-1.406l1.328-0.704l-1.798-10.391L734.62,195.88L734.62,195.88z"/>

        <path id="IN" fill="#F2D0FF" d="M624.618,299.282l-0.154-3.749l0.471-4.375
                    l2.188-2.813l1.719-3.75l2.5-4.063l-0.469-5.625l-1.719-2.655l-0.313-3.125l0.779-5.313l-0.469-6.719l-1.25-15.469l-1.25-14.845
                    l-0.938-11.328l2.969,0.86l1.406,0.938l1.094-0.313l2.031-1.875l2.734-1.563l4.922-0.156l21.25-2.188l5.939-0.625l0.154,1.095
                    l1.404,14.22l1.721,13.281l2.5,22.655l0.471,5.47l-0.471,2.188l1.404,1.406l0.314,1.875l-2.656,1.875l-3.75,1.719l-2.656,0.313
                    l-0.469,4.375l-4.531,3.75l-2.813,3.438l0.313,2.188l-0.781,2.03h-4.529l-1.098-1.563l-1.094,0.781l-2.813,1.563l0.156,3.28
                    l-2.031,0.469l-0.779-1.094l-1.875-1.563l-2.813,1.406l-1.721,3.124l-1.719-0.78l-1.406-1.875l-3.438,0.469l-5.625,0.938
                    L624.618,299.282L624.618,299.282z"/>

        <path id="WV" fill="#FFFFD0" d="M759.013,241.378l1.074,4.778l0.938,5.469
                    l0.313-0.313l2.029-2.344l2.188-2.97l2.346-0.155l1.404-1.406l1.721-2.5l1.25,0.625l2.813-0.313l2.5-2.03l1.939-1.405l1.783-0.469
                    l1.59,1.092l2.813,1.406l1.875,1.719l1.328,1.25l-1.016,4.844l-5.469-2.969l-4.375-1.719l-0.156,5.155l-0.469,2.031l-1.564,2.656
                    l-0.625,1.563l-2.969,2.345l-0.471,2.188l-3.279,0.313l-0.313,2.969l-1.094,5.313h-2.5l-1.25-0.78l-1.563-2.656l-1.72,0.156
                    l-0.313,4.219l-2.029,6.406l-4.844,10.469l0.78,1.25l-0.155,2.656l-2.031,1.875l-1.404-0.313l-3.125,2.345l-2.5-0.938l-1.721,4.53
                    c0,0-3.594,0.78-4.219,0.938c-0.625,0.156-2.345-1.25-2.345-1.25l-2.345,2.188l-2.5,0.625l-2.813-0.781l-1.25-1.25l-2.119-2.922
                    l-3.037-1.921l-2.5-2.656l-2.813-3.594l-0.625-2.188l-2.5-1.405l-0.78-1.563l-0.234-5.078l2.109-0.078l1.875-0.78l0.155-2.656
                    l1.563-1.406l0.156-4.844l0.938-3.75l1.25-0.625l1.25,1.094l0.47,1.719l1.72-0.938l0.469-1.563l-1.094-1.719v-2.344l0.938-1.25
                    l2.188-3.281l1.25-1.406l2.03,0.47l2.188-1.563l2.969-3.281l2.188-3.75l0.313-5.469l0.47-4.844v-4.531l-1.095-2.969l0.938-1.406
                    l1.239-1.25l3.375,19.164l4.476-0.726L759.013,241.378L759.013,241.378z"/>

        <path id="KY" fill="#D7FFD0" fill="#C1272D" d="M725.29,295.47l-3.016,3.029l-4.063,3.438
                    l-4.375,5.156l-1.719,1.719v2.031l-3.75,2.029l-5.469,3.28l-2.525,1.359l-50.131,4.733l-15.232,1.719l-4.467,0.496l-3.736-0.026
                    v3.75l-8.125,0.469l-6.721,0.625l-10.082,0.199l0.975-1.201l2.105-1.702l1.986-1.104l0.223-3.094l0.887-1.771l-1.557-2.452
                    l0.775-1.845l2.188-1.72l2.031-0.625l2.656,1.25l3.438,1.25l1.096-0.313l0.154-2.188l-1.25-2.346l0.313-2.188l1.875-1.406
                    l2.5-0.625l1.563-0.625l-0.779-1.719l-0.625-1.875l1.094-0.781l1.016-3.202l2.893-1.642l5.625-0.938l3.438-0.47l1.406,1.875
                    l1.719,0.781l1.722-3.124l2.813-1.406l1.875,1.563l0.781,1.095l2.03-0.47l-0.155-3.279l2.813-1.563l1.095-0.781l1.095,1.563h4.53
                    l0.78-2.03l-0.313-2.188l2.813-3.438l4.531-3.75l0.469-4.375l2.656-0.313l3.75-1.719l2.656-1.875l-0.316-1.871l-1.403-1.406
                    l0.548-2.109l3.98-0.233l2.347-0.781l2.813,1.563l1.563,4.219l5.625,0.313l1.72,1.72l2.03,0.155l2.345-1.405l2.969,0.469
                    l1.25,1.406l2.656-2.5l1.719-1.25h1.564l0.625,2.655l1.719,0.938l3.438,2.031l0.156,5.313l0.781,1.563l2.5,1.405l0.625,2.188
                    l2.813,3.594l2.5,2.656L725.29,295.47z"/>

        <path id="TN" fill="#FFFFD0" d="M700.399,317.409l-50.156,4.844l-15.23,1.72l-4.467,0.496
                    l-3.736-0.027v3.75l-8.125,0.47l-6.721,0.625l-10.727,0.053l-0.256,5.641l-2.066,6.064l-0.961,2.914l-1.305,4.233l-0.313,2.5
                    l-3.904,2.188l1.404,3.438l-0.938,4.221l-1.484,1.641l7.893-0.078l23.279-1.875l5.156-0.156l7.813-0.469l26.875-2.5l9.83-0.781
                    l8.139-0.938l8.125-1.094l4.688-0.781l0.313-4.688l1.719-1.405l2.656-0.625l0.625-3.595l4.063-2.655l3.75-1.406l4.063-3.438
                    l4.219-2.029l0.625-2.971l3.75-3.75l0.625-0.154c0,0,0,1.094,0.781,1.094s1.875,0.313,1.875,0.313l2.188-3.438l2.029-0.625
                    l2.189,0.313l1.563-3.438l2.813-2.5l0.469-2.031l0.172-3.801l-2.203,0.051l-2.344,1.875l-7.656,0.156l-11.594,1.838
                    L700.399,317.409L700.399,317.409z"/>

        <path id="ME" fill="#F2D0FF" d="M918.993,82.251l1.875,2.03l2.188,3.595v1.875l-2.031,4.53l-1.875,0.625
                    l-3.281,2.97l-4.688,5.313c0,0-0.625,0-1.25,0s-0.938-2.031-0.938-2.031l-1.719,0.156l-0.938,1.406l-2.346,1.406l-0.938,1.405
                    l1.563,1.406l-0.469,0.625l-0.471,2.656l-1.875-0.156V108.5l-0.313-1.25l-1.406,0.313l-1.719-3.125l-2.031,1.25l1.25,1.406
                    l0.313,1.094l-0.781,1.25l0.313,2.969l0.155,1.563l-1.563,2.5l-2.813,0.469l-0.313,2.813l-5.156,2.969l-1.25,0.469l-1.563-1.406
                    l-2.97,3.438l0.938,3.125l-1.406,1.25l-0.156,4.219l-1.521,7.366l-2.381-1.118l-0.471-2.969l-3.75-1.094l-0.313-2.656
                    l-7.031-22.656l-4.604-14.28l2.357-0.333l1.463,0.396v-2.5l0.781-5.313l2.5-4.53l1.406-3.906l-1.875-2.344v-5.781l0.779-0.938
                    l0.781-2.655l-0.156-1.406l-0.154-4.688l1.719-4.688l2.813-8.594l2.03-4.063h1.25l1.25,0.156v1.094l1.25,2.188l2.656,0.625
                    l0.781-0.781V47.41l3.905-2.813l1.72-1.72l1.405,0.156l5.78,2.344l1.875,0.938l8.75,28.906h5.779l0.781,1.875l0.155,4.688
                    l2.813,2.188h0.781l0.154-0.469l-0.469-1.095L918.993,82.251L918.993,82.251z M898.761,111.391l1.484-1.484l1.328,1.017
                    l0.547,2.344l-1.641,0.858L898.761,111.391z M905.245,105.688l1.721,1.797c0,0,1.25,0.078,1.25-0.234s0.232-1.952,0.232-1.952
                    l0.858-0.781l-0.78-1.719l-1.953,0.702L905.245,105.688z"/>

        <path id="VT" fill="#D7FFD0" d="M842.432,157.407l-0.78-5.469l-2.97-10.625L838.057,141l-2.813-1.25l0.781-2.813
                    l-0.781-2.031l-2.5-4.375l0.938-3.75l-0.78-5l-2.345-6.25l-0.778-4.758l26.246-6.96l0.313,5.624l1.875,2.656v3.905l-3.596,3.906
                    l-2.5,1.094v1.095l1.096,1.719v8.281l-0.781,8.905l-0.154,4.688l0.938,1.25l-0.155,4.375l-0.47,1.719l1.406,1.953l-6.719,1.328
                    L842.432,157.407L842.432,157.407z"/>

        <path id="NH" fill="#FFFFD0" d="M878.544,145.605l0.293-1.479l1.055-3.182l-2.457-0.883
                    l-0.471-2.969l-3.75-1.095l-0.313-2.655l-7.031-22.656l-4.444-14.056l-0.871-0.004l-0.625,1.563l-0.625-0.469l-0.938-0.938
                    l-1.404,1.875l-0.926,5.303l0.303,5.478l1.875,2.656V116l-3.596,3.906l-2.5,1.094v1.095l1.096,1.719v8.281L852.436,141
                    l-0.156,4.688l0.938,1.25l-0.156,4.375l-0.469,1.719l1.406,1.953L870.717,151l2.188-0.625l2.03-3.125L878.544,145.605
                    L878.544,145.605z"/>

        <path id="MA" fill="#FFD0D0" d="M896.532,175.541l2.1-0.662l0.441-1.657l0.994,0.11l0.994,2.209l-1.217,0.442
                    l-3.756,0.111L896.532,175.541L896.532,175.541z M887.473,176.315l2.211-2.541h1.547l1.768,1.437l-2.32,0.994l-2.1,0.994
                    L887.473,176.315L887.473,176.315z M853.839,155.063L870.714,151l2.188-0.625l2.031-3.125l3.609-1.606l2.793,4.265l-2.346,5
                    l-0.313,1.406l1.875,2.5l1.096-0.781h1.719l2.188,2.5l3.75,5.781l3.438,0.469l2.188-0.938l1.72-1.719l-0.781-2.656l-2.029-1.563
                    l-1.405,0.781l-0.938-1.25l0.471-0.469l2.029-0.156l1.721,0.781l1.875,2.344l0.938,2.813l0.313,2.344l-4.063,1.406l-3.75,1.875
                    l-3.75,4.375l-1.875,1.405v-0.938l2.344-1.406l0.469-1.719l-0.779-2.969l-2.813,1.405l-0.781,1.406l0.47,2.188l-2.653,1.405
                    l-2.656-4.375l-3.278-4.219l-1.563-1.094l-5.547,1.483l-4.923,1.017l-21.095,4.608l-0.938-5.547l0.625-10.233l5-0.859
                    L853.839,155.063"/>

        <path id="RI" fill="#F2D0FF" d="M871.493,181.314l-0.467-4.063l-0.781-4.22l-1.641-5.703
                    l5.547-1.483l1.563,1.094l3.281,4.219l2.813,4.297l-2.814,1.485l-1.25-0.156l-1.094,1.72l-2.344,1.875L871.493,181.314
                    L871.493,181.314z"/>

        <path id="CT" fill="#D7FFD0" d="M871.962,181.314l-0.938-4.063l-0.781-4.22l-1.563-5.78l-5,1.094
                    l-21.094,4.608l0.625,3.203l1.406,7.031V191l-1.094,2.188l1.771,2.038l4.789-3.287l3.438-3.125l1.875-2.031l0.779,0.625
                    l2.656-1.405l5-1.095L871.962,181.314L871.962,181.314z"/>

        <path id="NY" fill="#F2D0FF" d="M827.12,191.47l-1.094-0.938l-2.5-0.156l-2.188-1.875l-2.346-5.155
                    l-2.902-0.9l-2.252-2.069l-17.971,3.906l-41.563,8.438l-8.594,1.405l-0.715-6.69l2.588-1.746l1.25-1.094l0.938-1.563l1.719-1.094
                    l1.875-1.719l0.471-1.563l2.029-2.656l1.096-0.938l-0.156-0.938l-1.25-2.969L753.836,171l-1.875-5.938l2.813-1.719l4.219-1.406
                    l3.906-1.25l3.125-0.469l6.094-0.156l1.875,1.25l1.563,0.156l2.029-1.25l2.5-1.095l5-0.469l2.031-1.719l1.719-3.125l1.563-1.875
                    h2.03l1.875-1.094l0.155-2.188l-1.405-2.031l-0.313-1.405l1.094-2.031v-1.406h-1.719l-1.719-0.781l-0.781-1.094l-0.156-2.5
                    l5.625-5.313l0.625-0.781l1.406-2.813l2.813-4.375l2.655-3.594l2.031-2.344l2.334-1.765l2.979-1.204l5.313-1.25l3.125,0.155
                    l4.375-1.405l7.313-2.002l0.506,4.813l2.344,6.25l0.781,5l-0.939,3.75l2.5,4.375l0.781,2.031l-0.781,2.813l2.814,1.25l0.625,0.313
                    l2.969,10.625l0.469,5l-0.468,10.469l0.781,5.313l0.779,3.438l1.404,7.031v7.813l-1.094,2.188l1.775,1.926l-0.217,1.513
                    l-1.875,1.72l0.313,1.25l1.25-0.313l1.406-1.25l2.188-2.5l1.096-0.625l1.563,0.625l2.188,0.156l7.656-3.75l2.813-2.656l1.25-1.406
                    l4.063,1.563l-3.279,3.438l-3.75,2.813l-6.879,5.158l-2.5,0.938l-5.625,1.875l-3.906,1.095l-1.465-0.516l-0.563-3.236l0.469-2.655
                    l-0.156-2.031l-2.5-1.094l-4.375-0.938l-3.75-1.094L827.12,191.47L827.12,191.47z"/>

        <path id="NJ" fill="#FFFFD0" d="M827.12,191.47l-2.031,2.344v2.969l-1.875,2.969l-0.155,1.563l1.25,1.25
                    l-0.155,2.344l-2.188,1.094l0.781,2.656l0.156,1.094l2.654,0.313l0.938,2.5l3.438,2.344l2.344,1.563v0.78l-3.125,2.97l-1.563,2.188
                    l-1.405,2.656l-2.188,1.25l-1.172,0.703l-0.234,1.172l-0.588,2.52l1.057,2.17l3.125,2.813l4.688,2.188l3.906,0.625l0.156,1.405
                    l-0.781,0.934l0.313,2.656h0.781l2.031-2.345l0.781-4.688l2.654-3.906l2.971-6.25l1.094-5.313l-0.625-1.095l-0.156-9.061
                    l-1.563-3.281l-1.096,0.781l-2.654,0.313l-0.471-0.469l1.096-0.938l2.029-1.875l0.063-1.058l-0.371-3.319l0.469-2.655l-0.156-2.031
                    l-2.5-1.094l-4.375-0.938l-3.75-1.094L827.12,191.47L827.12,191.47z"/>

        <path id="PA" fill="#D7FFD0" d="M822.901,226.938l1.094-0.625l2.188-1.25
                    l1.404-2.656l1.563-2.188l3.125-2.97v-0.78l-2.345-1.563l-3.438-2.344l-0.938-2.5l-2.655-0.313l-0.156-1.094L821.964,206
                    l2.188-1.094l0.156-2.344l-1.25-1.25l0.154-1.563l1.875-2.969v-2.969l2.268-2.344l-1.328-0.938l-2.5-0.156l-2.188-1.875
                    l-2.344-5.155l-2.904-0.9l-2.252-2.069l-17.969,3.906l-41.563,8.438l-8.596,1.405l-0.479-6.847l-5.303,5.441l-1.25,0.469
                    l-4.063,2.908l2.813,18.497l1.631,10.391l3.453,18.617l4.475-0.727l11.545-1.451l36.656-7.409l14.379-2.729l8.021-1.567
                    l1.246-1.219l2.031-1.563h2.033L822.901,226.938L822.901,226.938z"/>

        <path id="DE" fill="#FFD0D0" d="M821.805,230.221l0.783-2.032l0.232-1.25h-1.953l-2.029,1.563
                    l-1.406,1.406l1.406,4.063l2.188,5.469l2.03,9.375l1.563,6.094l4.844-0.156l5.938-1.171l-2.188-7.108l-0.938,0.469l-3.438-2.344
                    l-1.719-4.531l-1.875-3.438l-2.188-0.938l-2.029-3.438L821.805,230.221L821.805,230.221z"/>

        <path id="MD" fill="#F2D0FF" d="M835.399,253.501l-5.938,1.248l-4.846,0.156l-1.563-6.094
                    l-2.03-9.375l-2.188-5.469l-1.244-4.251l-8.021,1.567l-14.379,2.729l-36.197,7.298l1.094,4.844l0.938,5.469l0.313-0.313
                    l2.029-2.344l2.188-2.97l2.345-0.155l1.405-1.406l1.72-2.5l1.25,0.625l2.813-0.313l2.5-2.03l1.939-1.405l1.782-0.469l1.591,1.092
                    l2.813,1.406l1.875,1.719l1.172,1.484l3.984,1.641v2.813l5.313,1.25l1.875,1.25l0.938-1.875l2.189,1.563l-1.406,3.125l-0.313,2.656
                    l-1.721,2.5v2.03l0.625,1.72l4.896,1.31l4.166-0.06l2.97,0.938l2.03,0.313l0.938-2.031l-1.404-2.031v-1.719l-2.346-2.031
                    l-2.029-5.313l1.25-5.156l-0.155-2.031l-1.25-1.25c0,0,1.405-1.563,1.405-2.188s0.47-2.031,0.47-2.031l1.875-1.25l1.875-1.563
                    l0.47,0.938l-1.406,1.563l-1.25,3.595l0.313,1.094l1.719,0.313l0.469,5.313l-2.029,0.938l0.313,3.438l0.469-0.156l1.094-1.875
                    l1.563,1.719l-1.563,1.25l-0.313,3.281l2.5,3.281l3.75,0.469l1.563-0.781l3.125,5l1.721,0.47v3.438l-2.188,4.688l-0.469,6.719
                    l1.406,3.281l1.404,0.155l1.875-4.063l0.779-3.438l0.156-6.875l2.969-4.688l2.031-6.719v-5.471H835.399L835.399,253.501z
                     M819.544,262.954l1.095,2.422l0.155,1.72l1.095,1.797c0,0,0.856-0.859,0.856-1.172s-0.701-2.97-0.701-2.97l-0.703-2.266
                    L819.544,262.954z"/>

        <path id="VA" fill="#FFD0D0" d="M725.399,294.751l1.875,3.437l1.25,1.25l2.813,0.781l2.5-0.625
                    l2.345-2.188c0,0,1.72,1.404,2.345,1.25c0.625-0.156,4.219-0.938,4.219-0.938l1.719-4.53l2.5,0.938l3.125-2.345l1.406,0.313
                    l2.031-1.875l0.155-2.656l-0.78-1.25l4.842-10.469l2.031-6.406l0.313-4.219l1.72-0.156l1.563,2.656l1.25,0.781h2.5l1.094-5.313
                    l0.313-2.969l3.28-0.313l0.47-2.188l2.969-2.344l0.625-1.563l1.564-2.656l0.469-2.03l0.156-5.156l4.375,1.719l5.469,2.969
                    l0.781-4.922l4.063,1.953v2.813l5.313,1.25l1.875,1.25l0.938-1.875l2.188,1.563l-1.405,3.125l-0.313,2.656l-1.721,2.5V261
                    l0.625,1.719l4.896,1.31l1.82,1.503l5,0.313l2.5,2.188l3.125,0.625l1.25,1.25l-0.469,4.375l0.938,0.938l0.155,2.188l1.25,2.031
                    l-0.155,1.719l-3.125-1.094v0.938l1.875,1.563v1.094l1.405,1.095l1.25,1.563l0.156,2.188l-2.188,1.405l0.313,0.47l2.5-0.47
                    l3.125-0.625l1.094-0.155l3.938,6.792l-4.72,1.646l-11.095,2.813l-18.521,3.697l-19.914,3.646l-16.563,2.5l-15.289,1.875
                    l-6.896,1.25l-4.361-0.6l-2.045-0.025l-2.344,1.875l-7.656,0.154l-11.594,1.838l-9.664,0.899l2.664-1.331l5.469-3.281l3.75-2.029
                    v-2.031l1.721-1.719l4.375-5.156l4.063-3.438L725.399,294.751L725.399,294.751z"/>

        <path id="NC" fill="#F2D0FF" d="M830.932,295.991l1.653,4.541l3.438,6.25
                    l2.344,2.344l0.625,2.188l-2.344,0.156l0.779,0.625l-0.313,4.063l-2.5,1.25l-0.625,2.029l-1.25,2.813l-3.594,1.563l-2.346-0.313
                    l-1.404-0.154l-1.563-1.25l0.313,1.25v0.938h1.875l0.779,1.25l-1.875,6.094h4.063l0.625,1.563l2.188-2.188l1.25-0.469l-1.875,3.438
                    l-2.969,4.688h-1.25l-1.096-0.47l-2.654,0.625l-5,2.345l-6.25,5.155l-3.281,4.529l-1.875,6.25l-0.469,2.344l-4.531,0.469
                    l-5.697,2.146l-9.613-7.931l-12.188-7.345l-2.813-0.78l-12.188,1.405l-4.22,0.47l-1.563-3.125l-2.188-1.875l-15.938,0.471
                    l-7.031,0.779l-8.75,4.375l-5.938,2.5l-1.563,0.313l-5.625,0.938l-6.719,0.78l-6.563,0.47l0.313-4.688l1.719-1.405l2.656-0.625
                    l0.625-3.595l4.063-2.655l3.75-1.404l4.063-3.438l4.219-2.03l0.625-2.97l3.75-3.75l0.625-0.155c0,0,0,1.094,0.781,1.094
                    c0.779,0,1.875,0.313,1.875,0.313l2.188-3.438l2.031-0.625l2.188,0.313l1.563-3.438l2.814-2.5l0.469-2.029v-3.828l4.375,0.703
                    l6.896-1.25l15.291-1.875l16.563-2.5l19.912-3.646l18.523-3.697l11.096-2.813L830.932,295.991L830.932,295.991z M834.698,327.874
                    l2.5-2.422l3.047-2.5l1.484-0.625l0.154-1.953l-0.625-5.938l-1.404-2.267l-0.625-1.799l0.702-0.231l2.655,5.313l0.393,4.297
                    l-0.156,3.28l-3.279,1.484l-2.732,2.344l-1.095,1.172L834.698,327.874z"/>

        <path id="SC" fill="#FFD0D0" d="M762.43,406.627l-1.719,0.938l-2.5-1.25l-0.625-2.031
                    l-1.25-3.438l-2.188-2.031l-2.5-0.625l-1.563-4.688l-2.656-5.779l-4.063-1.875l-2.029-1.875l-1.25-2.5l-2.029-1.875l-2.189-1.25
                    l-2.188-2.813l-2.969-2.188l-4.375-1.72l-0.469-1.405l-2.344-2.813l-0.471-1.406l-3.279-5l-3.281,0.156l-3.906-2.345l-1.25-1.25
                    l-0.313-1.717l0.779-1.875l2.188-0.938l-0.313-2.031l5.938-2.5l8.75-4.375l7.031-0.779l15.938-0.471l2.188,1.875l1.563,3.125
                    l4.22-0.469l12.188-1.406l2.814,0.781l12.188,7.344l9.771,7.852l-5.238,5.273l-2.5,5.938l-0.469,6.095l-1.564,0.78l-1.094,2.656
                    l-2.344,0.625l-2.031,3.438l-2.656,2.654l-2.188,3.281l-1.563,0.779l-3.438,3.281l-2.813,0.155l0.938,3.125l-4.845,5.313
                    L762.43,406.627L762.43,406.627z"/>

        <path id="GA" fill="#D7FFD0" d="M693.212,353.499l-4.688,0.78l-8.125,1.095l-8.281,0.858v2.109
                    l0.156,2.03l0.625,3.281l3.279,7.654l2.346,9.531l1.404,5.938l1.563,4.688l1.406,6.72l2.029,6.094l2.5,3.281l0.471,3.281
                    l1.875,0.78l0.154,2.03l-1.719,4.688l-0.471,3.125l-0.154,1.875l1.563,4.219l0.313,5.156l-0.781,2.344l0.625,0.781l1.406,0.78
                    l0.625,3.279l2.5,3.75l1.406,1.406l7.656,0.156l10.457-0.625l20.793-1.25l5.264-0.651l4.424,0.026l0.156,2.813l2.5,0.781
                    l0.313-4.219l-1.563-4.375l1.094-1.563l5.625,0.78l4.813,0.309l-0.748-6.089l2.188-9.688l1.406-4.063l-0.469-2.501l3.905-6.719
                    l-0.579-1.563l-1.766,0.938l-2.5-1.25l-0.625-2.03l-1.25-3.438l-2.188-2.031l-2.5-0.625l-1.564-4.688l-2.654-5.781l-4.063-1.875
                    l-2.031-1.875l-1.25-2.5l-2.028-1.875l-2.188-1.25l-2.188-2.813l-2.97-2.188l-4.375-1.719l-0.469-1.406l-2.344-2.813l-0.47-1.406
                    l-3.28-5l-3.281,0.156l-3.906-2.345l-1.25-1.25l-0.313-1.72l0.78-1.875l2.188-0.938l-0.156-2.205l-1.719,0.486l-5.625,0.938
                    l-6.719,0.78L693.212,353.499L693.212,353.499z"/>

        <path id="AL" fill="#FFD0D0" d="M631.337,458.659l-1.563-14.688l-2.656-18.126l0.156-13.594
                    l0.779-30.001l-0.154-16.094l0.158-6.203l7.496-0.358l26.875-2.5l9.83-0.858l-0.145,2.108l0.156,2.03l0.625,3.281l3.279,7.654
                    l2.346,9.531l1.404,5.938l1.563,4.688l1.406,6.719l2.029,6.095l2.5,3.28l0.471,3.281l1.875,0.781l0.154,2.028l-1.719,4.688
                    l-0.469,3.125l-0.156,1.875l1.563,4.219l0.313,5.156l-0.781,2.344l0.625,0.781l1.406,0.781l0.779,3.438h-6.094l-6.563,0.625
                    l-24.688,2.813l-9.846,1.25l-0.313,2.97l1.721,1.719l2.5,1.875l0.563,7.67l-6.346,2.487l-2.654-0.313l2.654-1.875v-0.938
                    l-2.969-5.781l-2.188-0.625l-1.406,4.22l-1.25,2.655l-0.625-0.155L631.337,458.659L631.337,458.659z"/>

        <path id="FL" fill="#F2D0FF" d="M756.962,437.252l2.021,7.928l3.604,9.416
                    l5.156,9.063l3.594,6.096l4.689,5.313l3.905,3.594l1.563,2.813l-1.094,1.25l-0.781,1.25l2.813,7.188l2.813,2.813l2.5,5.156
                    l3.439,5.625l4.375,7.969l1.25,7.344l0.469,11.563l0.625,1.719l-0.313,3.281l-2.346,1.25l0.314,1.875l-0.625,1.875l0.313,2.344
                    l0.467,1.871l-2.655,3.125l-2.97,1.404l-3.75,0.155l-1.405,1.563l-2.345,0.938l-1.25-0.47l-1.096-0.938l-0.313-2.813l-0.78-3.281
                    l-3.281-5l-3.438-2.188l-3.75-0.313l-0.78,1.25l-2.97-4.22l-0.625-3.438l-2.501-3.904l-1.719-1.096l-1.563,2.03l-1.721-0.313
                    l-2.029-4.846l-2.813-3.75l-2.813-5.154l-2.5-2.971l-3.438-3.594l2.031-2.345l3.125-5.313l-0.156-1.563l-4.375-0.938l-1.563,0.625
                    l0.313,0.625l2.5,0.938l-1.406,4.375l-0.779,0.469l-1.721-3.905l-1.25-4.688l-0.313-2.656l1.406-4.53v-9.22l-2.971-3.594
                    l-1.25-2.969l-5-1.25l-1.875-0.625l-1.563-2.5l-3.279-1.563l-1.096-3.281l-2.654-0.938l-2.346-3.594l-4.063-1.406l-2.813-1.405
                    h-2.5l-3.906,0.78l-0.156,1.875l0.781,0.938l-0.469,1.096l-2.969-0.156l-3.596,3.438l-3.438,1.875h-3.75l-3.125,1.25l-0.313-2.654
                    l-1.563-1.875l-2.813-1.096l-1.555-1.4l-7.813-3.75l-7.345-1.719l-4.221,0.625l-5.779,0.469l-5.78,2.031l-3.362,0.593l-0.229-7.78
                    l-2.5-1.875l-1.721-1.719l0.314-2.969l9.844-1.25l24.688-2.813l6.563-0.625l5.938-0.156l2.5,3.75l1.404,1.406l7.656,0.156
                    l10.457-0.625l20.793-1.25l5.264-0.652l4.426,0.027l0.154,2.813l2.5,0.781l0.314-4.219l-1.564-4.375l1.096-1.563l5.625,0.78
                    L756.962,437.252L756.962,437.252z M768.917,566.079l2.344-0.625l1.25-0.232l1.406-2.268l2.268-1.563l1.25,0.469l1.641,0.313
                    l0.393,1.016l-3.357,1.172l-4.064,1.406l-2.266,1.172L768.917,566.079z M781.964,561.235l1.172,1.019l2.656-2.031l5.156-4.063
                    l3.594-3.75l2.422-6.403l0.938-1.644l0.156-3.28l-0.703,0.471l-0.938,2.731l-1.406,4.453l-3.125,5.078l-4.219,4.063l-3.281,1.875
                    L781.964,561.235z"/>

		<path id="AK" fill="url(#clinton)" d="M179.462,446.001
                    l-0.313,82.5l1.563,0.938l2.969,0.156l1.406-1.094h2.5l0.156,2.813l6.719,6.563l0.469,2.5l3.281-1.875l0.625-0.156l0.313-2.969
                    l1.406-1.563l1.094-0.156l1.875-1.403l2.969,2.028l0.625,2.813l1.875,1.094l1.094,2.345l3.75,1.721l3.281,5.779l2.656,3.75
                    l2.188,2.655l1.406,3.595l4.844,1.721l5,2.029l0.938,4.221l0.469,2.969l-0.938,3.281l-1.719,2.188l-1.563-0.781l-1.406-2.969
                    l-2.656-1.406l-1.719-1.094l-0.781,0.781l1.406,2.656l0.156,3.594l-1.094,0.469l-1.875-1.875l-2.031-1.25l0.469,1.563l1.25,1.719
                    l-0.781,0.781c0,0-0.781-0.313-1.25-0.938c-0.469-0.625-2.031-3.281-2.031-3.281l-0.938-2.188c0,0-0.313,1.25-0.938,0.938
                    c-0.625-0.312-1.25-1.403-1.25-1.403l1.719-1.875l-1.406-1.406v-4.844h-0.781l-0.781,3.278l-1.094,0.472l-0.938-3.597l-0.625-3.594
                    l-0.781-0.469l0.313,5.469v1.094l-1.406-1.25l-3.438-5.778l-2.031-0.472l-0.625-3.594l-1.563-2.813l-1.563-1.096v-2.188l2.031-1.25
                    l-0.469-0.313l-2.5,0.625l-3.282-2.344l-2.5-2.813l-4.688-2.5l-3.906-2.5l1.25-3.125v-1.563l-1.719,1.563l-2.813,1.094
                    l-3.594-1.094l-5.469-2.346h-5.313l-0.625,0.471l-6.25-3.75l-2.031-0.313l-2.656-5.625l-3.438,0.313l-3.438,1.404l0.469,4.375
                    l1.094-2.813l0.938,0.313l-1.406,4.221l3.125-2.656l0.625,1.563l-3.75,4.222l-1.25-0.313l-0.469-1.875l-1.25-0.781l-1.25,1.097
                    l-2.656-1.722l-2.969,2.031l-1.719,2.031l-3.281,2.031l-4.531-0.156l-0.469-2.031l3.594-0.625v-1.25l-2.188-0.625l0.938-2.344
                    l2.188-3.75v-1.719l0.156-0.781l4.219-2.188l0.938,1.25h2.656l-1.25-2.5l-3.594-0.313l-4.844,2.656l-2.344,3.278l-1.719,2.5
                    l-1.094,2.188l-4.063,1.406l-2.969,2.5l-0.313,1.563l2.188,0.938l0.781,2.029l-2.656,3.125l-6.25,4.063l-7.5,4.063l-2.031,1.097
                    l-5.157,1.094l-5.156,2.188l1.719,1.25l-1.406,1.405l-0.469,1.095l-2.656-0.938l-3.125,0.156l-0.781,2.188h-0.938l0.313-2.344
                    l-3.438,1.25l-2.813,0.938l-3.281-1.25l-2.813,1.875h-3.125l-2.031,1.25l-1.563,0.78l-2.031-0.313l-2.5-1.097l-2.188,0.625
                    l-0.938,0.938l-1.563-1.094v-1.875l2.969-1.25l6.094,0.625l4.219-1.563l2.031-2.031l2.813-0.625l1.719-0.778l2.656,0.153
                    l1.563,1.25l0.938-0.313l2.188-2.656l2.969-0.938l3.281-0.625l1.25-0.313l0.625,0.47h0.781l1.25-3.595l3.906-1.405l1.875-3.595
                    l2.188-4.375l1.563-1.405l0.313-2.5l-1.563,1.25l-3.282,0.625l-0.625-2.345l-1.25-0.313l-0.938,0.938l-0.156,2.813l-1.406-0.156
                    l-1.406-5.625l-1.25,1.25l-1.094-0.469l-0.313-1.875l-3.906,0.154l-2.031,1.096l-2.5-0.313l1.406-1.405l0.469-2.5l-0.625-1.875
                    l1.406-0.938l1.25-0.156l-0.625-1.719V516l-0.938-0.938l-0.781,1.406H79.77l-1.406-1.25l-0.625-3.75l-2.031-3.438v-0.938
                    l2.031-0.781l0.156-2.03l1.094-1.095l-0.781-0.469l-1.25,0.469l-1.094-2.655l0.938-4.845l4.375-3.125l2.5-1.563l1.875-3.597
                    l2.656-1.25l2.5,1.097l0.313,2.344l2.344-0.313l3.125-2.344l1.563,0.625l0.938,0.625h1.563l2.188-1.25l0.781-4.219
                    c0,0,0.313-2.813,0.938-3.281s0.938-0.938,0.938-0.938l-1.094-1.875l-2.5,0.779l-3.125,0.78l-1.875-0.469l-3.438-1.719
                    l-4.844-0.156l-3.438-3.594l0.469-3.75l0.625-2.347l-2.031-1.719l-1.875-3.594l0.469-0.781l6.563-0.469h2.031l0.938,0.938h0.625
                    l-0.156-1.563l3.75-0.625l2.5,0.313l1.406,1.097l-1.406,2.028l-0.469,1.406l2.656,1.563l4.844,1.719l1.719-0.938l-2.188-4.215
                    l-0.938-3.125l0.938-0.781l-3.282-1.875l-0.469-1.094l0.469-1.563l-0.781-3.75l-2.813-4.529l-2.344-4.063l2.813-1.875h3.125
                    l1.719,0.625l4.063-0.156l3.594-3.438l1.094-2.969l3.594-2.346l1.563,0.938l2.656-0.625l3.594-2.03l1.094-0.156l0.938,0.781
                    l4.375-0.156l2.656-2.969h1.094l3.438,2.344l1.875,2.031l-0.469,1.094l0.625,1.096l1.563-1.563l3.75,0.313l0.313,3.594l1.875,1.406
                    l6.875,0.625l6.094,4.063l1.406-0.938l5,2.5l2.031-0.625l1.875-0.781l4.688,1.875L179.462,446.001L179.462,446.001z M68.211,473.97
                    l2.031,5.156l-0.156,0.938l-2.813-0.313l-1.719-3.906l-1.719-1.406h-2.344l-0.156-2.5l1.719-2.344l1.094,2.344l1.406,1.406
                    L68.211,473.97z M65.711,506.313l3.594,0.781l3.594,0.938l0.781,0.938l-1.563,3.594l-2.969-0.155l-3.281-3.438L65.711,506.313z
                     M45.711,492.72l1.094,2.5l1.094,1.563l-1.094,0.781l-2.031-2.969v-1.875H45.711z M32.43,563.345l3.281-2.188l3.281-0.938
                    l2.5,0.313l0.469,1.563l1.875,0.469l1.875-1.875l-0.313-1.563l2.656-0.625l2.813,2.5l-1.094,1.719l-4.219,1.094l-2.656-0.469
                    l-3.594-1.094l-4.219,1.404l-1.563,0.313L32.43,563.345z M79.774,558.97l1.563,1.875l2.031-1.563l-1.406-1.25L79.774,558.97z
                     M82.586,561.938l1.094-2.188l2.031,0.313l-0.781,1.875H82.586z M105.399,560.063l1.406,1.719l0.938-1.094l-0.781-1.875
                    L105.399,560.063z M113.837,548.032l1.094,5.625l2.813,0.781l4.844-2.813l4.219-2.5l-1.563-2.346l0.469-2.345l-2.031,1.25
                    l-2.813-0.78l1.563-1.095l1.875,0.781l3.75-1.719l0.469-1.406l-2.344-0.781l0.781-1.875l-2.656,1.875l-4.531,3.438l-4.688,2.813
                    L113.837,548.032z M154.774,528.813l2.344-1.406l-0.938-1.719l-1.719,0.938L154.774,528.813z"/>

        <path id="HI" fill="#FFFFD0" d="M251.962,509.438l1.875-3.438l2.188-0.313l0.313,0.781
                    l-2.031,2.969L251.962,509.438L251.962,509.438z M261.806,505.845l5.938,2.5l2.031-0.313l1.563-3.75l-0.625-3.279l-4.063-0.471
                    l-3.906,1.721L261.806,505.845L261.806,505.845z M291.494,515.532l3.594,5.313l2.344-0.313l1.094-0.469l1.406,1.25l3.594-0.156
                    l0.938-1.403l-2.813-1.722l-1.875-3.594l-2.031-3.438l-5.625,2.813L291.494,515.532L291.494,515.532z M311.025,524.126l1.25-1.875
                    l4.531,0.938l0.625-0.469l5.938,0.625l-0.313,1.25l-2.5,1.406l-4.221-0.313L311.025,524.126z M316.183,529.126l1.875,3.75
                    l2.969-1.096l0.313-1.563l-1.563-2.031l-3.594-0.313V529.126L316.183,529.126z M322.9,528.032l2.188-2.813l4.531,2.344l4.22,1.094
                    l4.221,2.656v1.875l-3.438,1.719l-4.688,0.938l-2.346-1.406L322.9,528.032L322.9,528.032z M338.994,543.032l1.563-1.25l3.281,1.563
                    l7.344,3.438l3.281,2.03l1.563,2.345l1.875,4.221l3.904,2.5l-0.313,1.25l-3.75,3.125l-4.063,1.404l-1.405-0.625l-2.97,1.721
                    l-2.345,3.125l-2.188,2.813l-1.721-0.156l-3.438-2.5l-0.313-4.375l0.625-2.344l-1.563-5.469l-2.03-1.719l-0.155-2.5l2.188-0.938
                    l2.031-2.969l0.469-0.938l-1.563-1.719L338.994,543.032L338.994,543.032z"/>

	</g>

	<g id="state-winners">
	</g>
</svg>
