<?xml version="1.0" standalone="no"?>
<!DOCTYPE svg PUBLIC "-//W3C//DTD SVG 20010904//EN"
 "http://www.w3.org/TR/2001/REC-SVG-20010904/DTD/svg10.dtd">
<svg version="1.0" xmlns="http://www.w3.org/2000/svg"
 width="700.000000pt" height="700.000000pt" viewBox="0 0 700.000000 700.000000"
 preserveAspectRatio="xMidYMid meet">
<metadata>
Created by potrace 1.11, written by Peter Selinger 2001-2013
</metadata>
<g transform="translate(0.000000,700.000000) scale(0.100000,-0.100000)"
fill="#000000" stroke="none">
<path d="M3418 6205 c-2 -2 -34 -6 -73 -9 -65 -5 -93 -9 -155 -21 -14 -3 -34
-7 -45 -9 -107 -20 -283 -85 -419 -153 -302 -152 -560 -399 -711 -678 -123
-230 -197 -518 -210 -829 -4 -85 6 -113 42 -122 20 -6 909 -10 993 -5 14 1 70
129 70 160 0 11 -103 164 -348 519 l-64 93 69 -5 c71 -6 214 -14 368 -21 50
-2 137 -6 195 -10 l105 -6 225 292 224 293 17 -65 c33 -126 97 -366 134 -505
l38 -142 331 -117 c182 -65 337 -121 344 -125 9 -4 -20 -29 -85 -70 -137 -90
-333 -216 -430 -279 l-83 -54 -1 -46 c-1 -25 -2 -82 -4 -126 -1 -44 -6 -185
-9 -314 -4 -129 -8 -237 -11 -239 -3 -3 -463 363 -548 436 -19 17 -44 12 -227
-45 -74 -23 -93 -34 -145 -84 -80 -77 -161 -216 -181 -312 -45 -212 -56 -342
-58 -644 0 -96 4 -147 11 -154 9 -9 186 -12 688 -12 597 0 678 2 692 15 10 11
17 42 20 99 9 153 41 261 87 291 6 3 24 18 41 32 16 14 65 45 108 68 148 82
262 151 317 193 239 184 389 447 446 780 17 101 24 434 10 500 -3 17 -9 50
-12 75 -14 118 -74 309 -137 435 -139 281 -363 520 -649 692 -48 29 -90 53
-93 53 -2 0 -37 15 -77 34 -123 57 -297 104 -464 126 -81 10 -329 21 -336 15z"/>
<path d="M3344 2584 c-183 -29 -340 -111 -478 -248 -107 -106 -178 -220 -220
-351 -36 -115 -45 -178 -44 -308 2 -263 86 -467 264 -642 42 -41 80 -75 85
-75 4 0 14 -6 21 -13 38 -38 220 -117 305 -132 300 -52 553 0 761 156 156 118
288 304 328 464 29 113 33 154 29 280 -5 155 -24 236 -84 365 -85 179 -264
353 -451 438 -85 38 -119 48 -225 68 -61 11 -212 10 -291 -2z"/>
</g>
</svg>
